{
.appVersion = "1147";
copyright = "Copyright 2011 The Changa Project Authors (https://github.com/etunni/Changa)";
customParameters = (
{
name = licenseURL;
value = "http://scripts.sil.org/OFL";
},
{
name = trademark;
value = "Changa is a trademark of Eduardo Rodriguez Tunni.";
},
{
name = license;
value = "This Font Software is licensed under the SIL Open Font License, Version 1.1. This license is available with a FAQ at: http://scripts.sil.org/OFL";
},
{
name = openTypeOS2VendorID;
value = TIPO;
},
{
name = fsType;
value = (
);
},
{
name = "Use Typo Metrics";
value = 1;
},
{
name = "Disable Last Change";
value = 1;
},
{
name = "Use Line Breaks";
value = 1;
},
{
name = Axes;
value = (
{
Name = Weight;
Tag = wght;
}
);
}
);
date = "2017-08-04 12:02:30 +0000";
designer = "Eduardo Rodriguez Tunni";
designerURL = "http://www.tipo.net.ar";
disablesNiceNames = 1;
familyName = Changa;
featurePrefixes = (
{
automatic = 1;
code = "languagesystem DFLT dflt;
languagesystem arab dflt;
languagesystem latn dflt;
languagesystem latn CAT;
languagesystem latn ROM;
languagesystem latn MOL;
languagesystem latn KAZ;
languagesystem latn TAT;
languagesystem latn TRK;
languagesystem latn CRT;
languagesystem latn AZE;
languagesystem arab URD;
";
name = Languagesystems;
}
);
features = (
{
automatic = 1;
code = "feature ccmp;
feature locl;
feature subs;
feature sups;
feature numr;
feature dnom;
feature ordn;
feature init;
feature medi;
feature fina;
feature sinf;
feature frac;
";
name = aalt;
},
{
automatic = 1;
code = "lookup ccmp_Other_1 {
	@CombiningTopAccents = [acutecomb brevecomb caroncomb circumflexcomb commaturnedabovecomb dieresiscomb dotaccentcomb gravecomb hungarumlautcomb macroncomb ringcomb tildecomb];
	@CombiningNonTopAccents = [cedillacomb ogonekcomb slashlongcomb slashshortcomb strokelongcomb strokeshortcomb];
	sub [i j]' @CombiningTopAccents by [idotless jdotless];
	sub [i j]' @CombiningNonTopAccents @CombiningTopAccents by [idotless jdotless];
} ccmp_Other_1;


glyphs = (
{
glyphname = A;
layers = (
{
anchors = (
{
name = bottom;
position = "{321, 0}";
},
{
name = ogonek;
position = "{626, 0}";
},
{
name = top;
position = "{321, 625}";
}
);
background = {
paths = (
{
closed = 1;
nodes = (
"205 0 LINE",
"316 433 LINE",
"325 433 LINE",
"436 0 LINE",
"636 0 LINE",
"476 625 LINE",
"165 625 LINE",
"5 0 LINE"
);
},
{
closed = 1;
nodes = (
"519 99 LINE",
"519 244 LINE",
"122 244 LINE",
"122 99 LINE"
);
}
);
};
layerId = "1124150E-252C-4727-BAB2-2837E441E30C";
paths = (
{
closed = 1;
nodes = (
"205 0 LINE",
"316 433 LINE",
"325 433 LINE",
"436 0 LINE",
"636 0 LINE",
"476 625 LINE",
"165 625 LINE",
"5 0 LINE"
);
},
{
closed = 1;
nodes = (
"519 99 LINE",
"519 244 LINE",
"122 244 LINE",
"122 99 LINE"
);
}
);
width = 641;
},
{
anchors = (
{
name = bottom;
position = "{260.25, 0}";
},
{
name = ogonek;
position = "{504.5, 0}";
},
{
name = top;
position = "{260.25, 625}";
}
);
hints = (
{
horizontal = 1;
origin = "{1, 3}";
target = "{1, 2}";
type = Stem;
},
{
horizontal = 1;
origin = "{0, 1}";
target = "{0, 6}";
type = Stem;
},
{
horizontal = 1;
origin = "{0, 7}";
target = up;
type = BottomGhost;
},
{
horizontal = 1;
origin = "{0, 6}";
target = down;
type = TopGhost;
}
);
layerId = "3D3F176D-2450-4887-9AC4-1237D1CC87EB";
paths = (
{
closed = 1;
nodes = (
"83.5 0 LINE",
"255.25 568 LINE",
"264.25 568 LINE",
"436 0 LINE",
"501 0 LINE",
"307.25 625 LINE",
"212.25 625 LINE",
"18.5 0 LINE"
);
},
{
closed = 1;
nodes = (
"420.45 154.35 LINE",
"420.45 210.25 LINE",
"101.75 210.25 LINE",
"101.75 154.35 LINE"
);
}
);
width = 519.5;
}
);
leftKerningGroup = A;
rightKerningGroup = A;
unicode = 0041;
},
{
glyphname = AE;
layers = (
{
anchors = (
{
name = bottom;
position = "{419, 0}";
},
{
name = top;
position = "{419, 625}";
}
);
layerId = "1124150E-252C-4727-BAB2-2837E441E30C";
paths = (
{
closed = 1;
nodes = (
"216 0 LINE",
"239 99 LINE",
"404 99 LINE",
"427 0 LINE",
"808 0 LINE",
"808 160 LINE",
"596 160 LINE",
"577 236 LINE",
"717 236 LINE",
"717 381 LINE",
"539 381 LINE",
"517 465 LINE",
"732 465 LINE",
"757 625 LINE",
"167 625 LINE",
"5 0 LINE"
);
},
{
closed = 1;
nodes = (
"316 433 LINE",
"327 433 LINE",
"367 258 LINE",
"275 258 LINE"
);
}
);
width = 838;
},
{
anchors = (
{
name = bottom;
position = "{365, 0}";
},
{
name = top;
position = "{365, 625}";
}
);
hints = (
{
horizontal = 1;
origin = "{0, 15}";
target = "{0, 6}";
type = Stem;
},
{
horizontal = 1;
origin = "{0, 1}";
target = "{1, 3}";
type = Stem;
},
{
horizontal = 1;
origin = "{0, 7}";
target = "{0, 10}";
type = Stem;
},
{
horizontal = 1;
origin = "{0, 14}";
target = "{0, 11}";
type = Stem;
},
{
horizontal = 1;
origin = "{0, 15}";
target = up;
type = BottomGhost;
},
{
horizontal = 1;
origin = "{0, 14}";
target = down;
type = TopGhost;
}
);
layerId = "3D3F176D-2450-4887-9AC4-1237D1CC87EB";
paths = (
{
closed = 1;
nodes = (
"87.75 0 LINE",
"124.25 150.3 LINE",
"382.4 150.3 LINE",
"420.25 0 LINE",
"673 0 LINE",
"673 65.5 LINE",
"471.8 65.5 LINE",
"417.7 276.5 LINE",
"580.65 276.5 LINE",
"580.65 340.5 LINE",
"401.3 340.5 LINE",
"344.2 559.5 LINE",
"611.85 559.5 LINE",
"623.35 625 LINE",
"180.5 625 LINE",
"18.5 0 LINE"
);
},
{
closed = 1;
nodes = (
"228.25 568 LINE",
"279.75 568 LINE",
"365.65 216.15 LINE",
"141.35 216.15 LINE"
);
}
);
width = 730;
}
);
leftKerningGroup = A;
leftMetricsKey = A;
rightKerningGroup = E;
rightMetricsKey = E;
unicode = 00C6;
},
{
glyphname = B;
layers = (
{
layerId = "1124150E-252C-4727-BAB2-2837E441E30C";
paths = (
{
closed = 1;
nodes = (
"50 0 LINE",
"369 0 LINE SMOOTH",
"499 0 OFFCURVE",
"572 63 OFFCURVE",
"572 176 CURVE SMOOTH",
"572 241 OFFCURVE",
"528 301 OFFCURVE",
"471 314 CURVE",
"471 320 LINE",
"513 344 OFFCURVE",
"541 401 OFFCURVE",
"541 460 CURVE SMOOTH",
"541 576 OFFCURVE",
"480 625 OFFCURVE",
"334 625 CURVE SMOOTH",
"50 625 LINE"
);
},
{
closed = 1;
nodes = (
"250 561 LINE",
"169 480 LINE",
"299 480 LINE SMOOTH",
"333 480 OFFCURVE",
"341 471 OFFCURVE",
"341 434 CURVE SMOOTH",
"341 397 OFFCURVE",
"332 387 OFFCURVE",
"299 387 CURVE SMOOTH",
"234 387 LINE",
"234 247 LINE",
"323 247 LINE SMOOTH",
"356 247 OFFCURVE",
"366 235 OFFCURVE",
"366 196 CURVE SMOOTH",
"366 158 OFFCURVE",
"355 145 OFFCURVE",
"322 145 CURVE SMOOTH",
"169 145 LINE",
"250 64 LINE"
);
}
);
width = 592;
},
{
hints = (
{
horizontal = 1;
origin = "{0, 0}";
target = "{1, 18}";
type = Stem;
},
{
horizontal = 1;
origin = "{1, 10}";
target = "{1, 9}";
type = Stem;
},
{
horizontal = 1;
origin = "{0, 15}";
target = "{1, 1}";
type = Stem;
},
{
origin = "{0, 0}";
target = "{1, 19}";
type = Stem;
},
{
origin = "{1, 14}";
target = "{0, 4}";
type = Stem;
},
{
origin = "{1, 5}";
target = "{0, 11}";
type = Stem;
},
{
horizontal = 1;
origin = "{0, 0}";
target = up;
type = BottomGhost;
},
{
horizontal = 1;
origin = "{0, 15}";
target = down;
type = TopGhost;
}
);
layerId = "3D3F176D-2450-4887-9AC4-1237D1CC87EB";
paths = (
{
closed = 1;
nodes = (
"104 0 LINE",
"359.55 0 LINE SMOOTH",
"462.55 0 OFFCURVE",
"518 61.65 OFFCURVE",
"518 176 CURVE SMOOTH",
"518 246.4 OFFCURVE",
"488.85 294.25 OFFCURVE",
"429.15 316.7 CURVE",
"429.15 322.7 LINE",
"472.5 354.8 OFFCURVE",
"487 394.25 OFFCURVE",
"487 473.5 CURVE SMOOTH",
"487 576 OFFCURVE",
"435.45 625 OFFCURVE",
"328.6 625 CURVE SMOOTH",
"104 625 LINE"
);
},
{
closed = 1;
nodes = (
"169 609.6 LINE",
"136.6 577.2 LINE",
"330.05 577.2 LINE SMOOTH",
"399.15 577.2 OFFCURVE",
"422 546.6 OFFCURVE",
"422 455.6 CURVE SMOOTH",
"422 367.3 OFFCURVE",
"398.15 337.05 OFFCURVE",
"328.7 337.05 CURVE SMOOTH",
"153 337.05 LINE",
"153 291.55 LINE",
"358.1 291.55 LINE SMOOTH",
"427.55 291.55 OFFCURVE",
"455.1 259.3 OFFCURVE",
"455.1 177.1 CURVE SMOOTH",
"455.1 85.1 OFFCURVE",
"426.55 47.8 OFFCURVE",
"357.1 47.8 CURVE SMOOTH",
"136.6 47.8 LINE",
"169 15.4 LINE"
);
}
);
width = 578.5;
}
);
leftKerningGroup = H;
leftMetricsKey = H;
rightKerningGroup = B;
unicode = 0042;
},
{
glyphname = C;
layers = (
{
anchors = (
{
name = bottom;
position = "{285, 0}";
},
{
name = top;
position = "{295, 625}";
}
);
background = {
paths = (
{
closed = 0;
nodes = (
"475 446 LINE",
"490 614 LINE"
);
}
);
};
layerId = "1124150E-252C-4727-BAB2-2837E441E30C";
paths = (
{
closed = 1;
nodes = (
"475 179 LINE",
"436 164 OFFCURVE",
"378 155 OFFCURVE",
"324 155 CURVE SMOOTH",
"299 155 OFFCURVE",
"273 158 OFFCURVE",
"245 163 CURVE",
"245 405 LINE SMOOTH",
"245 459 OFFCURVE",
"267 475 OFFCURVE",
"339 475 CURVE SMOOTH",
"371 475 OFFCURVE",
"426 467 OFFCURVE",
"465 456 CURVE",
"490 614 LINE",
"460 628 OFFCURVE",
"381 640 OFFCURVE",
"324 640 CURVE SMOOTH",
"101 640 OFFCURVE",
"30 561 OFFCURVE",
"30 312 CURVE SMOOTH",
"30 64 OFFCURVE",
"96 -15 OFFCURVE",
"304 -15 CURVE SMOOTH",
"384 -15 OFFCURVE",
"439 -7 OFFCURVE",
"490 11 CURVE"
);
}
);
width = 510;
},
{
anchors = (
{
name = bottom;
position = "{258, 0}";
},
{
name = top;
position = "{281.5, 625}";
}
);
hints = (
{
horizontal = 1;
origin = "{0, 23}";
target = "{0, 3}";
type = Stem;
},
{
horizontal = 1;
origin = "{0, 17}";
target = "{0, 10}";
type = Stem;
},
{
origin = "{0, 20}";
target = "{0, 6}";
type = Stem;
}
);
layerId = "3D3F176D-2450-4887-9AC4-1237D1CC87EB";
paths = (
{
closed = 1;
nodes = (
"446.65 62.9 LINE",
"391.45 47.9 OFFCURVE",
"336.15 37.55 OFFCURVE",
"279.45 37.55 CURVE SMOOTH",
"230.15 37.55 OFFCURVE",
"182.55 43.25 OFFCURVE",
"146.45 55 CURVE",
"146.45 504.9 LINE SMOOTH",
"146.45 573.75 OFFCURVE",
"183.3 583 OFFCURVE",
"262.05 583 CURVE SMOOTH",
"296.75 583 OFFCURVE",
"374.7 577.7 OFFCURVE",
"428.55 565.35 CURVE",
"437.35 620.75 LINE",
"397.9 633.4 OFFCURVE",
"333.75 640 OFFCURVE",
"297 640 CURVE SMOOTH",
"113.15 640 OFFCURVE",
"77.25 575.85 OFFCURVE",
"77.25 312 CURVE SMOOTH",
"77.25 51.85 OFFCURVE",
"112.2 -15 OFFCURVE",
"290.5 -15 CURVE SMOOTH",
"358.35 -15 OFFCURVE",
"406.6 -8.35 OFFCURVE",
"454.9 11 CURVE"
);
}
);
width = 481.65;
}
);
leftKerningGroup = O;
leftMetricsKey = O;
rightKerningGroup = C;
unicode = 0043;
},
{
glyphname = D;
layers = (
{
anchors = (
{
name = bottom;
position = "{328, 0}";
},
{
name = center;
position = "{170, 313}";
},
{
name = top;
position = "{328, 625}";
}
);
layerId = "1124150E-252C-4727-BAB2-2837E441E30C";
paths = (
{
closed = 1;
nodes = (
"50 0 LINE",
"329 0 LINE SMOOTH",
"560 0 OFFCURVE",
"625 68 OFFCURVE",
"625 312 CURVE SMOOTH",
"625 556 OFFCURVE",
"560 625 OFFCURVE",
"329 625 CURVE SMOOTH",
"50 625 LINE"
);
},
{
closed = 1;
nodes = (
"332 469 LINE SMOOTH",
"391 469 OFFCURVE",
"410 454 OFFCURVE",
"410 406 CURVE SMOOTH",
"410 219 LINE SMOOTH",
"410 171 OFFCURVE",
"391 156 OFFCURVE",
"332 156 CURVE SMOOTH",
"250 156 LINE",
"250 469 LINE"
);
}
);
width = 655;
},
{
anchors = (
{
name = bottom;
position = "{306.4, 0}";
},
{
name = center;
position = "{156.5, 313}";
},
{
name = top;
position = "{306.4, 625}";
}
);
hints = (
{
horizontal = 1;
origin = "{0, 0}";
target = "{1, 8}";
type = Stem;
},
{
horizontal = 1;
origin = "{0, 8}";
target = "{1, 9}";
type = Stem;
},
{
origin = "{0, 0}";
target = "{1, 8}";
type = Stem;
},
{
origin = "{1, 4}";
target = "{0, 4}";
type = Stem;
},
{
horizontal = 1;
origin = "{0, 0}";
target = up;
type = BottomGhost;
},
{
horizontal = 1;
origin = "{0, 8}";
target = down;
type = TopGhost;
}
);
layerId = "3D3F176D-2450-4887-9AC4-1237D1CC87EB";
paths = (
{
closed = 1;
nodes = (
"104 0 LINE",
"308.75 0 LINE SMOOTH",
"501.95 0 OFFCURVE",
"535.9 47.75 OFFCURVE",
"535.9 312 CURVE SMOOTH",
"535.9 577.6 OFFCURVE",
"501.95 625 OFFCURVE",
"308.75 625 CURVE SMOOTH",
"104 625 LINE"
);
},
{
closed = 1;
nodes = (
"387.35 567.55 LINE SMOOTH",
"446.35 567.55 OFFCURVE",
"465.35 548.5 OFFCURVE",
"465.35 491.05 CURVE SMOOTH",
"465.35 133.95 LINE SMOOTH",
"465.35 76.5 OFFCURVE",
"446.35 57.45 OFFCURVE",
"387.35 57.45 CURVE SMOOTH",
"169 57.45 LINE",
"169 567.55 LINE"
);
}
);
width = 613.15;
}
);
leftKerningGroup = H;
leftMetricsKey = H;
rightKerningGroup = O;
rightMetricsKey = O;
unicode = 0044;
},
{
glyphname = E;
layers = (
{
anchors = (
{
name = bottom;
position = "{265, 0}";
},
{
name = ogonek;
position = "{485, 0}";
},
{
name = top;
position = "{275, 625}";
},
{
name = topleft;
position = "{20, 625}";
}
);
layerId = "1124150E-252C-4727-BAB2-2837E441E30C";
paths = (
{
closed = 1;
nodes = (
"450 240 LINE",
"450 385 LINE",
"250 385 LINE",
"250 460 LINE",
"465 460 LINE",
"490 625 LINE",
"50 625 LINE",
"50 0 LINE",
"485 0 LINE",
"485 165 LINE",
"250 165 LINE",
"250 240 LINE"
);
}
);
width = 520;
},
{
anchors = (
{
name = bottom;
position = "{271.75, 0}";
},
{
name = ogonek;
position = "{458, 0}";
},
{
name = top;
position = "{283.1, 625}";
},
{
name = topleft;
position = "{2.45, 625}";
}
);
hints = (
{
horizontal = 1;
origin = "{0, 7}";
target = "{0, 10}";
type = Stem;
},
{
horizontal = 1;
origin = "{0, 11}";
target = "{0, 2}";
type = Stem;
},
{
horizontal = 1;
origin = "{0, 6}";
target = "{0, 3}";
type = Stem;
},
{
origin = "{0, 7}";
target = "{0, 10}";
type = Stem;
},
{
horizontal = 1;
origin = "{0, 7}";
target = up;
type = BottomGhost;
},
{
horizontal = 1;
origin = "{0, 6}";
target = down;
type = TopGhost;
}
);
layerId = "3D3F176D-2450-4887-9AC4-1237D1CC87EB";
paths = (
{
closed = 1;
nodes = (
"418.95 284.55 LINE",
"418.95 340.45 LINE",
"169 340.45 LINE",
"169 570.7 LINE",
"444.75 570.7 LINE",
"452.2 625 LINE",
"104 625 LINE",
"104 0 LINE",
"458 0 LINE",
"458 54.3 LINE",
"169 54.3 LINE",
"169 284.55 LINE"
);
}
);
width = 513.25;
}
);
leftKerningGroup = H;
leftMetricsKey = H;
rightKerningGroup = E;
unicode = 0045;
},
{
glyphname = F;
layers = (
{
layerId = "1124150E-252C-4727-BAB2-2837E441E30C";
paths = (
{
closed = 1;
nodes = (
"420 220 LINE",
"420 365 LINE",
"250 365 LINE",
"250 460 LINE",
"435 460 LINE",
"460 625 LINE",
"50 625 LINE",
"50 0 LINE",
"250 0 LINE",
"250 220 LINE"
);
}
);
width = 470;
},
{
hints = (
{
horizontal = 1;
origin = "{0, 9}";
target = "{0, 2}";
type = Stem;
},
{
horizontal = 1;
origin = "{0, 3}";
target = "{0, 6}";
type = Stem;
},
{
origin = "{0, 7}";
target = "{0, 8}";
type = Stem;
},
{
horizontal = 1;
origin = "{0, 7}";
target = up;
type = BottomGhost;
},
{
horizontal = 1;
origin = "{0, 6}";
target = down;
type = TopGhost;
}
);
layerId = "3D3F176D-2450-4887-9AC4-1237D1CC87EB";
paths = (
{
closed = 1;
nodes = (
"379.5 274 LINE",
"379.5 329.9 LINE",
"169 329.9 LINE",
"169 570.7 LINE",
"413.4 570.7 LINE",
"419.5 625 LINE",
"104 625 LINE",
"104 0 LINE",
"169 0 LINE",
"169 274 LINE"
);
}
);
width = 443;
}
);
leftKerningGroup = H;
leftMetricsKey = H;
rightKerningGroup = F;
unicode = 0046;
},
{
glyphname = G;
layers = (
{
anchors = (
{
name = bottom;
position = "{295, 0}";
},
{
name = top;
position = "{315, 625}";
}
);
background = {
paths = (
{
closed = 1;
nodes = (
"380 184 LINE SMOOTH",
"380 145 OFFCURVE",
"351 142 OFFCURVE",
"311 142 CURVE SMOOTH",
"245 142 LINE",
"245 425 LINE SMOOTH",
"245 467 OFFCURVE",
"282 475 OFFCURVE",
"361 475 CURVE SMOOTH",
"396 475 OFFCURVE",
"458 470 OFFCURVE",
"510 461 CURVE",
"540 614 LINE",
"500 627 OFFCURVE",
"398 640 OFFCURVE",
"347 640 CURVE SMOOTH",
"88 640 OFFCURVE",
"30 529 OFFCURVE",
"30 312 CURVE SMOOTH",
"30 96 OFFCURVE",
"90 -15 OFFCURVE",
"324 -15 CURVE SMOOTH",
"394 -15 OFFCURVE",
"488 -1 OFFCURVE",
"570 30 CURVE",
"570 364 LINE",
"329 364 LINE",
"329 211 LINE",
"380 211 LINE"
);
}
);
};
guideLines = (
{
angle = 101.768;
position = "{535, 494}";
}
);
layerId = "1124150E-252C-4727-BAB2-2837E441E30C";
paths = (
{
closed = 1;
nodes = (
"406 -15 OFFCURVE",
"482 -2 OFFCURVE",
"550 30 CURVE",
"535 146 LINE",
"245 146 LINE",
"245 405 LINE SMOOTH",
"245 459 OFFCURVE",
"267 475 OFFCURVE",
"339 475 CURVE SMOOTH",
"380 475 OFFCURVE",
"447 467 OFFCURVE",
"495 456 CURVE",
"520 614 LINE",
"485 628 OFFCURVE",
"392 640 OFFCURVE",
"324 640 CURVE SMOOTH",
"96 640 OFFCURVE",
"30 566 OFFCURVE",
"30 312 CURVE SMOOTH",
"30 58 OFFCURVE",
"89 -15 OFFCURVE",
"294 -15 CURVE SMOOTH"
);
},
{
closed = 1;
nodes = (
"550 30 LINE",
"550 374 LINE",
"309 374 LINE",
"309 229 LINE",
"360 229 LINE",
"360 30 LINE"
);
}
);
width = 575;
},
{
anchors = (
{
name = bottom;
position = "{292.3, 0}";
},
{
name = top;
position = "{312.3, 625}";
}
);
hints = (
{
horizontal = 1;
origin = "{0, 21}";
target = "{0, 4}";
type = Stem;
},
{
horizontal = 1;
origin = "{1, 3}";
target = "{1, 2}";
type = Stem;
},
{
horizontal = 1;
origin = "{0, 15}";
target = "{0, 8}";
type = Stem;
},
{
origin = "{0, 18}";
target = "{0, 4}";
type = Stem;
},
{
origin = "{1, 5}";
target = "{0, 2}";
type = Stem;
}
);
layerId = "3D3F176D-2450-4887-9AC4-1237D1CC87EB";
paths = (
{
closed = 1;
nodes = (
"361.45 -15 OFFCURVE",
"423.95 -7.4 OFFCURVE",
"489.25 16.5 CURVE",
"476.95 36.65 LINE",
"145.1 36.65 LINE",
"145.1 504.9 LINE SMOOTH",
"145.1 573.75 OFFCURVE",
"183.3 583 OFFCURVE",
"266.1 583 CURVE SMOOTH",
"305.75 583 OFFCURVE",
"397.05 577.7 OFFCURVE",
"458.55 565.35 CURVE",
"467.35 620.75 LINE",
"421.55 633.4 OFFCURVE",
"347.45 640 OFFCURVE",
"305.1 640 CURVE SMOOTH",
"116.25 640 OFFCURVE",
"77.25 574.1 OFFCURVE",
"77.25 312 CURVE SMOOTH",
"77.25 29.65 OFFCURVE",
"109.25 -15 OFFCURVE",
"272.4 -15 CURVE SMOOTH"
);
},
{
closed = 1;
nodes = (
"489.25 16.5 LINE",
"489.25 333.5 LINE",
"325.2 333.5 LINE",
"325.2 277.6 LINE",
"435.6 277.6 LINE",
"435.6 30 LINE"
);
}
);
width = 568.25;
}
);
leftKerningGroup = O;
leftMetricsKey = O;
rightKerningGroup = G;
rightMetricsKey = "=H-25";
unicode = 0047;
},
{
glyphname = H;
layers = (
{
anchors = (
{
name = bottom;
position = "{325, 0}";
},
{
name = center;
position = "{325, 503}";
},
{
name = top;
position = "{325, 625}";
},
{
name = topleft;
position = "{20, 625}";
}
);
layerId = "1124150E-252C-4727-BAB2-2837E441E30C";
paths = (
{
closed = 1;
nodes = (
"250 625 LINE",
"50 625 LINE",
"50 0 LINE",
"250 0 LINE"
);
},
{
closed = 1;
nodes = (
"400 0 LINE",
"600 0 LINE",
"600 625 LINE",
"400 625 LINE"
);
},
{
closed = 1;
nodes = (
"416 385 LINE",
"234 385 LINE",
"234 240 LINE",
"416 240 LINE"
);
}
);
width = 650;
},
{
anchors = (
{
name = bottom;
position = "{318.25, 0}";
},
{
name = center;
position = "{318.25, 476}";
},
{
name = top;
position = "{318.25, 625}";
},
{
name = topleft;
position = "{20, 625}";
}
);
hints = (
{
horizontal = 1;
origin = "{2, 2}";
target = "{2, 1}";
type = Stem;
},
{
origin = "{0, 2}";
target = "{0, 3}";
type = Stem;
},
{
origin = "{1, 0}";
target = "{1, 1}";
type = Stem;
},
{
horizontal = 1;
origin = "{0, 1}";
target = down;
type = TopGhost;
},
{
horizontal = 1;
origin = "{0, 2}";
target = up;
type = BottomGhost;
}
);
layerId = "3D3F176D-2450-4887-9AC4-1237D1CC87EB";
paths = (
{
closed = 1;
nodes = (
"169 625 LINE",
"104 625 LINE",
"104 0 LINE",
"169 0 LINE"
);
},
{
closed = 1;
nodes = (
"467.5 0 LINE",
"532.5 0 LINE",
"532.5 625 LINE",
"467.5 625 LINE"
);
},
{
closed = 1;
nodes = (
"483.5 336.4 LINE",
"153 336.4 LINE",
"153 280.5 LINE",
"483.5 280.5 LINE"
);
}
);
width = 636.5;
}
);
leftKerningGroup = H;
rightKerningGroup = H;
unicode = 0048;
},
{
glyphname = I;
layers = (
{
anchors = (
{
name = bottom;
position = "{150, 0}";
},
{
name = ogonek;
position = "{250, 0}";
},
{
name = top;
position = "{150, 625}";
},
{
name = topleft;
position = "{20, 625}";
}
);
layerId = "1124150E-252C-4727-BAB2-2837E441E30C";
paths = (
{
closed = 1;
nodes = (
"50 0 LINE",
"250 0 LINE",
"250 625 LINE",
"50 625 LINE"
);
}
);
width = 300;
},
{
anchors = (
{
name = bottom;
position = "{136.5, 0}";
},
{
name = ogonek;
position = "{169, 0}";
},
{
name = top;
position = "{136.5, 625}";
},
{
name = topleft;
position = "{20, 625}";
}
);
hints = (
{
origin = "{0, 0}";
target = "{0, 1}";
type = Stem;
},
{
horizontal = 1;
origin = "{0, 0}";
target = up;
type = BottomGhost;
},
{
horizontal = 1;
origin = "{0, 3}";
target = down;
type = TopGhost;
}
);
layerId = "3D3F176D-2450-4887-9AC4-1237D1CC87EB";
paths = (
{
closed = 1;
nodes = (
"104 0 LINE",
"169 0 LINE",
"169 625 LINE",
"104 625 LINE"
);
}
);
width = 273;
}
);
leftKerningGroup = H;
leftMetricsKey = H;
rightKerningGroup = H;
rightMetricsKey = H;
unicode = 0049;
},
{
glyphname = J;
layers = (
{
anchors = (
{
name = bottom;
position = "{196, 0}";
},
{
name = top;
position = "{196, 625}";
}
);
layerId = "1124150E-252C-4727-BAB2-2837E441E30C";
paths = (
{
closed = 1;
nodes = (
"30 0 LINE",
"186 0 LINE SMOOTH",
"286 0 OFFCURVE",
"341 57 OFFCURVE",
"341 165 CURVE SMOOTH",
"341 625 LINE",
"41 625 LINE",
"41 460 LINE",
"141 460 LINE",
"141 195 LINE SMOOTH",
"141 167 OFFCURVE",
"120 165 OFFCURVE",
"93 165 CURVE SMOOTH",
"10 165 LINE"
);
}
);
width = 391;
},
{
anchors = (
{
name = bottom;
position = "{169, 0}";
},
{
name = top;
position = "{169, 625}";
}
);
hints = (
{
horizontal = 1;
origin = "{0, 0}";
target = "{0, 13}";
type = Stem;
},
{
horizontal = 1;
origin = "{0, 7}";
target = "{0, 6}";
type = Stem;
},
{
origin = "{0, 9}";
target = "{0, 4}";
type = Stem;
},
{
horizontal = 1;
origin = "{0, 0}";
target = up;
type = BottomGhost;
},
{
horizontal = 1;
origin = "{0, 6}";
target = down;
type = TopGhost;
}
);
layerId = "3D3F176D-2450-4887-9AC4-1237D1CC87EB";
paths = (
{
closed = 1;
nodes = (
"32.7 0 LINE",
"78 0 LINE SMOOTH",
"178 0 OFFCURVE",
"233 16.5 OFFCURVE",
"233 124.5 CURVE SMOOTH",
"233 625 LINE",
"68 625 LINE",
"68 570.7 LINE",
"168 570.7 LINE",
"168 80.25 LINE SMOOTH",
"168 52.25 OFFCURVE",
"147 50.25 OFFCURVE",
"120 50.25 CURVE SMOOTH",
"23.5 50.25 LINE"
);
}
);
width = 337;
}
);
leftKerningGroup = J;
rightKerningGroup = J;
rightMetricsKey = H;
unicode = 004A;
},
{
glyphname = K;
layers = (
{
anchors = (
{
name = bottom;
position = "{319, 0}";
},
{
name = top;
position = "{319, 625}";
}
);
background = {
paths = (
{
closed = 0;
nodes = (
"449 349 LINE SMOOTH",
"613 0 LINE"
);
}
);
};
guideLines = (
{
angle = 25.339;
position = "{537, 161}";
showMeasurement = 1;
}
);
layerId = "1124150E-252C-4727-BAB2-2837E441E30C";
paths = (
{
closed = 1;
nodes = (
"613 0 LINE",
"461 321 LINE",
"608 625 LINE",
"396 625 LINE",
"322 474 LINE SMOOTH",
"305 439 OFFCURVE",
"297 413 OFFCURVE",
"297 394 CURVE",
"234 394 LINE",
"234 248 LINE",
"297 248 LINE",
"297 229 OFFCURVE",
"305 203 OFFCURVE",
"322 168 CURVE SMOOTH",
"401 0 LINE"
);
},
{
closed = 1;
nodes = (
"250 0 LINE",
"250 625 LINE",
"50 625 LINE",
"50 0 LINE"
);
}
);
width = 618;
},
{
anchors = (
{
name = bottom;
position = "{289.3, 0}";
},
{
name = top;
position = "{289.3, 625}";
}
);
hints = (
{
horizontal = 1;
origin = "{0, 9}";
target = "{0, 8}";
type = Stem;
},
{
origin = "{1, 3}";
target = "{1, 0}";
type = Stem;
},
{
horizontal = 1;
origin = "{1, 3}";
target = up;
type = BottomGhost;
},
{
horizontal = 1;
origin = "{1, 2}";
target = down;
type = TopGhost;
}
);
layerId = "3D3F176D-2450-4887-9AC4-1237D1CC87EB";
paths = (
{
closed = 1;
nodes = (
"518.5 0 LINE",
"362.45 321 LINE",
"513.5 625 LINE",
"437.85 625 LINE",
"371.95 491.55 LINE SMOOTH",
"350.9 451.15 OFFCURVE",
"326.7 400.85 OFFCURVE",
"326.7 348.1 CURVE",
"153 348.1 LINE",
"153 293.9 LINE",
"326.7 293.9 LINE",
"326.7 241.15 OFFCURVE",
"352.25 190.85 OFFCURVE",
"371.95 150.45 CURVE SMOOTH",
"442.85 0 LINE"
);
},
{
closed = 1;
nodes = (
"169 0 LINE",
"169 625 LINE",
"104 625 LINE",
"104 0 LINE"
);
}
);
width = 530.25;
}
);
leftKerningGroup = H;
leftMetricsKey = H;
rightKerningGroup = K;
unicode = 004B;
},
{
glyphname = L;
layers = (
{
anchors = (
{
name = bottom;
position = "{258, 0}";
},
{
name = center;
position = "{150, 358}";
},
{
name = top;
position = "{150, 625}";
},
{
name = topright;
position = "{385, 625}";
}
);
layerId = "1124150E-252C-4727-BAB2-2837E441E30C";
paths = (
{
closed = 1;
nodes = (
"440 0 LINE",
"440 165 LINE",
"250 165 LINE",
"250 625 LINE",
"50 625 LINE",
"50 0 LINE"
);
}
);
width = 445;
},
{
anchors = (
{
name = bottom;
position = "{247.2, 0}";
},
{
name = center;
position = "{136.5, 324.25}";
},
{
name = top;
position = "{136.5, 625}";
},
{
name = topright;
position = "{310.75, 625}";
}
);
hints = (
{
horizontal = 1;
origin = "{0, 5}";
target = "{0, 2}";
type = Stem;
},
{
horizontal = 1;
origin = "{0, 4}";
target = down;
type = TopGhost;
},
{
origin = "{0, 5}";
target = "{0, 2}";
type = Stem;
},
{
horizontal = 1;
origin = "{0, 5}";
target = up;
type = BottomGhost;
}
);
layerId = "3D3F176D-2450-4887-9AC4-1237D1CC87EB";
paths = (
{
closed = 1;
nodes = (
"413 0 LINE",
"413 54.3 LINE",
"169 54.3 LINE",
"169 625 LINE",
"104 625 LINE",
"104 0 LINE"
);
}
);
width = 424.75;
}
);
leftKerningGroup = H;
leftMetricsKey = H;
rightKerningGroup = L;
unicode = 004C;
},
{
glyphname = M;
layers = (
{
background = {
paths = (
{
closed = 0;
nodes = (
"272 625 LINE",
"234 0 LINE"
);
}
);
};
layerId = "1124150E-252C-4727-BAB2-2837E441E30C";
paths = (
{
closed = 1;
nodes = (
"234 0 LINE",
"250 303 LINE",
"256 303 LINE",
"329 0 LINE",
"482 0 LINE",
"554 303 LINE",
"561 303 LINE",
"577 0 LINE",
"776 0 LINE",
"738 625 LINE",
"487 625 LINE",
"409 307 LINE",
"402 307 LINE",
"324 625 LINE",
"73 625 LINE",
"35 0 LINE"
);
}
);
width = 811;
},
{
hints = (
{
horizontal = 1;
origin = "{0, 15}";
target = up;
type = BottomGhost;
},
{
horizontal = 1;
origin = "{0, 14}";
target = down;
type = TopGhost;
}
);
layerId = "3D3F176D-2450-4887-9AC4-1237D1CC87EB";
paths = (
{
closed = 1;
nodes = (
"153 0 LINE",
"190.6 559.5 LINE",
"196.6 559.5 LINE",
"366.8 0 LINE",
"422.6 0 LINE",
"593.15 559.5 LINE",
"598.8 559.5 LINE",
"636.4 0 LINE",
"700.4 0 LINE",
"657 625 LINE",
"558.55 625 LINE",
"398.2 104.5 LINE",
"391.2 104.5 LINE",
"230.85 625 LINE",
"132.4 625 LINE",
"89 0 LINE"
);
}
);
width = 789.4;
}
);
leftKerningGroup = M;
leftMetricsKey = "=H-15";
rightKerningGroup = M;
rightMetricsKey = "=H-15";
unicode = 004D;
},
{
glyphname = N;
layers = (
{
anchors = (
{
name = bottom;
position = "{338, 0}";
},
{
name = top;
position = "{338, 625}";
}
);
layerId = "1124150E-252C-4727-BAB2-2837E441E30C";
paths = (
{
closed = 1;
nodes = (
"255 0 LINE",
"255 290 LINE",
"261 290 LINE",
"261 272 OFFCURVE",
"268 249 OFFCURVE",
"286 219 CURVE SMOOTH",
"422 0 LINE",
"620 0 LINE",
"620 625 LINE",
"420 625 LINE",
"420 335 LINE",
"414 335 LINE",
"414 353 OFFCURVE",
"407 376 OFFCURVE",
"389 406 CURVE SMOOTH",
"253 625 LINE",
"55 625 LINE",
"55 0 LINE"
);
}
);
width = 675;
},
{
anchors = (
{
name = bottom;
position = "{328.55, 0}";
},
{
name = top;
position = "{342.05, 625}";
}
);
hints = (
{
origin = "{0, 17}";
target = "{0, 0}";
type = Stem;
},
{
origin = "{0, 10}";
target = "{0, 7}";
type = Stem;
},
{
horizontal = 1;
origin = "{0, 17}";
target = up;
type = BottomGhost;
},
{
horizontal = 1;
origin = "{0, 16}";
target = down;
type = TopGhost;
}
);
layerId = "3D3F176D-2450-4887-9AC4-1237D1CC87EB";
paths = (
{
closed = 1;
nodes = (
"174 0 LINE",
"174 508.7 LINE",
"180 508.7 LINE",
"182.7 486.65 OFFCURVE",
"185.65 483.9 OFFCURVE",
"206.35 449.85 CURVE SMOOTH",
"485.45 0 LINE",
"547.1 0 LINE",
"547.1 625 LINE",
"482.1 625 LINE",
"482.1 116.3 LINE",
"476.1 116.3 LINE",
"473.4 138.35 OFFCURVE",
"470.45 141.1 OFFCURVE",
"449.75 175.15 CURVE SMOOTH",
"170.65 625 LINE",
"109 625 LINE",
"109 0 LINE"
);
}
);
width = 656.1;
}
);
leftKerningGroup = H;
leftMetricsKey = "=H+5";
rightKerningGroup = H;
rightMetricsKey = "=H+5";
unicode = 004E;
},
{
glyphname = O;
layers = (
{
anchors = (
{
name = bottom;
position = "{330, 0}";
},
{
name = center;
position = "{330, 313}";
},
{
name = ogonek;
position = "{412, -9}";
},
{
name = top;
position = "{330, 625}";
},
{
name = topleft;
position = "{28, 625}";
},
{
name = topright;
position = "{632, 625}";
}
);
layerId = "1124150E-252C-4727-BAB2-2837E441E30C";
paths = (
{
closed = 1;
nodes = (
"30 65 OFFCURVE",
"103 -15 OFFCURVE",
"330 -15 CURVE SMOOTH",
"557 -15 OFFCURVE",
"630 65 OFFCURVE",
"630 312 CURVE SMOOTH",
"630 560 OFFCURVE",
"557 640 OFFCURVE",
"330 640 CURVE SMOOTH",
"103 640 OFFCURVE",
"30 560 OFFCURVE",
"30 312 CURVE SMOOTH"
);
},
{
closed = 1;
nodes = (
"245 416 LINE SMOOTH",
"245 456 OFFCURVE",
"264 469 OFFCURVE",
"323 469 CURVE SMOOTH",
"415 469 LINE",
"415 209 LINE SMOOTH",
"415 169 OFFCURVE",
"396 156 OFFCURVE",
"336 156 CURVE SMOOTH",
"245 156 LINE"
);
}
);
width = 660;
},
{
anchors = (
{
name = bottom;
position = "{313.8, 0}";
},
{
name = center;
position = "{313.8, 313}";
},
{
name = ogonek;
position = "{355.3, -13.05}";
},
{
name = top;
position = "{313.8, 625}";
},
{
name = topleft;
position = "{30.7, 625}";
},
{
name = topright;
position = "{596.9, 625}";
}
);
hints = (
{
horizontal = 1;
origin = "{0, 2}";
target = "{1, 9}";
type = Stem;
},
{
horizontal = 1;
origin = "{0, 8}";
target = "{1, 3}";
type = Stem;
},
{
origin = "{0, 11}";
target = "{1, 9}";
type = Stem;
},
{
origin = "{1, 5}";
target = "{0, 5}";
type = Stem;
}
);
layerId = "3D3F176D-2450-4887-9AC4-1237D1CC87EB";
paths = (
{
closed = 1;
nodes = (
"77.25 32.6 OFFCURVE",
"109.75 -15 OFFCURVE",
"313.8 -15 CURVE SMOOTH",
"516.5 -15 OFFCURVE",
"550.35 32.6 OFFCURVE",
"550.35 312 CURVE SMOOTH",
"550.35 591.05 OFFCURVE",
"516.5 640 OFFCURVE",
"313.8 640 CURVE SMOOTH",
"109.75 640 OFFCURVE",
"77.25 592.4 OFFCURVE",
"77.25 312 CURVE SMOOTH"
);
},
{
closed = 1;
nodes = (
"146.45 505.1 LINE SMOOTH",
"146.45 565.35 OFFCURVE",
"168.15 585.1 OFFCURVE",
"233.9 585.1 CURVE SMOOTH",
"481.15 585.1 LINE",
"481.15 119.9 LINE SMOOTH",
"481.15 59.65 OFFCURVE",
"458.1 39.9 OFFCURVE",
"392.7 39.9 CURVE SMOOTH",
"146.45 39.9 LINE"
);
}
);
width = 627.6;
}
);
leftKerningGroup = O;
rightKerningGroup = O;
unicode = 004F;
},
{
glyphname = Oslash;
layers = (
{
anchors = (
{
name = bottom;
position = "{330, 0}";
},
{
name = top;
position = "{330, 625}";
}
);
components = (
{
name = O;
},
{
name = slashlongcomb;
transform = "{1, 0, 0, 1.1, 128, -31}";
}
);
layerId = "1124150E-252C-4727-BAB2-2837E441E30C";
width = 660;
},
{
anchors = (
{
name = _center;
position = "{330, 313}";
},
{
name = bottom;
position = "{330, 0}";
},
{
name = top;
position = "{330, 625}";
}
);
associatedMasterId = "1124150E-252C-4727-BAB2-2837E441E30C";
components = (
{
name = O;
}
);
layerId = "58C63070-05D1-4EF6-B2E8-6E0BD83ECF3D";
name = "Bold [140]";
paths = (
{
closed = 1;
nodes = (
"193 80 LINE",
"128 -75 LINE",
"179 -75 LINE SMOOTH",
"202 -75 OFFCURVE",
"212 -71 OFFCURVE",
"222 -48 CURVE SMOOTH",
"275 81 LINE"
);
},
{
closed = 1;
nodes = (
"464 538 LINE",
"532 700 LINE",
"481 700 LINE SMOOTH",
"458 700 OFFCURVE",
"447 695 OFFCURVE",
"438 673 CURVE SMOOTH",
"382 537 LINE"
);
}
);
width = 660;
},
{
anchors = (
{
name = bottom;
position = "{313.8, 0}";
},
{
name = top;
position = "{313.8, 625}";
}
);
components = (
{
name = O;
},
{
name = slashlongcomb;
transform = "{1, 0, 0, 1.1, 112, -31}";
}
);
layerId = "3D3F176D-2450-4887-9AC4-1237D1CC87EB";
width = 628;
}
);
leftKerningGroup = O;
rightKerningGroup = O;
unicode = 00D8;
},
{
glyphname = OE;
layers = (
{
anchors = (
{
name = bottom;
position = "{443, 0}";
},
{
name = top;
position = "{443, 625}";
}
);
layerId = "1124150E-252C-4727-BAB2-2837E441E30C";
paths = (
{
closed = 1;
nodes = (
"815 240 LINE",
"815 385 LINE",
"615 385 LINE",
"615 460 LINE",
"830 460 LINE",
"855 625 LINE",
"415 625 LINE",
"415 0 LINE",
"850 0 LINE",
"850 165 LINE",
"615 165 LINE",
"615 240 LINE"
);
},
{
closed = 1;
nodes = (
"30 75 OFFCURVE",
"102 0 OFFCURVE",
"330 0 CURVE SMOOTH",
"435 0 LINE",
"435 625 LINE",
"330 625 LINE",
"102 625 OFFCURVE",
"30 550 OFFCURVE",
"30 312 CURVE SMOOTH"
);
},
{
closed = 1;
nodes = (
"245 407 LINE SMOOTH",
"245 447 OFFCURVE",
"264 460 OFFCURVE",
"323 460 CURVE SMOOTH",
"415 460 LINE",
"415 218 LINE SMOOTH",
"415 178 OFFCURVE",
"396 165 OFFCURVE",
"336 165 CURVE SMOOTH",
"245 165 LINE"
);
}
);
width = 885;
},
{
anchors = (
{
name = bottom;
position = "{445.7, 0}";
},
{
name = top;
position = "{445.7, 625}";
}
);
hints = (
{
horizontal = 1;
origin = "{0, 7}";
target = "{0, 10}";
type = Stem;
},
{
horizontal = 1;
origin = "{0, 11}";
target = "{0, 2}";
type = Stem;
},
{
horizontal = 1;
origin = "{0, 6}";
target = "{0, 3}";
type = Stem;
},
{
origin = "{0, 7}";
target = "{0, 10}";
type = Stem;
},
{
horizontal = 1;
origin = "{0, 8}";
target = up;
type = BottomGhost;
},
{
horizontal = 1;
origin = "{0, 5}";
target = down;
type = TopGhost;
}
);
layerId = "3D3F176D-2450-4887-9AC4-1237D1CC87EB";
paths = (
{
closed = 1;
nodes = (
"796.1 284.55 LINE",
"796.1 340.45 LINE",
"546.15 340.45 LINE",
"546.15 570.7 LINE",
"821.9 570.7 LINE",
"829.35 625 LINE",
"481.15 625 LINE",
"481.15 0 LINE",
"835.15 0 LINE",
"835.15 54.3 LINE",
"546.15 54.3 LINE",
"546.15 284.55 LINE"
);
},
{
closed = 1;
nodes = (
"77.25 45.3 OFFCURVE",
"110.1 0 OFFCURVE",
"313.8 0 CURVE SMOOTH",
"487.65 0 LINE",
"487.65 625 LINE",
"313.8 625 LINE",
"111.45 625 OFFCURVE",
"77.25 578.35 OFFCURVE",
"77.25 312 CURVE SMOOTH"
);
},
{
closed = 1;
nodes = (
"146.45 490.7 LINE SMOOTH",
"146.45 550.95 OFFCURVE",
"168.15 570.7 OFFCURVE",
"233.9 570.7 CURVE SMOOTH",
"481.15 570.7 LINE",
"481.15 134.3 LINE SMOOTH",
"481.15 74.05 OFFCURVE",
"458.1 54.3 OFFCURVE",
"392.7 54.3 CURVE SMOOTH",
"146.45 54.3 LINE"
);
}
);
width = 890.4;
}
);
leftKerningGroup = O;
leftMetricsKey = O;
rightKerningGroup = E;
rightMetricsKey = E;
unicode = 0152;
},
{
glyphname = P;
layers = (
{
layerId = "1124150E-252C-4727-BAB2-2837E441E30C";
paths = (
{
closed = 1;
nodes = (
"350 151 LINE SMOOTH",
"503 151 OFFCURVE",
"575 228 OFFCURVE",
"575 394 CURVE SMOOTH",
"575 558 OFFCURVE",
"505 625 OFFCURVE",
"335 625 CURVE SMOOTH",
"50 625 LINE",
"50 0 LINE",
"250 0 LINE",
"250 151 LINE"
);
},
{
closed = 1;
nodes = (
"250 460 LINE",
"326 460 LINE SMOOTH",
"355 460 OFFCURVE",
"365 450 OFFCURVE",
"365 418 CURVE SMOOTH",
"365 338 LINE SMOOTH",
"365 306 OFFCURVE",
"355 296 OFFCURVE",
"326 296 CURVE SMOOTH",
"250 296 LINE"
);
}
);
width = 590;
},
{
hints = (
{
horizontal = 1;
origin = "{0, 10}";
target = "{1, 9}";
type = Stem;
},
{
horizontal = 1;
origin = "{0, 7}";
target = "{1, 0}";
type = Stem;
},
{
origin = "{0, 8}";
target = "{0, 9}";
type = Stem;
},
{
origin = "{1, 5}";
target = "{0, 3}";
type = Stem;
},
{
horizontal = 1;
origin = "{0, 8}";
target = up;
type = BottomGhost;
},
{
horizontal = 1;
origin = "{0, 7}";
target = down;
type = TopGhost;
}
);
layerId = "3D3F176D-2450-4887-9AC4-1237D1CC87EB";
paths = (
{
closed = 1;
nodes = (
"350 225.25 LINE SMOOTH",
"451.7 225.25 OFFCURVE",
"487.25 277.95 OFFCURVE",
"487.25 421 CURVE SMOOTH",
"487.25 576.9 OFFCURVE",
"452.35 625 OFFCURVE",
"335 625 CURVE SMOOTH",
"104 625 LINE",
"104 0 LINE",
"169 0 LINE",
"169 225.25 LINE"
);
},
{
closed = 1;
nodes = (
"169 570.7 LINE",
"339.5 570.7 LINE SMOOTH",
"399.55 570.7 OFFCURVE",
"419 560.7 OFFCURVE",
"419 528.7 CURVE SMOOTH",
"419 323.15 LINE SMOOTH",
"419 291.15 OFFCURVE",
"399.55 281.15 OFFCURVE",
"339.5 281.15 CURVE SMOOTH",
"169 281.15 LINE"
);
}
);
width = 509;
}
);
leftKerningGroup = H;
leftMetricsKey = H;
rightKerningGroup = P;
unicode = 0050;
},
{
glyphname = Thorn;
layers = (
{
layerId = "1124150E-252C-4727-BAB2-2837E441E30C";
paths = (
{
closed = 1;
nodes = (
"250 550 LINE",
"250 625 LINE",
"50 625 LINE",
"50 0 LINE",
"250 0 LINE",
"250 76 LINE",
"350 76 LINE SMOOTH",
"503 76 OFFCURVE",
"575 153 OFFCURVE",
"575 319 CURVE SMOOTH",
"575 483 OFFCURVE",
"505 550 OFFCURVE",
"335 550 CURVE SMOOTH"
);
},
{
closed = 1;
nodes = (
"365 231 OFFCURVE",
"355 221 OFFCURVE",
"326 221 CURVE SMOOTH",
"250 221 LINE",
"250 405 LINE",
"326 405 LINE SMOOTH",
"355 405 OFFCURVE",
"365 395 OFFCURVE",
"365 363 CURVE SMOOTH",
"365 263 LINE SMOOTH"
);
}
);
width = 590;
},
{
hints = (
{
horizontal = 1;
origin = "{0, 5}";
target = "{1, 3}";
type = Stem;
},
{
horizontal = 1;
origin = "{0, 0}";
target = "{1, 4}";
type = Stem;
},
{
origin = "{0, 3}";
target = "{0, 4}";
type = Stem;
},
{
origin = "{1, 9}";
target = "{0, 9}";
type = Stem;
},
{
horizontal = 1;
origin = "{0, 3}";
target = up;
type = BottomGhost;
},
{
horizontal = 1;
origin = "{0, 2}";
target = down;
type = TopGhost;
}
);
layerId = "3D3F176D-2450-4887-9AC4-1237D1CC87EB";
paths = (
{
closed = 1;
nodes = (
"169 512.2 LINE",
"169 625 LINE",
"104 625 LINE",
"104 0 LINE",
"169 0 LINE",
"169 112.45 LINE",
"350 112.45 LINE SMOOTH",
"451.7 112.45 OFFCURVE",
"487.25 165.15 OFFCURVE",
"487.25 308.2 CURVE SMOOTH",
"487.25 464.1 OFFCURVE",
"452.35 512.2 OFFCURVE",
"335 512.2 CURVE SMOOTH"
);
},
{
closed = 1;
nodes = (
"419 178.35 OFFCURVE",
"399.55 168.35 OFFCURVE",
"339.5 168.35 CURVE SMOOTH",
"169 168.35 LINE",
"169 456.3 LINE",
"339.5 456.3 LINE SMOOTH",
"399.55 456.3 OFFCURVE",
"419 446.3 OFFCURVE",
"419 414.3 CURVE SMOOTH",
"419 210.35 LINE SMOOTH"
);
}
);
width = 509;
}
);
leftKerningGroup = H;
leftMetricsKey = H;
rightKerningGroup = Thorn;
rightMetricsKey = P;
unicode = 00DE;
},
{
glyphname = Q;
layers = (
{
background = {
paths = (
{
closed = 0;
nodes = (
"385 23 LINE"
);
},
{
closed = 0;
nodes = (
"557 107 LINE"
);
}
);
};
layerId = "1124150E-252C-4727-BAB2-2837E441E30C";
paths = (
{
closed = 1;
nodes = (
"385 42 LINE",
"493 35 LINE",
"584 77 OFFCURVE",
"620 155 OFFCURVE",
"620 312 CURVE SMOOTH",
"620 555 OFFCURVE",
"544 640 OFFCURVE",
"325 640 CURVE SMOOTH",
"106 640 OFFCURVE",
"30 555 OFFCURVE",
"30 312 CURVE SMOOTH",
"30 70 OFFCURVE",
"107 -15 OFFCURVE",
"325 -15 CURVE"
);
},
{
closed = 1;
nodes = (
"245 416 LINE SMOOTH",
"245 456 OFFCURVE",
"263 469 OFFCURVE",
"322 469 CURVE SMOOTH",
"406 469 LINE",
"406 209 LINE SMOOTH",
"406 169 OFFCURVE",
"387 156 OFFCURVE",
"328 156 CURVE SMOOTH",
"245 156 LINE"
);
},
{
closed = 1;
nodes = (
"629 37 LINE",
"517 107 LINE",
"385 42 LINE",
"385 -15 LINE",
"577 -78 LINE"
);
}
);
width = 650;
},
{
hints = (
{
horizontal = 1;
origin = "{0, 13}";
target = "{1, 9}";
type = Stem;
},
{
horizontal = 1;
origin = "{0, 7}";
target = "{1, 3}";
type = Stem;
},
{
origin = "{0, 10}";
target = "{1, 9}";
type = Stem;
},
{
origin = "{1, 5}";
target = "{0, 4}";
type = Stem;
}
);
layerId = "3D3F176D-2450-4887-9AC4-1237D1CC87EB";
paths = (
{
closed = 1;
nodes = (
"364.75 2.85 LINE",
"447.1 8 LINE",
"519.2 35.15 OFFCURVE",
"540.35 106.4 OFFCURVE",
"540.35 312 CURVE SMOOTH",
"540.35 591.45 OFFCURVE",
"507.55 640 OFFCURVE",
"308.8 640 CURVE SMOOTH",
"108.7 640 OFFCURVE",
"77.25 592.8 OFFCURVE",
"77.25 312 CURVE SMOOTH",
"77.25 30.85 OFFCURVE",
"108.35 -15 OFFCURVE",
"308.8 -15 CURVE"
);
},
{
closed = 1;
nodes = (
"147.8 505.1 LINE SMOOTH",
"147.8 565.35 OFFCURVE",
"168.5 585.1 OFFCURVE",
"231.55 585.1 CURVE SMOOTH",
"469.45 585.1 LINE",
"469.45 119.9 LINE SMOOTH",
"469.45 59.65 OFFCURVE",
"447.75 39.9 OFFCURVE",
"384.7 39.9 CURVE SMOOTH",
"147.8 39.9 LINE"
);
},
{
closed = 1;
nodes = (
"546.65 -35.9 LINE",
"436 34.1 LINE",
"364.75 2.85 LINE",
"364.75 -15 LINE",
"531.1 -69.9 LINE"
);
}
);
width = 617.6;
}
);
leftKerningGroup = O;
rightKerningGroup = O;
unicode = 0051;
},
{
glyphname = R;
layers = (
{
anchors = (
{
name = bottom;
position = "{313, 0}";
},
{
name = top;
position = "{313, 625}";
}
);
background = {
paths = (
{
closed = 1;
nodes = (
"295 202 LINE",
"405 0 LINE",
"605 0 LINE",
"484 222 LINE"
);
}
);
};
guideLines = (
{
angle = 25.189;
position = "{383, 10}";
showMeasurement = 1;
}
);
layerId = "1124150E-252C-4727-BAB2-2837E441E30C";
paths = (
{
closed = 1;
nodes = (
"355 181 LINE SMOOTH",
"509 181 OFFCURVE",
"580 249 OFFCURVE",
"580 394 CURVE SMOOTH",
"580 558 OFFCURVE",
"510 625 OFFCURVE",
"340 625 CURVE SMOOTH",
"50 625 LINE",
"50 0 LINE",
"250 0 LINE",
"250 181 LINE"
);
},
{
closed = 1;
nodes = (
"250 460 LINE",
"331 460 LINE SMOOTH",
"360 460 OFFCURVE",
"370 450 OFFCURVE",
"370 418 CURVE SMOOTH",
"370 368 LINE SMOOTH",
"370 336 OFFCURVE",
"360 326 OFFCURVE",
"331 326 CURVE SMOOTH",
"250 326 LINE"
);
},
{
closed = 1;
nodes = (
"285 219 LINE",
"388 0 LINE",
"605 0 LINE",
"453 321 LINE"
);
}
);
width = 625;
},
{
anchors = (
{
name = bottom;
position = "{281.95, 0}";
},
{
name = top;
position = "{295.45, 625}";
}
);
hints = (
{
horizontal = 1;
origin = "{0, 10}";
target = "{1, 9}";
type = Stem;
},
{
horizontal = 1;
origin = "{1, 0}";
target = "{0, 7}";
type = Stem;
},
{
origin = "{0, 8}";
target = "{0, 9}";
type = Stem;
},
{
origin = "{1, 5}";
target = "{0, 3}";
type = Stem;
},
{
horizontal = 1;
origin = "{0, 8}";
target = up;
type = BottomGhost;
},
{
horizontal = 1;
origin = "{0, 7}";
target = down;
type = TopGhost;
}
);
layerId = "3D3F176D-2450-4887-9AC4-1237D1CC87EB";
paths = (
{
closed = 1;
nodes = (
"355 235 LINE SMOOTH",
"456.35 235 OFFCURVE",
"492.25 285.45 OFFCURVE",
"492.25 421 CURVE SMOOTH",
"492.25 576.9 OFFCURVE",
"457.35 625 OFFCURVE",
"340 625 CURVE SMOOTH",
"104 625 LINE",
"104 0 LINE",
"169 0 LINE",
"169 235 LINE"
);
},
{
closed = 1;
nodes = (
"169 570.7 LINE",
"344.5 570.7 LINE SMOOTH",
"404.55 570.7 OFFCURVE",
"424 560.7 OFFCURVE",
"424 528.7 CURVE SMOOTH",
"424 332.9 LINE SMOOTH",
"424 300.9 OFFCURVE",
"404.55 290.9 OFFCURVE",
"344.5 290.9 CURVE SMOOTH",
"169 290.9 LINE"
);
},
{
closed = 1;
nodes = (
"329.55 260.85 LINE",
"452.8 0 LINE",
"524 0 LINE",
"401.7 249.45 LINE"
);
}
);
width = 564.25;
}
);
leftKerningGroup = H;
leftMetricsKey = H;
rightKerningGroup = R;
unicode = 0052;
},
{
glyphname = S;
layers = (
{
anchors = (
{
name = bottom;
position = "{289, 0}";
},
{
name = top;
position = "{289, 625}";
}
);
layerId = "1124150E-252C-4727-BAB2-2837E441E30C";
paths = (
{
closed = 1;
nodes = (
"25 21 LINE",
"104 -3 OFFCURVE",
"191 -15 OFFCURVE",
"286 -15 CURVE SMOOTH",
"470 -15 OFFCURVE",
"552 51 OFFCURVE",
"552 199 CURVE SMOOTH",
"552 327 OFFCURVE",
"483 388 OFFCURVE",
"321 404 CURVE SMOOTH",
"249 411 LINE",
"249 465 LINE",
"274 469 OFFCURVE",
"292 470 OFFCURVE",
"331 470 CURVE SMOOTH",
"381 470 OFFCURVE",
"423 465 OFFCURVE",
"493 450 CURVE",
"518 610 LINE",
"443 630 OFFCURVE",
"364 640 OFFCURVE",
"283 640 CURVE SMOOTH",
"98 640 OFFCURVE",
"34 582 OFFCURVE",
"34 416 CURVE SMOOTH",
"34 289 OFFCURVE",
"93 236 OFFCURVE",
"247 222 CURVE SMOOTH",
"337 214 LINE",
"337 159 LINE",
"313 155 OFFCURVE",
"291 154 OFFCURVE",
"256 154 CURVE SMOOTH",
"188 154 OFFCURVE",
"122 164 OFFCURVE",
"53 186 CURVE"
);
}
);
width = 577;
},
{
anchors = (
{
name = bottom;
position = "{248.5, 0}";
},
{
name = top;
position = "{248.5, 625}";
}
);
hints = (
{
horizontal = 1;
origin = "{0, 3}";
target = "{0, 32}";
type = Stem;
},
{
horizontal = 1;
place = "{355.725, 130.95}";
type = Stem;
},
{
horizontal = 1;
origin = "{0, 21}";
target = "{0, 14}";
type = Stem;
},
{
origin = "{0, 24}";
target = "{0, 10}";
type = Stem;
},
{
origin = "{0, 29}";
target = "{0, 6}";
type = Stem;
}
);
layerId = "3D3F176D-2450-4887-9AC4-1237D1CC87EB";
paths = (
{
closed = 1;
nodes = (
"53.35 4.8 LINE",
"117.5 -9.75 OFFCURVE",
"172.1 -15 OFFCURVE",
"234.7 -15 CURVE SMOOTH",
"402.5 -15 OFFCURVE",
"453.45 25.35 OFFCURVE",
"453.45 159.85 CURVE SMOOTH",
"453.45 295.95 OFFCURVE",
"412.8 332.65 OFFCURVE",
"257.55 340.55 CURVE SMOOTH",
"132.9 347.55 LINE",
"132.9 582.45 LINE",
"163.3 586.45 OFFCURVE",
"182.65 587.45 OFFCURVE",
"221.65 587.45 CURVE SMOOTH",
"300 587.45 OFFCURVE",
"356.85 583.8 OFFCURVE",
"412 574.2 CURVE",
"420.8 624.85 LINE",
"353.9 635.4 OFFCURVE",
"295.15 640 OFFCURVE",
"230.35 640 CURVE SMOOTH",
"107.45 640 OFFCURVE",
"61 590.1 OFFCURVE",
"61 455.15 CURVE SMOOTH",
"61 324.1 OFFCURVE",
"98.4 295.4 OFFCURVE",
"284.8 282.75 CURVE SMOOTH",
"381.55 276.1 LINE",
"381.55 44.25 LINE",
"319.75 38.9 OFFCURVE",
"289.65 37.9 OFFCURVE",
"257.35 37.9 CURVE SMOOTH",
"193.4 37.9 OFFCURVE",
"111.2 46.55 OFFCURVE",
"63.8 57.75 CURVE"
);
}
);
width = 498.7;
}
);
leftKerningGroup = S;
rightKerningGroup = S;
unicode = 0053;
},
{
glyphname = T;
layers = (
{
anchors = (
{
name = bottom;
position = "{245, 0}";
},
{
name = center;
position = "{245, 273}";
},
{
name = top;
position = "{245, 625}";
}
);
layerId = "1124150E-252C-4727-BAB2-2837E441E30C";
paths = (
{
closed = 1;
nodes = (
"485 460 LINE",
"485 625 LINE",
"5 625 LINE",
"5 460 LINE",
"145 460 LINE",
"145 0 LINE",
"345 0 LINE",
"345 460 LINE"
);
}
);
width = 490;
},
{
anchors = (
{
name = bottom;
position = "{224.75, 0}";
},
{
name = center;
position = "{224.75, 313.5}";
},
{
name = top;
position = "{224.75, 625}";
}
);
hints = (
{
horizontal = 1;
origin = "{0, 3}";
target = "{0, 2}";
type = Stem;
},
{
origin = "{0, 5}";
target = "{0, 6}";
type = Stem;
},
{
horizontal = 1;
origin = "{0, 5}";
target = up;
type = BottomGhost;
},
{
horizontal = 1;
origin = "{0, 2}";
target = down;
type = TopGhost;
}
);
layerId = "3D3F176D-2450-4887-9AC4-1237D1CC87EB";
paths = (
{
closed = 1;
nodes = (
"431 570.7 LINE",
"431 625 LINE",
"18.5 625 LINE",
"18.5 570.7 LINE",
"192.25 570.7 LINE",
"192.25 0 LINE",
"257.25 0 LINE",
"257.25 570.7 LINE"
);
}
);
width = 449.5;
}
);
leftKerningGroup = T;
rightKerningGroup = T;
unicode = 0054;
},
{
glyphname = U;
layers = (
{
anchors = (
{
name = bottom;
position = "{318, 0}";
},
{
name = ogonek;
position = "{368, -13}";
},
{
name = top;
position = "{318, 625}";
},
{
name = topright;
position = "{593, 625}";
}
);
layerId = "1124150E-252C-4727-BAB2-2837E441E30C";
paths = (
{
closed = 1;
nodes = (
"535 -15 OFFCURVE",
"594 38 OFFCURVE",
"594 234 CURVE SMOOTH",
"594 625 LINE",
"394 625 LINE",
"394 209 LINE SMOOTH",
"394 166 OFFCURVE",
"380 156 OFFCURVE",
"320 156 CURVE SMOOTH",
"240 156 LINE",
"240 625 LINE",
"40 625 LINE",
"40 234 LINE SMOOTH",
"40 37 OFFCURVE",
"98 -15 OFFCURVE",
"316 -15 CURVE SMOOTH"
);
}
);
width = 634;
},
{
anchors = (
{
name = bottom;
position = "{320.7, 0}";
},
{
name = ogonek;
position = "{368, -10.3}";
},
{
name = top;
position = "{320.7, 625}";
},
{
name = topright;
position = "{545.75, 625}";
}
);
hints = (
{
horizontal = 1;
origin = "{0, 15}";
target = "{0, 9}";
type = Stem;
},
{
origin = "{0, 12}";
target = "{0, 9}";
type = Stem;
},
{
origin = "{0, 5}";
target = "{0, 2}";
type = Stem;
},
{
horizontal = 1;
origin = "{0, 11}";
target = down;
type = TopGhost;
}
);
layerId = "3D3F176D-2450-4887-9AC4-1237D1CC87EB";
paths = (
{
closed = 1;
nodes = (
"505.3 -15 OFFCURVE",
"545.4 19.1 OFFCURVE",
"545.4 173.25 CURVE SMOOTH",
"545.4 625 LINE",
"480.4 625 LINE",
"480.4 92.9 LINE SMOOTH",
"480.4 49.9 OFFCURVE",
"451.55 39.9 OFFCURVE",
"325.4 39.9 CURVE SMOOTH",
"159 39.9 LINE",
"159 625 LINE",
"94 625 LINE",
"94 173.25 LINE SMOOTH",
"94 19.45 OFFCURVE",
"134.45 -15 OFFCURVE",
"320.05 -15 CURVE SMOOTH"
);
}
);
width = 639.4;
}
);
leftKerningGroup = U;
leftMetricsKey = "=H-10";
rightKerningGroup = U;
rightMetricsKey = "=H-10";
unicode = 0055;
},
{
glyphname = V;
layers = (
{
guideLines = (
{
angle = 166.504;
position = "{541, 313}";
showMeasurement = 1;
}
);
layerId = "1124150E-252C-4727-BAB2-2837E441E30C";
paths = (
{
closed = 1;
nodes = (
"155 0 LINE",
"466 0 LINE",
"616 625 LINE",
"416 625 LINE",
"315 192 LINE",
"306 192 LINE",
"205 625 LINE",
"5 625 LINE"
);
}
);
width = 621;
},
{
hints = (
{
horizontal = 1;
origin = "{0, 7}";
target = down;
type = TopGhost;
},
{
horizontal = 1;
origin = "{0, 0}";
target = up;
type = BottomGhost;
}
);
layerId = "3D3F176D-2450-4887-9AC4-1237D1CC87EB";
paths = (
{
closed = 1;
nodes = (
"195.5 0 LINE",
"290.5 0 LINE",
"474.25 625 LINE",
"409.25 625 LINE",
"247.5 57 LINE",
"238.5 57 LINE",
"76.75 625 LINE",
"11.75 625 LINE"
);
}
);
width = 486;
}
);
leftKerningGroup = V;
rightKerningGroup = V;
unicode = 0056;
},
{
glyphname = W;
layers = (
{
anchors = (
{
name = bottom;
position = "{465, 0}";
},
{
name = top;
position = "{465, 625}";
}
);
background = {
paths = (
{
closed = 1;
nodes = (
"612 625 LINE",
"564 276 LINE",
"558 276 LINE",
"487 625 LINE",
"334 625 LINE",
"262 276 LINE",
"256 276 LINE",
"209 625 LINE",
"0 625 LINE",
"98 0 LINE",
"359 0 LINE",
"404 230 LINE",
"416 230 LINE",
"462 0 LINE",
"723 0 LINE",
"821 625 LINE"
);
}
);
};
layerId = "1124150E-252C-4727-BAB2-2837E441E30C";
paths = (
{
closed = 1;
nodes = (
"108 0 LINE",
"406 0 LINE",
"503 625 LINE",
"356 625 LINE",
"287 192 LINE",
"278 192 LINE",
"225 625 LINE",
"25 625 LINE"
);
},
{
closed = 1;
nodes = (
"704 625 LINE",
"651 192 LINE",
"642 192 LINE",
"573 625 LINE",
"426 625 LINE",
"523 0 LINE",
"821 0 LINE",
"904 625 LINE"
);
}
);
width = 929;
},
{
anchors = (
{
name = bottom;
position = "{378.6, 0}";
},
{
name = top;
position = "{378.6, 625}";
}
);
hints = (
{
horizontal = 1;
origin = "{0, 7}";
target = down;
type = TopGhost;
},
{
horizontal = 1;
origin = "{0, 0}";
target = up;
type = BottomGhost;
}
);
layerId = "3D3F176D-2450-4887-9AC4-1237D1CC87EB";
paths = (
{
closed = 1;
nodes = (
"137.7 0 LINE",
"244 0 LINE",
"405.8 625 LINE",
"345.2 625 LINE",
"196.55 57 LINE",
"187.55 57 LINE",
"90 625 LINE",
"25 625 LINE"
);
},
{
closed = 1;
nodes = (
"667.55 625 LINE",
"570 57 LINE",
"561 57 LINE",
"412.35 625 LINE",
"351.75 625 LINE",
"513.55 0 LINE",
"619.85 0 LINE",
"732.55 625 LINE"
);
}
);
width = 757.55;
}
);
leftKerningGroup = W;
rightKerningGroup = W;
unicode = 0057;
},
{
glyphname = X;
layers = (
{
guideLines = (
{
angle = 31.233;
position = "{503, 134}";
showMeasurement = 1;
},
{
angle = 31.233;
position = "{503, 734}";
showMeasurement = 1;
},
{
angle = 150.539;
position = "{588, 471}";
showMeasurement = 1;
}
);
layerId = "1124150E-252C-4727-BAB2-2837E441E30C";
paths = (
{
closed = 1;
nodes = (
"234 625 LINE",
"12 625 LINE",
"403 0 LINE",
"625 0 LINE"
);
},
{
closed = 1;
nodes = (
"221 370 LINE",
"5 0 LINE",
"222 0 LINE",
"385 278 LINE"
);
},
{
closed = 1;
nodes = (
"402 255 LINE",
"618 625 LINE",
"401 625 LINE",
"238 347 LINE"
);
}
);
width = 630;
},
{
hints = (
{
horizontal = 1;
origin = "{1, 1}";
target = up;
type = BottomGhost;
},
{
horizontal = 1;
origin = "{0, 1}";
target = down;
type = TopGhost;
}
);
layerId = "3D3F176D-2450-4887-9AC4-1237D1CC87EB";
paths = (
{
closed = 1;
nodes = (
"93.6 625 LINE",
"20.1 625 LINE",
"409.75 0 LINE",
"483.25 0 LINE"
);
},
{
closed = 1;
nodes = (
"233.15 363.25 LINE",
"11.75 0 LINE",
"82.95 0 LINE",
"244.6 271.25 LINE"
);
},
{
closed = 1;
nodes = (
"254.85 261.75 LINE",
"474.9 625 LINE",
"403.7 625 LINE",
"242.05 353.75 LINE"
);
}
);
width = 495;
}
);
leftKerningGroup = X;
rightKerningGroup = X;
unicode = 0058;
},
{
glyphname = Y;
layers = (
{
anchors = (
{
name = bottom;
position = "{290, 0}";
},
{
name = top;
position = "{290, 625}";
},
{
name = topleft;
position = "{5, 625}";
}
);
background = {
paths = (
{
closed = 0;
nodes = (
"210 625 LINE",
"390 170 LINE"
);
}
);
};
guideLines = (
{
angle = 23.523;
position = "{26, 543}";
showMeasurement = 1;
},
{
angle = 23.523;
position = "{52, 330}";
showMeasurement = 1;
}
);
layerId = "1124150E-252C-4727-BAB2-2837E441E30C";
paths = (
{
closed = 1;
nodes = (
"327 314 LINE",
"215 625 LINE",
"5 625 LINE",
"190 200 LINE",
"190 0 LINE",
"390 0 LINE",
"390 200 LINE",
"575 625 LINE",
"365 625 LINE",
"253 314 LINE"
);
}
);
width = 580;
},
{
anchors = (
{
name = bottom;
position = "{229.25, 0}";
},
{
name = top;
position = "{229.25, 625}";
},
{
name = topleft;
position = "{25.25, 625}";
}
);
hints = (
{
horizontal = 1;
origin = "{0, 2}";
target = down;
type = TopGhost;
},
{
origin = "{0, 4}";
target = "{0, 5}";
type = Stem;
},
{
horizontal = 1;
origin = "{0, 4}";
target = up;
type = BottomGhost;
}
);
layerId = "3D3F176D-2450-4887-9AC4-1237D1CC87EB";
paths = (
{
closed = 1;
nodes = (
"240.6 264.05 LINE",
"78.65 625 LINE",
"11.75 625 LINE",
"196.75 220.25 LINE",
"196.75 0 LINE",
"261.75 0 LINE",
"261.75 220.25 LINE",
"446.75 625 LINE",
"379.85 625 LINE",
"217.9 264.05 LINE"
);
}
);
width = 458.5;
}
);
leftKerningGroup = Y;
rightKerningGroup = Y;
unicode = 0059;
},
{
glyphname = Z;
layers = (
{
anchors = (
{
name = bottom;
position = "{295, 0}";
},
{
name = top;
position = "{320, 625}";
}
);
layerId = "1124150E-252C-4727-BAB2-2837E441E30C";
paths = (
{
closed = 1;
nodes = (
"564 0 LINE",
"564 165 LINE",
"310 165 LINE",
"307 171 LINE",
"560 495 LINE",
"560 625 LINE",
"50 625 LINE",
"68 460 LINE",
"278 460 LINE",
"281 454 LINE",
"25 130 LINE",
"25 0 LINE"
);
}
);
width = 589;
},
{
anchors = (
{
name = bottom;
position = "{265.3, 0}";
},
{
name = top;
position = "{302.45, 625}";
}
);
hints = (
{
horizontal = 1;
origin = "{0, 11}";
target = "{0, 2}";
type = Stem;
},
{
horizontal = 1;
origin = "{0, 7}";
target = "{0, 6}";
type = Stem;
},
{
horizontal = 1;
origin = "{0, 11}";
target = up;
type = BottomGhost;
},
{
horizontal = 1;
origin = "{0, 6}";
target = down;
type = TopGhost;
}
);
layerId = "3D3F176D-2450-4887-9AC4-1237D1CC87EB";
paths = (
{
closed = 1;
nodes = (
"469.5 0 LINE",
"469.5 54.3 LINE",
"122.35 54.3 LINE",
"119.35 60.3 LINE",
"492.5 580.05 LINE",
"492.5 625 LINE",
"81.05 625 LINE",
"90.95 570.7 LINE",
"407.6 570.7 LINE",
"410.6 564.7 LINE",
"38.5 44.95 LINE",
"38.5 0 LINE"
);
}
);
width = 529.6;
}
);
leftKerningGroup = Z;
rightKerningGroup = Z;
unicode = 005A;
},
{
glyphname = a;
layers = (
{
anchors = (
{
name = bottom;
position = "{274, 0}";
},
{
name = ogonek;
position = "{520, 0}";
},
{
name = top;
position = "{290, 500}";
}
);
background = {
paths = (
{
closed = 1;
nodes = (
"251 -15 OFFCURVE",
"324 10 OFFCURVE",
"363 57 CURVE",
"420 0 LINE",
"520 0 LINE",
"520 350 LINE SMOOTH",
"520 482 OFFCURVE",
"410 515 OFFCURVE",
"280 515 CURVE SMOOTH",
"203 515 OFFCURVE",
"120 506 OFFCURVE",
"49 484 CURVE",
"73 341 LINE",
"127 359 OFFCURVE",
"204 368 OFFCURVE",
"267 368 CURVE SMOOTH",
"286 368 OFFCURVE",
"304 367 OFFCURVE",
"320 366 CURVE",
"320 320 LINE",
"280 320 LINE SMOOTH",
"124 320 OFFCURVE",
"8 278 OFFCURVE",
"8 150 CURVE SMOOTH",
"8 14 OFFCURVE",
"101 -15 OFFCURVE",
"176 -15 CURVE SMOOTH"
);
},
{
closed = 1;
nodes = (
"210 172 LINE SMOOTH",
"210 211 OFFCURVE",
"239 214 OFFCURVE",
"279 214 CURVE SMOOTH",
"320 214 LINE",
"320 167 LINE SMOOTH",
"320 134 OFFCURVE",
"289 131 OFFCURVE",
"251 131 CURVE SMOOTH",
"210 131 LINE"
);
}
);
};
layerId = "1124150E-252C-4727-BAB2-2837E441E30C";
paths = (
{
closed = 1;
nodes = (
"260 -15 OFFCURVE",
"320 8 OFFCURVE",
"370 50 CURVE",
"420 0 LINE",
"520 0 LINE",
"520 340 LINE SMOOTH",
"520 461 OFFCURVE",
"449 515 OFFCURVE",
"290 515 CURVE SMOOTH",
"205 515 OFFCURVE",
"124 504 OFFCURVE",
"48 481 CURVE",
"72 343 LINE",
"145 361 OFFCURVE",
"210 369 OFFCURVE",
"270 369 CURVE SMOOTH",
"294 369 OFFCURVE",
"309 368 OFFCURVE",
"320 365 CURVE",
"320 158 LINE SMOOTH",
"320 129 OFFCURVE",
"303 120 OFFCURVE",
"251 120 CURVE SMOOTH",
"209 120 LINE",
"209 178 LINE SMOOTH",
"209 210 OFFCURVE",
"226 220 OFFCURVE",
"278 220 CURVE SMOOTH",
"350 220 LINE",
"350 320 LINE",
"290 320 LINE SMOOTH",
"96 320 OFFCURVE",
"25 276 OFFCURVE",
"25 155 CURVE SMOOTH",
"25 38 OFFCURVE",
"79 -15 OFFCURVE",
"200 -15 CURVE SMOOTH"
);
}
);
width = 565;
},
{
anchors = (
{
name = bottom;
position = "{279.4, 0}";
},
{
name = ogonek;
position = "{439, 0}";
},
{
name = top;
position = "{271.1, 500}";
}
);
hints = (
{
horizontal = 1;
origin = "{0, 36}";
target = "{0, 23}";
type = Stem;
},
{
horizontal = 1;
origin = "{0, 28}";
target = "{0, 29}";
type = Stem;
},
{
horizontal = 1;
origin = "{0, 8}";
target = "{0, 15}";
type = Stem;
},
{
origin = "{0, 33}";
target = "{0, 23}";
type = Stem;
},
{
origin = "{0, 19}";
target = "{0, 4}";
type = Stem;
},
{
horizontal = 1;
origin = "{0, 36}";
target = up;
type = BottomGhost;
},
{
horizontal = 1;
origin = "{0, 8}";
target = down;
type = TopGhost;
}
);
layerId = "3D3F176D-2450-4887-9AC4-1237D1CC87EB";
paths = (
{
closed = 1;
nodes = (
"289.7 -8.25 OFFCURVE",
"345.65 9.35 OFFCURVE",
"392.95 50 CURVE",
"411.9 0 LINE",
"439 0 LINE",
"439 380.5 LINE SMOOTH",
"439 477.2 OFFCURVE",
"399.05 508.25 OFFCURVE",
"271.1 508.25 CURVE SMOOTH",
"207.7 508.25 OFFCURVE",
"126.7 495.9 OFFCURVE",
"87.15 479.65 CURVE",
"96.3 429.4 LINE",
"150.4 444.7 OFFCURVE",
"205.95 452.7 OFFCURVE",
"255.15 452.7 CURVE SMOOTH",
"306.15 452.7 OFFCURVE",
"341.4 449 OFFCURVE",
"374 439.25 CURVE",
"374 113.45 LINE SMOOTH",
"374 62.85 OFFCURVE",
"355.65 48.45 OFFCURVE",
"290.15 48.45 CURVE SMOOTH",
"123.95 48.45 LINE",
"123.95 175.3 LINE SMOOTH",
"123.95 224.85 OFFCURVE",
"142.3 238.9 OFFCURVE",
"209.15 238.9 CURVE SMOOTH",
"404 238.9 LINE",
"404 291.65 LINE",
"364.25 291.65 LINE SMOOTH",
"89.25 291.65 OFFCURVE",
"65.5 280.05 OFFCURVE",
"65.5 134.75 CURVE SMOOTH",
"65.5 29.9 OFFCURVE",
"104.65 -8.25 OFFCURVE",
"210.8 -8.25 CURVE SMOOTH"
);
}
);
width = 538;
}
);
leftKerningGroup = a;
leftMetricsKey = "=o-5";
rightKerningGroup = n;
rightMetricsKey = n;
unicode = 0061;
},
{
glyphname = ae;
layers = (
{
anchors = (
{
name = bottom;
position = "{423, 0}";
},
{
name = top;
position = "{423, 500}";
}
);
background = {
paths = (
{
closed = 1;
nodes = (
"260 -15 OFFCURVE",
"320 8 OFFCURVE",
"370 50 CURVE",
"420 0 LINE",
"520 0 LINE",
"520 340 LINE SMOOTH",
"520 461 OFFCURVE",
"449 515 OFFCURVE",
"290 515 CURVE SMOOTH",
"207 515 OFFCURVE",
"126 504 OFFCURVE",
"48 481 CURVE",
"72 343 LINE",
"141 360 OFFCURVE",
"206 369 OFFCURVE",
"270 369 CURVE SMOOTH",
"291 369 OFFCURVE",
"307 368 OFFCURVE",
"320 365 CURVE",
"320 158 LINE SMOOTH",
"320 129 OFFCURVE",
"303 120 OFFCURVE",
"251 120 CURVE SMOOTH",
"209 120 LINE",
"209 178 LINE SMOOTH",
"209 210 OFFCURVE",
"226 220 OFFCURVE",
"278 220 CURVE SMOOTH",
"350 220 LINE",
"350 320 LINE",
"290 320 LINE SMOOTH",
"96 320 OFFCURVE",
"25 276 OFFCURVE",
"25 155 CURVE SMOOTH",
"25 38 OFFCURVE",
"79 -15 OFFCURVE",
"200 -15 CURVE SMOOTH"
);
},
{
closed = 1;
nodes = (
"647 -15 OFFCURVE",
"721 -3 OFFCURVE",
"792 19 CURVE",
"768 157 LINE",
"710 140 OFFCURVE",
"651 131 OFFCURVE",
"590 131 CURVE SMOOTH",
"567 131 OFFCURVE",
"543 132 OFFCURVE",
"520 135 CURVE",
"520 332 LINE SMOOTH",
"520 367 OFFCURVE",
"549 370 OFFCURVE",
"589 370 CURVE SMOOTH",
"625 370 LINE",
"625 322 LINE SMOOTH",
"625 283 OFFCURVE",
"596 280 OFFCURVE",
"556 280 CURVE SMOOTH",
"490 280 LINE",
"490 180 LINE",
"520 180 LINE SMOOTH",
"744 180 OFFCURVE",
"805 233 OFFCURVE",
"805 345 CURVE SMOOTH",
"805 478 OFFCURVE",
"746 515 OFFCURVE",
"570 515 CURVE SMOOTH",
"380 515 OFFCURVE",
"305 425 OFFCURVE",
"305 250 CURVE SMOOTH",
"305 75 OFFCURVE",
"380 -15 OFFCURVE",
"570 -15 CURVE"
);
}
);
};
layerId = "1124150E-252C-4727-BAB2-2837E441E30C";
paths = (
{
closed = 1;
nodes = (
"260 -15 OFFCURVE",
"320 8 OFFCURVE",
"370 50 CURVE",
"520 50 LINE",
"520 340 LINE SMOOTH",
"520 461 OFFCURVE",
"449 515 OFFCURVE",
"290 515 CURVE SMOOTH",
"205 515 OFFCURVE",
"124 504 OFFCURVE",
"48 481 CURVE",
"72 343 LINE",
"145 361 OFFCURVE",
"210 369 OFFCURVE",
"270 369 CURVE SMOOTH",
"294 369 OFFCURVE",
"309 368 OFFCURVE",
"320 365 CURVE",
"320 158 LINE SMOOTH",
"320 129 OFFCURVE",
"303 120 OFFCURVE",
"251 120 CURVE SMOOTH",
"209 120 LINE",
"209 178 LINE SMOOTH",
"209 210 OFFCURVE",
"226 220 OFFCURVE",
"278 220 CURVE SMOOTH",
"350 220 LINE",
"350 320 LINE",
"290 320 LINE SMOOTH",
"96 320 OFFCURVE",
"25 276 OFFCURVE",
"25 155 CURVE SMOOTH",
"25 38 OFFCURVE",
"79 -15 OFFCURVE",
"200 -15 CURVE SMOOTH"
);
},
{
closed = 1;
nodes = (
"646 -15 OFFCURVE",
"720 -4 OFFCURVE",
"792 19 CURVE",
"768 157 LINE",
"708 140 OFFCURVE",
"649 131 OFFCURVE",
"590 131 CURVE SMOOTH",
"561 131 OFFCURVE",
"538 132 OFFCURVE",
"520 135 CURVE",
"520 332 LINE SMOOTH",
"520 361 OFFCURVE",
"537 370 OFFCURVE",
"589 370 CURVE SMOOTH",
"625 370 LINE",
"625 322 LINE SMOOTH",
"625 290 OFFCURVE",
"608 280 OFFCURVE",
"556 280 CURVE SMOOTH",
"490 280 LINE",
"490 180 LINE",
"520 180 LINE SMOOTH",
"729 180 OFFCURVE",
"805 224 OFFCURVE",
"805 345 CURVE SMOOTH",
"805 475 OFFCURVE",
"750 515 OFFCURVE",
"570 515 CURVE SMOOTH",
"486 515 OFFCURVE",
"425 498 OFFCURVE",
"382 463 CURVE",
"348 74 LINE",
"390 14 OFFCURVE",
"462 -15 OFFCURVE",
"570 -15 CURVE"
);
}
);
width = 845;
},
{
anchors = (
{
name = bottom;
position = "{417.6, 0}";
},
{
name = top;
position = "{417.6, 500}";
}
);
hints = (
{
horizontal = 1;
origin = "{0, 35}";
target = "{0, 22}";
type = Stem;
},
{
horizontal = 1;
origin = "{0, 27}";
target = "{0, 28}";
type = Stem;
},
{
horizontal = 1;
origin = "{0, 7}";
target = "{0, 14}";
type = Stem;
},
{
origin = "{0, 32}";
target = "{0, 22}";
type = Stem;
},
{
origin = "{0, 18}";
target = "{0, 3}";
type = Stem;
},
{
horizontal = 1;
origin = "{1, 34}";
target = "{1, 6}";
type = Stem;
},
{
horizontal = 1;
origin = "{1, 20}";
target = "{1, 19}";
type = Stem;
},
{
horizontal = 1;
origin = "{1, 27}";
target = "{1, 13}";
type = Stem;
},
{
origin = "{0, 18}";
target = "{1, 9}";
type = Stem;
},
{
origin = "{1, 15}";
target = "{1, 24}";
type = Stem;
},
{
horizontal = 1;
origin = "{0, 35}";
target = up;
type = BottomGhost;
},
{
horizontal = 1;
origin = "{0, 7}";
target = down;
type = TopGhost;
}
);
layerId = "3D3F176D-2450-4887-9AC4-1237D1CC87EB";
paths = (
{
closed = 1;
nodes = (
"295.1 -8.25 OFFCURVE",
"353.75 12.05 OFFCURVE",
"403.75 59.45 CURVE",
"440.35 50 LINE",
"440.35 380.5 LINE SMOOTH",
"440.35 477.2 OFFCURVE",
"399.05 508.25 OFFCURVE",
"271.1 508.25 CURVE SMOOTH",
"207.7 508.25 OFFCURVE",
"126.7 495.9 OFFCURVE",
"87.15 479.65 CURVE",
"96.3 429.4 LINE",
"150.4 444.7 OFFCURVE",
"205.95 452.7 OFFCURVE",
"255.15 452.7 CURVE SMOOTH",
"306.15 452.7 OFFCURVE",
"341.4 449 OFFCURVE",
"374 439.25 CURVE",
"374 113.45 LINE SMOOTH",
"374 62.85 OFFCURVE",
"355.65 48.45 OFFCURVE",
"290.15 48.45 CURVE SMOOTH",
"123.95 48.45 LINE",
"123.95 175.3 LINE SMOOTH",
"123.95 224.85 OFFCURVE",
"142.3 238.9 OFFCURVE",
"209.15 238.9 CURVE SMOOTH",
"404 238.9 LINE",
"404 291.65 LINE",
"364.25 291.65 LINE SMOOTH",
"89.25 291.65 OFFCURVE",
"65.5 280.05 OFFCURVE",
"65.5 134.75 CURVE SMOOTH",
"65.5 29.9 OFFCURVE",
"104.65 -8.25 OFFCURVE",
"210.8 -8.25 CURVE SMOOTH"
);
},
{
closed = 1;
nodes = (
"617.65 -8.25 OFFCURVE",
"695.7 2.75 OFFCURVE",
"740.7 20.35 CURVE",
"731.55 70.6 LINE",
"654 52.25 OFFCURVE",
"611.2 47.3 OFFCURVE",
"560.3 47.3 CURVE SMOOTH",
"509.7 47.3 OFFCURVE",
"475.9 51 OFFCURVE",
"440.35 60.75 CURVE",
"440.35 383.3 LINE SMOOTH",
"440.35 433.9 OFFCURVE",
"460.05 448.3 OFFCURVE",
"528.25 448.3 CURVE SMOOTH",
"695.2 448.3 LINE",
"695.2 324.7 LINE SMOOTH",
"695.2 275.15 OFFCURVE",
"675.5 261.1 OFFCURVE",
"605.95 261.1 CURVE SMOOTH",
"410.35 261.1 LINE",
"410.35 208.35 LINE",
"440.35 208.35 LINE SMOOTH",
"729 208.35 OFFCURVE",
"753.7 219.95 OFFCURVE",
"753.7 365.25 CURVE SMOOTH",
"753.7 479.05 OFFCURVE",
"716.25 508.25 OFFCURVE",
"565.95 508.25 CURVE SMOOTH",
"475.2 508.25 OFFCURVE",
"429.05 489.9 OFFCURVE",
"402.25 444.1 CURVE",
"387.15 78.05 LINE",
"406.2 14 OFFCURVE",
"444.45 -8.25 OFFCURVE",
"543 -8.25 CURVE SMOOTH"
);
}
);
width = 834.2;
}
);
leftKerningGroup = a;
leftMetricsKey = a;
rightKerningGroup = e;
rightMetricsKey = e;
unicode = 00E6;
},
{
glyphname = b;
layers = (
{
background = {
paths = (
{
closed = 1;
nodes = (
"50 25 LINE",
"150 -8 OFFCURVE",
"232 -15 OFFCURVE",
"309 -15 CURVE SMOOTH",
"469 -15 OFFCURVE",
"565 55 OFFCURVE",
"565 250 CURVE SMOOTH",
"565 375 OFFCURVE",
"521 515 OFFCURVE",
"350 515 CURVE SMOOTH",
"309 515 OFFCURVE",
"276 510 OFFCURVE",
"250 499 CURVE",
"250 665 LINE",
"50 650 LINE"
);
},
{
closed = 1;
nodes = (
"250 332 LINE",
"252 366 OFFCURVE",
"281 369 OFFCURVE",
"319 369 CURVE SMOOTH",
"350 369 LINE",
"350 173 LINE SMOOTH",
"350 134 OFFCURVE",
"321 131 OFFCURVE",
"281 131 CURVE SMOOTH",
"250 131 LINE"
);
}
);
};
layerId = "1124150E-252C-4727-BAB2-2837E441E30C";
paths = (
{
closed = 1;
nodes = (
"202 515 OFFCURVE",
"135 432 OFFCURVE",
"135 250 CURVE SMOOTH",
"135 68 OFFCURVE",
"190 -15 OFFCURVE",
"310 -15 CURVE SMOOTH",
"487 -15 OFFCURVE",
"565 66 OFFCURVE",
"565 250 CURVE SMOOTH",
"565 434 OFFCURVE",
"499 515 OFFCURVE",
"350 515 CURVE SMOOTH"
);
},
{
closed = 1;
nodes = (
"350 163 LINE SMOOTH",
"350 142 OFFCURVE",
"341 135 OFFCURVE",
"311 135 CURVE SMOOTH",
"250 135 LINE",
"250 337 LINE SMOOTH",
"250 358 OFFCURVE",
"259 365 OFFCURVE",
"289 365 CURVE SMOOTH",
"350 365 LINE"
);
},
{
closed = 1;
nodes = (
"50 25 LINE",
"132 -4 OFFCURVE",
"206 -15 OFFCURVE",
"310 -15 CURVE",
"250 95 LINE",
"250 135 LINE",
"250 665 LINE",
"50 650 LINE"
);
}
);
width = 595;
},
{
hints = (
{
horizontal = 1;
origin = "{0, 5}";
target = "{1, 4}";
type = Stem;
},
{
horizontal = 1;
origin = "{0, 11}";
target = "{1, 8}";
type = Stem;
},
{
origin = "{1, 0}";
target = "{0, 8}";
type = Stem;
},
{
horizontal = 1;
origin = "{0, 5}";
target = up;
type = BottomGhost;
},
{
origin = "{2, 7}";
target = "{2, 6}";
type = Stem;
},
{
horizontal = 1;
origin = "{0, 11}";
target = down;
type = TopGhost;
}
);
layerId = "3D3F176D-2450-4887-9AC4-1237D1CC87EB";
paths = (
{
closed = 1;
nodes = (
"141.25 515 OFFCURVE",
"121.5 487.35 OFFCURVE",
"121.5 250 CURVE SMOOTH",
"121.5 16.7 OFFCURVE",
"141.4 -8.25 OFFCURVE",
"308.65 -8.25 CURVE SMOOTH",
"465.4 -8.25 OFFCURVE",
"489.4 30.9 OFFCURVE",
"489.4 250 CURVE SMOOTH",
"489.4 473.15 OFFCURVE",
"463.9 515 OFFCURVE",
"321.65 515 CURVE SMOOTH"
);
},
{
closed = 1;
nodes = (
"422.9 67.15 LINE SMOOTH",
"422.9 54.25 OFFCURVE",
"411.2 49.95 OFFCURVE",
"374.45 49.95 CURVE SMOOTH",
"169 49.95 LINE",
"169 432.85 LINE SMOOTH",
"169 452.5 OFFCURVE",
"179.35 456.8 OFFCURVE",
"217.45 456.8 CURVE SMOOTH",
"422.9 456.8 LINE"
);
},
{
closed = 1;
nodes = (
"104 19.6 LINE",
"179.25 0.05 OFFCURVE",
"235.7 -8.25 OFFCURVE",
"308.65 -8.25 CURVE",
"169 36.95 LINE",
"169 87.75 LINE",
"169 681.2 LINE",
"104 670.25 LINE"
);
}
);
width = 559.9;
}
);
leftKerningGroup = h;
leftMetricsKey = n;
rightKerningGroup = o;
rightMetricsKey = o;
unicode = 0062;
},
{
glyphname = c;
layers = (
{
anchors = (
{
name = bottom;
position = "{255, 0}";
},
{
name = top;
position = "{245, 500}";
}
);
background = {
paths = (
{
closed = 0;
nodes = (
"423 491 LINE",
"434 19 LINE"
);
}
);
};
layerId = "1124150E-252C-4727-BAB2-2837E441E30C";
paths = (
{
closed = 1;
nodes = (
"322 -15 OFFCURVE",
"383 -4 OFFCURVE",
"439 19 CURVE",
"422 157 LINE",
"383 139 OFFCURVE",
"342 131 OFFCURVE",
"296 131 CURVE SMOOTH",
"272 131 OFFCURVE",
"257 132 OFFCURVE",
"245 135 CURVE",
"245 296 LINE SMOOTH",
"245 349 OFFCURVE",
"264 369 OFFCURVE",
"313 369 CURVE SMOOTH",
"350 369 OFFCURVE",
"382 365 OFFCURVE",
"412 356 CURVE",
"429 494 LINE",
"398 505 OFFCURVE",
"317 515 OFFCURVE",
"258 515 CURVE SMOOTH",
"100 515 OFFCURVE",
"30 433 OFFCURVE",
"30 250 CURVE SMOOTH",
"30 67 OFFCURVE",
"101 -15 OFFCURVE",
"258 -15 CURVE SMOOTH"
);
}
);
width = 449;
},
{
anchors = (
{
name = bottom;
position = "{230.7, 0}";
},
{
name = top;
position = "{247.7, 500}";
}
);
hints = (
{
horizontal = 1;
origin = "{0, 26}";
target = "{0, 6}";
type = Stem;
},
{
horizontal = 1;
origin = "{0, 20}";
target = "{0, 13}";
type = Stem;
},
{
horizontal = 1;
origin = "{0, 20}";
target = down;
type = TopGhost;
},
{
origin = "{0, 23}";
target = "{0, 10}";
type = Stem;
},
{
horizontal = 1;
origin = "{0, 26}";
target = up;
type = BottomGhost;
},
{
horizontal = 1;
origin = "{0, 20}";
target = down;
type = TopGhost;
}
);
layerId = "3D3F176D-2450-4887-9AC4-1237D1CC87EB";
paths = (
{
closed = 1;
nodes = (
"297.7 -8.25 OFFCURVE",
"362.75 2.75 OFFCURVE",
"403.9 20.35 CURVE",
"395 70.6 LINE",
"330.35 52.6 OFFCURVE",
"296.1 47.3 OFFCURVE",
"255.5 47.3 CURVE SMOOTH",
"201.8 47.3 OFFCURVE",
"166.55 51 OFFCURVE",
"135.65 60.75 CURVE",
"135.65 364.85 LINE SMOOTH",
"135.65 430 OFFCURVE",
"158.7 452.7 OFFCURVE",
"229.3 452.7 CURVE SMOOTH",
"278.45 452.7 OFFCURVE",
"328 447.35 OFFCURVE",
"382.3 437 CURVE",
"392.55 491.3 LINE",
"345.35 502.3 OFFCURVE",
"285.95 508.25 OFFCURVE",
"233.7 508.25 CURVE SMOOTH",
"94.6 508.25 OFFCURVE",
"70.5 468.1 OFFCURVE",
"70.5 250 CURVE SMOOTH",
"70.5 33.25 OFFCURVE",
"94.25 -8.25 OFFCURVE",
"233.7 -8.25 CURVE SMOOTH"
);
}
);
width = 454.4;
}
);
leftKerningGroup = o;
leftMetricsKey = o;
rightKerningGroup = c;
rightMetricsKey = "=o-20";
unicode = 0063;
},
{
glyphname = d;
layers = (
{
anchors = (
{
name = bottom;
position = "{298, 0}";
},
{
name = center;
position = "{445, 585}";
},
{
name = top;
position = "{298, 500}";
},
{
name = topright;
position = "{545, 500}";
}
);
background = {
paths = (
{
closed = 1;
nodes = (
"545 0 LINE",
"545 665 LINE",
"345 650 LINE",
"345 500 LINE",
"230 500 LINE SMOOTH",
"59 500 OFFCURVE",
"30 353 OFFCURVE",
"30 250 CURVE SMOOTH",
"30 125 OFFCURVE",
"74 -15 OFFCURVE",
"245 -15 CURVE SMOOTH",
"324 -15 OFFCURVE",
"373 4 OFFCURVE",
"402 42 CURVE",
"445 0 LINE"
);
},
{
closed = 1;
nodes = (
"245 327 LINE SMOOTH",
"245 366 OFFCURVE",
"274 369 OFFCURVE",
"314 369 CURVE SMOOTH",
"345 369 LINE",
"345 167 LINE",
"342 134 OFFCURVE",
"314 131 OFFCURVE",
"276 131 CURVE SMOOTH",
"245 131 LINE"
);
}
);
};
layerId = "1124150E-252C-4727-BAB2-2837E441E30C";
paths = (
{
closed = 1;
nodes = (
"96 515 OFFCURVE",
"30 434 OFFCURVE",
"30 250 CURVE SMOOTH",
"30 66 OFFCURVE",
"96 -15 OFFCURVE",
"245 -15 CURVE SMOOTH",
"393 -15 OFFCURVE",
"460 68 OFFCURVE",
"460 250 CURVE SMOOTH",
"460 432 OFFCURVE",
"393 515 OFFCURVE",
"245 515 CURVE SMOOTH"
);
},
{
closed = 1;
nodes = (
"345 163 LINE SMOOTH",
"345 142 OFFCURVE",
"336 135 OFFCURVE",
"306 135 CURVE SMOOTH",
"245 135 LINE",
"245 337 LINE SMOOTH",
"245 358 OFFCURVE",
"254 365 OFFCURVE",
"284 365 CURVE SMOOTH",
"345 365 LINE"
);
},
{
closed = 1;
nodes = (
"345 650 LINE",
"345 135 LINE",
"445 0 LINE",
"545 0 LINE",
"545 665 LINE"
);
}
);
width = 595;
},
{
anchors = (
{
name = bottom;
position = "{276.4, 0}";
},
{
name = center;
position = "{423.4, 590.4}";
},
{
name = top;
position = "{276.4, 500}";
},
{
name = topright;
position = "{455.9, 500}";
}
);
hints = (
{
horizontal = 1;
origin = "{0, 5}";
target = "{1, 4}";
type = Stem;
},
{
horizontal = 1;
origin = "{0, 11}";
target = "{1, 8}";
type = Stem;
},
{
origin = "{0, 2}";
target = "{1, 4}";
type = Stem;
},
{
origin = "{2, 0}";
target = "{2, 4}";
type = Stem;
},
{
horizontal = 1;
origin = "{0, 5}";
target = up;
type = BottomGhost;
},
{
horizontal = 1;
origin = "{0, 11}";
target = down;
type = TopGhost;
}
);
layerId = "3D3F176D-2450-4887-9AC4-1237D1CC87EB";
paths = (
{
closed = 1;
nodes = (
"96 509.6 OFFCURVE",
"70.5 467.75 OFFCURVE",
"70.5 250 CURVE SMOOTH",
"70.5 25.5 OFFCURVE",
"93.3 -13.65 OFFCURVE",
"238.25 -15 CURVE SMOOTH",
"418.65 -16.35 OFFCURVE",
"438.4 11.3 OFFCURVE",
"438.4 250 CURVE SMOOTH",
"438.4 481.95 OFFCURVE",
"418.65 506.9 OFFCURVE",
"238.25 508.25 CURVE SMOOTH"
);
},
{
closed = 1;
nodes = (
"390.9 67.15 LINE SMOOTH",
"390.9 47.5 OFFCURVE",
"380.55 43.2 OFFCURVE",
"342.45 43.2 CURVE SMOOTH",
"137 43.2 LINE",
"137 426.1 LINE SMOOTH",
"137 445.75 OFFCURVE",
"147.35 450.05 OFFCURVE",
"185.45 450.05 CURVE SMOOTH",
"390.9 450.05 LINE"
);
},
{
closed = 1;
nodes = (
"390.9 670.25 LINE",
"390.9 87.75 LINE",
"428.8 0 LINE",
"455.9 0 LINE",
"455.9 681.2 LINE"
);
}
);
width = 559.9;
}
);
leftKerningGroup = o;
leftMetricsKey = o;
rightKerningGroup = l;
rightMetricsKey = "=|h";
unicode = 0064;
},
{
glyphname = eth;
layers = (
{
background = {
paths = (
{
closed = 0;
nodes = (
"451 662 LINE",
"528 539 OFFCURVE",
"562 415 OFFCURVE",
"562 292 CURVE"
);
}
);
};
components = (
{
name = slashshortcomb;
transform = "{1, 0, 0, 1, 231, 236}";
}
);
layerId = "1124150E-252C-4727-BAB2-2837E441E30C";
paths = (
{
closed = 1;
nodes = (
"477 -15 OFFCURVE",
"560 69 OFFCURVE",
"560 255 CURVE SMOOTH",
"560 295 LINE",
"438 445 LINE",
"295 445 LINE SMOOTH",
"112 445 OFFCURVE",
"30 373 OFFCURVE",
"30 215 CURVE SMOOTH",
"30 57 OFFCURVE",
"113 -15 OFFCURVE",
"295 -15 CURVE SMOOTH"
);
},
{
closed = 1;
nodes = (
"245 267 LINE SMOOTH",
"245 288 OFFCURVE",
"254 295 OFFCURVE",
"284 295 CURVE SMOOTH",
"345 295 LINE",
"345 163 LINE SMOOTH",
"345 142 OFFCURVE",
"336 135 OFFCURVE",
"306 135 CURVE SMOOTH",
"245 135 LINE"
);
},
{
closed = 1;
nodes = (
"560 295 LINE",
"560 437 OFFCURVE",
"505 614 OFFCURVE",
"431 711 CURVE",
"247 659 LINE",
"322 556 OFFCURVE",
"365 422 OFFCURVE",
"365 295 CURVE"
);
}
);
width = 592;
},
{
components = (
{
alignment = -1;
name = slashshortcomb;
transform = "{1, 0, 0, 1, 271.5, 227.9}";
}
);
hints = (
{
horizontal = 1;
origin = "{0, 11}";
target = "{1, 9}";
type = Stem;
},
{
horizontal = 1;
origin = "{1, 3}";
target = "{0, 5}";
type = Stem;
},
{
origin = "{0, 8}";
target = "{1, 9}";
type = Stem;
},
{
origin = "{1, 5}";
target = "{0, 2}";
type = Stem;
},
{
horizontal = 1;
origin = "{0, 11}";
target = up;
type = BottomGhost;
}
);
layerId = "3D3F176D-2450-4887-9AC4-1237D1CC87EB";
paths = (
{
closed = 1;
nodes = (
"436.5 -8.25 OFFCURVE",
"464.15 23.1 OFFCURVE",
"464.15 201 CURVE SMOOTH",
"464.15 380.05 LINE",
"411 438.25 LINE",
"270.7 438.25 LINE SMOOTH",
"105.25 438.25 OFFCURVE",
"77.25 402.7 OFFCURVE",
"77.25 215 CURVE SMOOTH",
"77.25 27.3 OFFCURVE",
"104.9 -8.25 OFFCURVE",
"270.7 -8.25 CURVE SMOOTH"
);
},
{
closed = 1;
nodes = (
"143.75 356.1 LINE SMOOTH",
"143.75 375.75 OFFCURVE",
"154.1 380.05 OFFCURVE",
"192.2 380.05 CURVE SMOOTH",
"397.65 380.05 LINE",
"397.65 73.9 LINE SMOOTH",
"397.65 54.25 OFFCURVE",
"387.3 49.95 OFFCURVE",
"349.2 49.95 CURVE SMOOTH",
"143.75 49.95 LINE"
);
},
{
closed = 1;
nodes = (
"464.15 380.05 LINE",
"464.15 459.95 OFFCURVE",
"419.95 568.1 OFFCURVE",
"350 665.1 CURVE",
"298.3 650.9 LINE",
"367.9 551.95 OFFCURVE",
"404.15 459.8 OFFCURVE",
"404.15 380.05 CURVE"
);
}
);
width = 544.75;
}
);
leftKerningGroup = eth;
rightKerningGroup = eth;
unicode = 00F0;
},
{
glyphname = e;
layers = (
{
anchors = (
{
name = bottom;
position = "{275, 0}";
},
{
name = ogonek;
position = "{517, 19}";
},
{
name = top;
position = "{295, 500}";
}
);
background = {
paths = (
{
closed = 0;
nodes = (
"530 345 LINE",
"517 15 LINE"
);
}
);
};
layerId = "1124150E-252C-4727-BAB2-2837E441E30C";
paths = (
{
closed = 1;
nodes = (
"373 -15 OFFCURVE",
"447 -4 OFFCURVE",
"517 19 CURVE",
"493 157 LINE",
"431 140 OFFCURVE",
"372 131 OFFCURVE",
"315 131 CURVE SMOOTH",
"281 131 OFFCURVE",
"261 132 OFFCURVE",
"245 135 CURVE",
"245 332 LINE SMOOTH",
"245 361 OFFCURVE",
"262 370 OFFCURVE",
"314 370 CURVE SMOOTH",
"350 370 LINE",
"350 322 LINE SMOOTH",
"350 290 OFFCURVE",
"333 280 OFFCURVE",
"281 280 CURVE SMOOTH",
"215 280 LINE",
"215 180 LINE",
"245 180 LINE SMOOTH",
"454 180 OFFCURVE",
"530 224 OFFCURVE",
"530 345 CURVE SMOOTH",
"530 475 OFFCURVE",
"475 515 OFFCURVE",
"295 515 CURVE SMOOTH",
"113 515 OFFCURVE",
"30 433 OFFCURVE",
"30 250 CURVE SMOOTH",
"30 68 OFFCURVE",
"113 -15 OFFCURVE",
"295 -15 CURVE"
);
}
);
width = 570;
},
{
anchors = (
{
name = bottom;
position = "{256.1, 0}";
},
{
name = ogonek;
position = "{437.35, 20.35}";
},
{
name = top;
position = "{262.6, 500}";
}
);
hints = (
{
horizontal = 1;
origin = "{0, 33}";
target = "{0, 6}";
type = Stem;
},
{
horizontal = 1;
origin = "{0, 20}";
target = "{0, 19}";
type = Stem;
},
{
horizontal = 1;
origin = "{0, 27}";
target = "{0, 13}";
type = Stem;
},
{
origin = "{0, 30}";
target = "{0, 9}";
type = Stem;
},
{
origin = "{0, 15}";
target = "{0, 24}";
type = Stem;
},
{
horizontal = 1;
origin = "{0, 33}";
target = up;
type = BottomGhost;
},
{
horizontal = 1;
origin = "{0, 27}";
target = down;
type = TopGhost;
}
);
layerId = "3D3F176D-2450-4887-9AC4-1237D1CC87EB";
paths = (
{
closed = 1;
nodes = (
"316.3 -8.25 OFFCURVE",
"394.35 2.75 OFFCURVE",
"437.35 20.35 CURVE",
"428.2 70.6 LINE",
"351.35 52.25 OFFCURVE",
"308.55 47.3 OFFCURVE",
"256.95 47.3 CURVE SMOOTH",
"205.4 47.3 OFFCURVE",
"170.55 51 OFFCURVE",
"137 60.75 CURVE",
"137 383.3 LINE SMOOTH",
"137 433.9 OFFCURVE",
"156.7 448.3 OFFCURVE",
"224.9 448.3 CURVE SMOOTH",
"391.85 448.3 LINE",
"391.85 324.7 LINE SMOOTH",
"391.85 275.15 OFFCURVE",
"372.15 261.1 OFFCURVE",
"302.6 261.1 CURVE SMOOTH",
"107 261.1 LINE",
"107 208.35 LINE",
"137 208.35 LINE SMOOTH",
"425.65 208.35 OFFCURVE",
"450.35 219.95 OFFCURVE",
"450.35 365.25 CURVE SMOOTH",
"450.35 479.05 OFFCURVE",
"412.9 508.25 OFFCURVE",
"262.6 508.25 CURVE SMOOTH",
"108.95 508.25 OFFCURVE",
"70.5 453.25 OFFCURVE",
"70.5 250 CURVE SMOOTH",
"70.5 36.95 OFFCURVE",
"96.8 -8.25 OFFCURVE",
"239.65 -8.25 CURVE SMOOTH"
);
}
);
width = 530.85;
}
);
leftKerningGroup = o;
leftMetricsKey = o;
rightKerningGroup = e;
rightMetricsKey = "=o+10";
unicode = 0065;
},
{
glyphname = f;
layers = (
{
background = {
paths = (
{
closed = 1;
nodes = (
"280 542 LINE",
"362 534 LINE",
"373 665 LINE",
"332 671 OFFCURVE",
"295 675 OFFCURVE",
"263 675 CURVE SMOOTH",
"154 675 OFFCURVE",
"94 636 OFFCURVE",
"87 560 CURVE SMOOTH",
"80 484 LINE",
"80 0 LINE",
"280 0 LINE"
);
}
);
};
layerId = "1124150E-252C-4727-BAB2-2837E441E30C";
paths = (
{
closed = 1;
nodes = (
"280 552 LINE",
"362 544 LINE",
"373 665 LINE",
"329 672 OFFCURVE",
"294 675 OFFCURVE",
"263 675 CURVE SMOOTH",
"132 675 OFFCURVE",
"85 631 OFFCURVE",
"80 500 CURVE",
"80 0 LINE",
"280 0 LINE"
);
},
{
closed = 1;
nodes = (
"30 500 LINE",
"30 371 LINE",
"340 371 LINE",
"340 500 LINE"
);
}
);
width = 358;
},
{
hints = (
{
horizontal = 1;
origin = "{1, 0}";
target = "{1, 1}";
type = Stem;
},
{
origin = "{0, 9}";
target = "{0, 10}";
type = Stem;
},
{
horizontal = 1;
origin = "{0, 0}";
target = "{0, 5}";
type = Stem;
},
{
horizontal = 1;
origin = "{0, 9}";
target = up;
type = BottomGhost;
},
{
horizontal = 1;
origin = "{0, 5}";
target = down;
type = TopGhost;
}
);
layerId = "3D3F176D-2450-4887-9AC4-1237D1CC87EB";
paths = (
{
closed = 1;
nodes = (
"199 619.5 LINE",
"314.75 610.15 LINE",
"319 665 LINE",
"292.55 672 OFFCURVE",
"262.95 675 OFFCURVE",
"233.3 675 CURVE SMOOTH",
"161.7 675 OFFCURVE",
"141.7 635.05 OFFCURVE",
"134 491.9 CURVE",
"134 0 LINE",
"199 0 LINE"
);
},
{
closed = 1;
nodes = (
"57 500 LINE",
"57 452 LINE",
"286 452 LINE",
"286 500 LINE"
);
}
);
width = 324.25;
}
);
leftKerningGroup = f;
rightKerningGroup = f;
unicode = 0066;
},
{
glyphname = g;
layers = (
{
anchors = (
{
name = bottom;
position = "{277, -175}";
},
{
name = top;
position = "{274, 500}";
}
);
background = {
paths = (
{
closed = 1;
nodes = (
"365 507 LINE",
"337 512 OFFCURVE",
"303 515 OFFCURVE",
"266 515 CURVE SMOOTH",
"87 515 OFFCURVE",
"15 457 OFFCURVE",
"15 334 CURVE SMOOTH",
"15 213 OFFCURVE",
"78 167 OFFCURVE",
"179 154 CURVE",
"294 152 LINE",
"452 159 OFFCURVE",
"499 210 OFFCURVE",
"499 318 CURVE SMOOTH",
"499 360 OFFCURVE",
"493 394 OFFCURVE",
"481 420 CURVE"
);
},
{
closed = 1;
nodes = (
"203 340 LINE SMOOTH",
"203 379 OFFCURVE",
"232 382 OFFCURVE",
"272 382 CURVE SMOOTH",
"303 382 LINE",
"303 317 LINE SMOOTH",
"303 278 OFFCURVE",
"274 275 OFFCURVE",
"234 275 CURVE SMOOTH",
"203 275 LINE"
);
},
{
closed = 1;
nodes = (
"167 172 LINE",
"132 71 LINE",
"132 49 OFFCURVE",
"135 22 OFFCURVE",
"296 22 CURVE",
"296 -13 LINE",
"282 -15 OFFCURVE",
"265 -15 OFFCURVE",
"248 -15 CURVE SMOOTH",
"182 -15 OFFCURVE",
"105 -5 OFFCURVE",
"49 14 CURVE",
"23 -135 LINE",
"93 -153 OFFCURVE",
"169 -165 OFFCURVE",
"242 -165 CURVE SMOOTH",
"378 -165 OFFCURVE",
"512 -151 OFFCURVE",
"512 0 CURVE SMOOTH",
"512 100 OFFCURVE",
"450 122 OFFCURVE",
"315 130 CURVE",
"322 170 LINE"
);
},
{
closed = 1;
nodes = (
"476 396 LINE",
"543 475 LINE",
"438 576 LINE",
"338 499 LINE"
);
}
);
};
layerId = "1124150E-252C-4727-BAB2-2837E441E30C";
paths = (
{
closed = 1;
nodes = (
"429 143 OFFCURVE",
"501 199 OFFCURVE",
"501 329 CURVE SMOOTH",
"501 459 OFFCURVE",
"429 515 OFFCURVE",
"262 515 CURVE SMOOTH",
"98 515 OFFCURVE",
"25 457 OFFCURVE",
"25 329 CURVE SMOOTH",
"25 201 OFFCURVE",
"98 143 OFFCURVE",
"262 143 CURVE SMOOTH"
);
},
{
closed = 1;
nodes = (
"215 381 LINE SMOOTH",
"215 406 OFFCURVE",
"223 413 OFFCURVE",
"247 413 CURVE SMOOTH",
"311 413 LINE",
"311 277 LINE SMOOTH",
"311 254 OFFCURVE",
"302 245 OFFCURVE",
"277 245 CURVE SMOOTH",
"215 245 LINE"
);
},
{
closed = 1;
nodes = (
"507 67 OFFCURVE",
"463 99 OFFCURVE",
"315 120 CURVE",
"319 170 LINE",
"189 172 LINE",
"152 61 LINE",
"152 36 OFFCURVE",
"202 22 OFFCURVE",
"327 12 CURVE",
"327 -24 LINE",
"297 -27 OFFCURVE",
"269 -29 OFFCURVE",
"237 -29 CURVE SMOOTH",
"178 -29 OFFCURVE",
"119 -20 OFFCURVE",
"59 -3 CURVE",
"35 -141 LINE",
"113 -164 OFFCURVE",
"194 -175 OFFCURVE",
"277 -175 CURVE SMOOTH",
"436 -175 OFFCURVE",
"507 -127 OFFCURVE",
"507 -20 CURVE SMOOTH"
);
},
{
closed = 1;
nodes = (
"543 485 LINE",
"448 576 LINE",
"348 499 LINE",
"449 362 LINE"
);
}
);
width = 548;
},
{
anchors = (
{
name = bottom;
position = "{236.5, -161.5}";
},
{
name = top;
position = "{245.65, 500}";
}
);
hints = (
{
horizontal = 1;
origin = "{2, 19}";
target = "{2, 12}";
type = Stem;
},
{
horizontal = 1;
place = "{199.8, 86.4}";
type = Stem;
},
{
horizontal = 1;
origin = "{1, 3}";
target = "{0, 5}";
type = Stem;
},
{
origin = "{0, 8}";
target = "{1, 9}";
type = Stem;
},
{
origin = "{2, 9}";
target = "{2, 22}";
type = Stem;
},
{
origin = "{1, 5}";
target = "{0, 2}";
type = Stem;
},
{
horizontal = 1;
origin = "{0, 5}";
target = down;
type = TopGhost;
}
);
layerId = "3D3F176D-2450-4887-9AC4-1237D1CC87EB";
paths = (
{
closed = 1;
nodes = (
"379.05 147.05 OFFCURVE",
"418.65 188.2 OFFCURVE",
"418.65 330.35 CURVE SMOOTH",
"418.65 472.5 OFFCURVE",
"377.7 515 OFFCURVE",
"235 515 CURVE SMOOTH",
"91.25 515 OFFCURVE",
"52 473.2 OFFCURVE",
"52 330.35 CURVE SMOOTH",
"52 186.15 OFFCURVE",
"91.25 147.05 OFFCURVE",
"235 147.05 CURVE SMOOTH"
);
},
{
closed = 1;
nodes = (
"119.15 389.1 LINE SMOOTH",
"119.15 443.8 OFFCURVE",
"140.65 461.6 OFFCURVE",
"206.5 461.6 CURVE SMOOTH",
"351.5 461.6 LINE",
"351.5 272.95 LINE SMOOTH",
"351.5 217.55 OFFCURVE",
"330.35 200.45 OFFCURVE",
"264.85 200.45 CURVE SMOOTH",
"119.15 200.45 LINE"
);
},
{
closed = 1;
nodes = (
"424.65 29.2 OFFCURVE",
"400.9 40.95 OFFCURVE",
"236.7 57.9 CURVE",
"243.4 156.5 LINE",
"202.5 155.8 LINE",
"174.95 39.4 LINE",
"174.95 17.1 OFFCURVE",
"227.65 5.8 OFFCURVE",
"367.5 -1.5 CURVE",
"367.5 -88.8 LINE",
"328.05 -98.55 OFFCURVE",
"287.9 -101.9 OFFCURVE",
"226.2 -101.9 CURVE SMOOTH",
"178 -101.9 OFFCURVE",
"139.25 -95.6 OFFCURVE",
"68.45 -78.6 CURVE",
"59.3 -132.9 LINE",
"98.15 -150.5 OFFCURVE",
"168.35 -161.5 OFFCURVE",
"236.5 -161.5 CURVE SMOOTH",
"379.3 -161.5 OFFCURVE",
"424.65 -133.75 OFFCURVE",
"424.65 -45.65 CURVE SMOOTH"
);
},
{
closed = 1;
nodes = (
"459.3 509.3 LINE",
"425.05 543.6 LINE",
"345.3 482.8 LINE",
"389.6 433.55 LINE"
);
}
);
width = 491.3;
}
);
leftKerningGroup = g;
rightKerningGroup = g;
unicode = 0067;
},
{
glyphname = h;
layers = (
{
anchors = (
{
name = bottom;
position = "{298, 0}";
},
{
name = center;
position = "{150, 564}";
},
{
name = top;
position = "{150, 645}";
}
);
layerId = "1124150E-252C-4727-BAB2-2837E441E30C";
paths = (
{
closed = 1;
nodes = (
"250 0 LINE",
"250 308 LINE SMOOTH",
"250 340 OFFCURVE",
"267 350 OFFCURVE",
"319 350 CURVE SMOOTH",
"350 350 LINE",
"350 0 LINE",
"550 0 LINE",
"550 400 LINE SMOOTH",
"550 472 OFFCURVE",
"494 515 OFFCURVE",
"400 515 CURVE SMOOTH",
"342 515 OFFCURVE",
"288 504 OFFCURVE",
"246 482 CURVE",
"246 665 LINE",
"50 650 LINE",
"50 0 LINE"
);
}
);
width = 595;
},
{
anchors = (
{
name = bottom;
position = "{284.5, 0}";
},
{
name = center;
position = "{136.5, 581.55}";
},
{
name = top;
position = "{136.5, 618}";
}
);
hints = (
{
horizontal = 1;
origin = "{0, 17}";
target = up;
type = BottomGhost;
},
{
horizontal = 1;
origin = "{0, 11}";
target = "{0, 4}";
type = Stem;
},
{
origin = "{0, 17}";
target = "{0, 0}";
type = Stem;
},
{
origin = "{0, 6}";
target = "{0, 7}";
type = Stem;
},
{
horizontal = 1;
origin = "{0, 17}";
target = up;
type = BottomGhost;
},
{
horizontal = 1;
origin = "{0, 11}";
target = down;
type = TopGhost;
}
);
layerId = "3D3F176D-2450-4887-9AC4-1237D1CC87EB";
paths = (
{
closed = 1;
nodes = (
"169 0 LINE",
"169 391.7 LINE SMOOTH",
"169 441.25 OFFCURVE",
"188.7 455.3 OFFCURVE",
"259.6 455.3 CURVE SMOOTH",
"405.35 455.3 LINE",
"405.35 0 LINE",
"470.35 0 LINE",
"470.35 433.75 LINE SMOOTH",
"470.35 484.15 OFFCURVE",
"423.8 508.25 OFFCURVE",
"331.15 508.25 CURVE SMOOTH",
"258.3 508.25 OFFCURVE",
"211.05 494.55 OFFCURVE",
"167.7 461.75 CURVE",
"167.7 665 LINE",
"104 659.45 LINE",
"104 0 LINE"
);
}
);
width = 569.35;
}
);
leftKerningGroup = h;
leftMetricsKey = n;
rightKerningGroup = n;
rightMetricsKey = n;
unicode = 0068;
},
{
glyphname = idotless;
layers = (
{
anchors = (
{
name = bottom;
position = "{150, 0}";
},
{
name = ogonek;
position = "{250, 0}";
},
{
name = top;
position = "{150, 500}";
}
);
layerId = "1124150E-252C-4727-BAB2-2837E441E30C";
paths = (
{
closed = 1;
nodes = (
"50 0 LINE",
"250 0 LINE",
"250 500 LINE",
"50 475 LINE"
);
}
);
width = 300;
},
{
anchors = (
{
name = bottom;
position = "{136.5, 0}";
},
{
name = ogonek;
position = "{169, 0}";
},
{
name = top;
position = "{136.5, 500}";
}
);
hints = (
{
horizontal = 1;
origin = "{0, 2}";
target = down;
type = TopGhost;
},
{
origin = "{0, 0}";
target = "{0, 1}";
type = Stem;
},
{
horizontal = 1;
origin = "{0, 0}";
target = up;
type = BottomGhost;
},
{
horizontal = 1;
origin = "{0, 0}";
target = up;
type = BottomGhost;
},
{
horizontal = 1;
origin = "{0, 2}";
target = down;
type = TopGhost;
}
);
layerId = "3D3F176D-2450-4887-9AC4-1237D1CC87EB";
paths = (
{
closed = 1;
nodes = (
"104 0 LINE",
"169 0 LINE",
"169 510.8 LINE",
"104 499.3 LINE"
);
}
);
width = 273;
}
);
leftKerningGroup = idotless;
rightKerningGroup = idotless;
unicode = 0131;
},
{
glyphname = j;
layers = (
{
background = {
paths = (
{
closed = 1;
nodes = (
"-50 -165 LINE",
"95 -165 LINE SMOOTH",
"195 -165 OFFCURVE",
"250 -108 OFFCURVE",
"250 0 CURVE SMOOTH",
"250 500 LINE",
"50 475 LINE",
"50 15 LINE SMOOTH",
"50 -13 OFFCURVE",
"28 -20 OFFCURVE",
"2 -25 CURVE SMOOTH",
"-50 -35 LINE"
);
}
);
};
components = (
{
name = jdotless;
},
{
name = dotaccentcomb;
transform = "{1, 0, 0, 1, 17, 0}";
}
);
layerId = "1124150E-252C-4727-BAB2-2837E441E30C";
width = 300;
},
{
components = (
{
name = jdotless;
},
{
name = dotaccentcomb;
transform = "{1, 0, 0, 1, 6.2, 0}";
}
);
hints = (
{
horizontal = 1;
place = "{-236.25, 93.15}";
type = Stem;
},
{
horizontal = 1;
place = "{685.8, -27}";
target = down;
type = TopGhost;
},
{
horizontal = 1;
place = "{776.25, 162}";
type = Stem;
},
{
place = "{121.5, 135}";
type = Stem;
},
{
place = "{106.65, 166.05}";
type = Stem;
},
{
place = "{121.5, 135}";
type = Stem;
}
);
layerId = "3D3F176D-2450-4887-9AC4-1237D1CC87EB";
width = 273;
}
);
leftKerningGroup = j;
rightKerningGroup = j;
unicode = 006A;
},
{
glyphname = jdotless;
layers = (
{
anchors = (
{
name = bottom;
position = "{150, 0}";
},
{
name = top;
position = "{150, 500}";
}
);
layerId = "1124150E-252C-4727-BAB2-2837E441E30C";
paths = (
{
closed = 1;
nodes = (
"197 -180 OFFCURVE",
"250 -127 OFFCURVE",
"250 -11 CURVE SMOOTH",
"250 500 LINE",
"50 475 LINE",
"50 25 LINE SMOOTH",
"50 -25 OFFCURVE",
"31 -39 OFFCURVE",
"-40 -39 CURVE",
"-49 -164 LINE",
"-11 -174 OFFCURVE",
"39 -180 OFFCURVE",
"81 -180 CURVE SMOOTH"
);
}
);
width = 300;
},
{
anchors = (
{
name = bottom;
position = "{136.5, 0}";
},
{
name = top;
position = "{136.5, 500}";
}
);
hints = (
{
horizontal = 1;
origin = "{0, 12}";
target = "{0, 8}";
type = Stem;
},
{
origin = "{0, 5}";
target = "{0, 2}";
type = Stem;
},
{
horizontal = 1;
origin = "{0, 12}";
target = up;
type = BottomGhost;
},
{
horizontal = 1;
origin = "{0, 3}";
target = down;
type = TopGhost;
}
);
layerId = "3D3F176D-2450-4887-9AC4-1237D1CC87EB";
paths = (
{
closed = 1;
nodes = (
"134.9 -173.25 OFFCURVE",
"169 -141.85 OFFCURVE",
"169 -77.15 CURVE SMOOTH",
"169 510.8 LINE",
"104 499.3 LINE",
"104 -69.5 LINE SMOOTH",
"104 -122.2 OFFCURVE",
"90.4 -129.45 OFFCURVE",
"7.25 -129.45 CURVE",
"2.3 -164 LINE",
"17.35 -169.95 OFFCURVE",
"40.35 -173.25 OFFCURVE",
"60.75 -173.25 CURVE SMOOTH"
);
}
);
width = 273;
}
);
leftKerningGroup = jdotless;
rightKerningGroup = jdotless;
unicode = 0237;
},
{
glyphname = k;
layers = (
{
anchors = (
{
name = bottom;
position = "{288, 0}";
},
{
name = top;
position = "{288, 500}";
}
);
layerId = "1124150E-252C-4727-BAB2-2837E441E30C";
paths = (
{
closed = 1;
nodes = (
"361 0 LINE",
"570 0 LINE",
"449 262 LINE",
"565 500 LINE",
"354 500 LINE",
"282 326 LINE",
"250 326 LINE",
"250 665 LINE",
"50 650 LINE",
"50 0 LINE",
"250 0 LINE",
"250 207 LINE",
"284 207 LINE"
);
}
);
width = 575;
},
{
anchors = (
{
name = bottom;
position = "{261, 0}";
},
{
name = top;
position = "{261, 500}";
}
);
hints = (
{
horizontal = 1;
origin = "{0, 9}";
target = up;
type = BottomGhost;
},
{
horizontal = 1;
origin = "{0, 11}";
target = "{0, 6}";
type = Stem;
},
{
origin = "{0, 9}";
target = "{0, 10}";
type = Stem;
},
{
horizontal = 1;
origin = "{0, 7}";
target = down;
type = TopGhost;
},
{
horizontal = 1;
origin = "{0, 4}";
target = down;
type = TopGhost;
}
);
layerId = "3D3F176D-2450-4887-9AC4-1237D1CC87EB";
paths = (
{
closed = 1;
nodes = (
"389.35 0 LINE",
"455.25 0 LINE",
"318.05 268.75 LINE",
"450.25 500 LINE",
"382.35 500 LINE",
"264.45 293.6 LINE",
"169 293.6 LINE",
"169 665 LINE",
"104 650 LINE",
"104 0 LINE",
"169 0 LINE",
"169 240.75 LINE",
"263.75 240.75 LINE"
);
}
);
width = 467;
}
);
leftKerningGroup = h;
leftMetricsKey = n;
rightKerningGroup = k;
unicode = 006B;
},
{
glyphname = kgreenlandic;
layers = (
{
anchors = (
{
name = bottom;
position = "{300, 0}";
},
{
name = top;
position = "{300, 500}";
}
);
layerId = "1124150E-252C-4727-BAB2-2837E441E30C";
paths = (
{
closed = 1;
nodes = (
"366 0 LINE",
"575 0 LINE",
"454 250 LINE",
"570 500 LINE",
"359 500 LINE",
"287 314 LINE",
"250 314 LINE",
"250 500 LINE",
"50 500 LINE",
"50 0 LINE",
"250 0 LINE",
"250 195 LINE",
"289 195 LINE"
);
}
);
width = 580;
},
{
anchors = (
{
name = bottom;
position = "{266.25, 0}";
},
{
name = top;
position = "{266.25, 500}";
}
);
hints = (
{
horizontal = 1;
origin = "{0, 11}";
target = "{0, 6}";
type = Stem;
},
{
origin = "{0, 9}";
target = "{0, 10}";
type = Stem;
},
{
horizontal = 1;
origin = "{0, 9}";
target = up;
type = BottomGhost;
},
{
horizontal = 1;
origin = "{0, 8}";
target = down;
type = TopGhost;
}
);
layerId = "3D3F176D-2450-4887-9AC4-1237D1CC87EB";
paths = (
{
closed = 1;
nodes = (
"407.85 0 LINE",
"473.75 0 LINE",
"336.55 250 LINE",
"468.75 500 LINE",
"400.85 500 LINE",
"282.95 274.85 LINE",
"169 274.85 LINE",
"169 500 LINE",
"104 500 LINE",
"104 0 LINE",
"169 0 LINE",
"169 222 LINE",
"282.25 222 LINE"
);
}
);
width = 485.5;
}
);
leftKerningGroup = h;
leftMetricsKey = n;
rightKerningGroup = k;
unicode = 0138;
},
{
glyphname = l;
layers = (
{
anchors = (
{
name = bottom;
position = "{150, 0}";
},
{
name = center;
position = "{150, 330}";
},
{
name = top;
position = "{150, 645}";
},
{
name = topright;
position = "{250, 500}";
}
);
layerId = "1124150E-252C-4727-BAB2-2837E441E30C";
paths = (
{
closed = 1;
nodes = (
"250 665 LINE",
"50 650 LINE",
"50 94 LINE SMOOTH",
"50 19 OFFCURVE",
"91 -15 OFFCURVE",
"179 -15 CURVE SMOOTH",
"212 -15 OFFCURVE",
"250 -9 OFFCURVE",
"290 1 CURVE",
"299 136 LINE",
"286 137 OFFCURVE",
"270 139 OFFCURVE",
"250 143 CURVE"
);
}
);
width = 309;
},
{
anchors = (
{
name = bottom;
position = "{129.75, 0}";
},
{
name = center;
position = "{129.75, 330}";
},
{
name = top;
position = "{129.75, 618}";
},
{
name = topright;
position = "{162.25, 500}";
}
);
hints = (
{
origin = "{0, 2}";
target = "{0, 12}";
type = Stem;
},
{
horizontal = 1;
origin = "{0, 5}";
target = "{0, 9}";
type = Stem;
},
{
horizontal = 1;
origin = "{0, 5}";
target = up;
type = BottomGhost;
},
{
horizontal = 1;
origin = "{0, 0}";
target = down;
type = TopGhost;
}
);
layerId = "3D3F176D-2450-4887-9AC4-1237D1CC87EB";
paths = (
{
closed = 1;
nodes = (
"162.25 665 LINE",
"97.25 650 LINE",
"97.25 54.85 LINE SMOOTH",
"97.25 12.25 OFFCURVE",
"115.3 -8.25 OFFCURVE",
"152 -8.25 CURVE SMOOTH",
"167.45 -8.25 OFFCURVE",
"179.8 -6.3 OFFCURVE",
"202.25 1 CURVE",
"207.2 45.55 LINE",
"190.15 46.55 OFFCURVE",
"171.45 48.55 OFFCURVE",
"162.25 49.85 CURVE"
);
}
);
width = 257.7;
}
);
leftKerningGroup = h;
rightKerningGroup = l;
unicode = 006C;
},
{
glyphname = m;
layers = (
{
background = {
paths = (
{
closed = 1;
nodes = (
"330 350 LINE",
"330 0 LINE",
"530 0 LINE",
"530 310 LINE",
"532 348 OFFCURVE",
"561 350 OFFCURVE",
"596 350 CURVE SMOOTH",
"610 350 LINE",
"610 0 LINE",
"810 0 LINE",
"810 400 LINE SMOOTH",
"810 472 OFFCURVE",
"747 515 OFFCURVE",
"640 515 CURVE SMOOTH",
"583 515 OFFCURVE",
"535 499 OFFCURVE",
"498 474 CURVE",
"470 500 OFFCURVE",
"422 515 OFFCURVE",
"360 515 CURVE SMOOTH",
"290 515 OFFCURVE",
"232 491 OFFCURVE",
"195 454 CURVE",
"150 500 LINE",
"50 500 LINE",
"50 0 LINE",
"250 0 LINE",
"250 304 LINE SMOOTH",
"250 348 OFFCURVE",
"279 350 OFFCURVE",
"316 350 CURVE SMOOTH"
);
}
);
};
layerId = "1124150E-252C-4727-BAB2-2837E441E30C";
paths = (
{
closed = 1;
nodes = (
"250 0 LINE",
"250 322 LINE SMOOTH",
"250 342 OFFCURVE",
"261 350 OFFCURVE",
"289 350 CURVE SMOOTH",
"340 350 LINE",
"340 0 LINE",
"540 0 LINE",
"540 400 LINE SMOOTH",
"540 472 OFFCURVE",
"484 515 OFFCURVE",
"390 515 CURVE SMOOTH",
"324 515 OFFCURVE",
"258 492 OFFCURVE",
"200 450 CURVE",
"150 500 LINE",
"50 500 LINE",
"50 0 LINE"
);
},
{
closed = 1;
nodes = (
"540 0 LINE",
"540 322 LINE SMOOTH",
"540 342 OFFCURVE",
"551 350 OFFCURVE",
"579 350 CURVE SMOOTH",
"630 350 LINE",
"630 0 LINE",
"830 0 LINE",
"830 400 LINE SMOOTH",
"830 472 OFFCURVE",
"774 515 OFFCURVE",
"680 515 CURVE SMOOTH",
"614 515 OFFCURVE",
"548 492 OFFCURVE",
"490 450 CURVE",
"340 500 LINE",
"340 0 LINE"
);
}
);
width = 875;
},
{
hints = (
{
horizontal = 1;
origin = "{0, 17}";
target = up;
type = BottomGhost;
},
{
horizontal = 1;
origin = "{0, 11}";
target = "{0, 4}";
type = Stem;
},
{
horizontal = 1;
origin = "{0, 16}";
target = down;
type = TopGhost;
},
{
origin = "{0, 17}";
target = "{0, 0}";
type = Stem;
},
{
origin = "{0, 6}";
target = "{0, 7}";
type = Stem;
},
{
origin = "{1, 6}";
target = "{1, 7}";
type = Stem;
}
);
layerId = "3D3F176D-2450-4887-9AC4-1237D1CC87EB";
paths = (
{
closed = 1;
nodes = (
"169 0 LINE",
"169 386.8 LINE SMOOTH",
"169 440.55 OFFCURVE",
"190.8 455.3 OFFCURVE",
"270.1 455.3 CURVE SMOOTH",
"395.35 455.3 LINE",
"395.35 0 LINE",
"460.35 0 LINE",
"460.35 433.75 LINE SMOOTH",
"460.35 484.15 OFFCURVE",
"413.8 508.25 OFFCURVE",
"321.15 508.25 CURVE SMOOTH",
"245.7 508.25 OFFCURVE",
"194.55 490.65 OFFCURVE",
"150.05 450 CURVE",
"131.1 500 LINE",
"104 500 LINE",
"104 0 LINE"
);
},
{
closed = 1;
nodes = (
"459 0 LINE",
"459 386.8 LINE SMOOTH",
"459 440.55 OFFCURVE",
"480.8 455.3 OFFCURVE",
"560.1 455.3 CURVE SMOOTH",
"685.35 455.3 LINE",
"685.35 0 LINE",
"750.35 0 LINE",
"750.35 433.75 LINE SMOOTH",
"750.35 484.15 OFFCURVE",
"703.8 508.25 OFFCURVE",
"611.15 508.25 CURVE SMOOTH",
"535.7 508.25 OFFCURVE",
"484.55 490.65 OFFCURVE",
"440.05 450 CURVE",
"395.35 500 LINE",
"395.35 0 LINE"
);
}
);
width = 849.35;
}
);
leftKerningGroup = n;
leftMetricsKey = n;
rightKerningGroup = n;
rightMetricsKey = n;
unicode = 006D;
},
{
glyphname = n;
layers = (
{
anchors = (
{
name = bottom;
position = "{298, 0}";
},
{
name = top;
position = "{308, 500}";
}
);
layerId = "1124150E-252C-4727-BAB2-2837E441E30C";
paths = (
{
closed = 1;
nodes = (
"250 0 LINE",
"250 322 LINE SMOOTH",
"250 342 OFFCURVE",
"261 350 OFFCURVE",
"289 350 CURVE SMOOTH",
"350 350 LINE",
"350 0 LINE",
"550 0 LINE",
"550 400 LINE SMOOTH",
"550 472 OFFCURVE",
"494 515 OFFCURVE",
"400 515 CURVE SMOOTH",
"327 515 OFFCURVE",
"258 493 OFFCURVE",
"200 450 CURVE",
"150 500 LINE",
"50 500 LINE",
"50 0 LINE"
);
}
);
width = 595;
},
{
anchors = (
{
name = bottom;
position = "{284.5, 0}";
},
{
name = top;
position = "{294.5, 500}";
}
);
hints = (
{
horizontal = 1;
origin = "{0, 11}";
target = "{0, 4}";
type = Stem;
},
{
horizontal = 1;
origin = "{0, 16}";
target = down;
type = TopGhost;
},
{
origin = "{0, 17}";
target = "{0, 0}";
type = Stem;
},
{
origin = "{0, 6}";
target = "{0, 7}";
type = Stem;
},
{
horizontal = 1;
origin = "{0, 17}";
target = up;
type = BottomGhost;
}
);
layerId = "3D3F176D-2450-4887-9AC4-1237D1CC87EB";
paths = (
{
closed = 1;
nodes = (
"169 0 LINE",
"169 386.8 LINE SMOOTH",
"169 440.55 OFFCURVE",
"190.8 455.3 OFFCURVE",
"270.1 455.3 CURVE SMOOTH",
"405.35 455.3 LINE",
"405.35 0 LINE",
"470.35 0 LINE",
"470.35 433.75 LINE SMOOTH",
"470.35 484.15 OFFCURVE",
"423.8 508.25 OFFCURVE",
"331.15 508.25 CURVE SMOOTH",
"251.4 508.25 OFFCURVE",
"197.25 490.3 OFFCURVE",
"150.05 450 CURVE",
"131.1 500 LINE",
"104 500 LINE",
"104 0 LINE"
);
}
);
width = 569.35;
}
);
leftKerningGroup = n;
rightKerningGroup = n;
unicode = 006E;
},
{
glyphname = eng;
layers = (
{
components = (
{
name = n;
}
);
layerId = "1124150E-252C-4727-BAB2-2837E441E30C";
paths = (
{
closed = 1;
nodes = (
"497 -180 OFFCURVE",
"550 -127 OFFCURVE",
"550 -11 CURVE SMOOTH",
"550 50 LINE",
"350 50 LINE",
"350 0 LINE SMOOTH",
"350 -50 OFFCURVE",
"331 -64 OFFCURVE",
"260 -64 CURVE",
"251 -164 LINE",
"291 -174 OFFCURVE",
"341 -180 OFFCURVE",
"381 -180 CURVE SMOOTH"
);
}
);
width = 595;
},
{
components = (
{
alignment = -1;
name = n;
}
);
hints = (
{
horizontal = 1;
origin = "{0, 12}";
target = "{0, 8}";
type = Stem;
},
{
origin = "{0, 5}";
target = "{0, 2}";
type = Stem;
},
{
horizontal = 1;
origin = "{0, 12}";
target = up;
type = BottomGhost;
}
);
layerId = "3D3F176D-2450-4887-9AC4-1237D1CC87EB";
paths = (
{
closed = 1;
nodes = (
"436.25 -173.25 OFFCURVE",
"470.35 -141.85 OFFCURVE",
"470.35 -77.15 CURVE SMOOTH",
"470.35 23 LINE",
"405.35 23 LINE",
"405.35 -74.25 LINE SMOOTH",
"405.35 -125.6 OFFCURVE",
"393.1 -132.85 OFFCURVE",
"308.6 -134.2 CURVE",
"303.65 -164 LINE",
"320.7 -169.95 OFFCURVE",
"343.7 -173.25 OFFCURVE",
"362.1 -173.25 CURVE SMOOTH"
);
}
);
width = 569.35;
}
);
leftKerningGroup = n;
leftMetricsKey = n;
rightKerningGroup = n;
rightMetricsKey = n;
unicode = 014B;
},
{
glyphname = o;
layers = (
{
anchors = (
{
name = bottom;
position = "{295, 0}";
},
{
name = center;
position = "{295, 250}";
},
{
name = ogonek;
position = "{412, 0}";
},
{
name = top;
position = "{295, 500}";
},
{
name = topright;
position = "{570, 500}";
}
);
layerId = "1124150E-252C-4727-BAB2-2837E441E30C";
paths = (
{
closed = 1;
nodes = (
"478 -15 OFFCURVE",
"560 68 OFFCURVE",
"560 250 CURVE SMOOTH",
"560 433 OFFCURVE",
"478 515 OFFCURVE",
"295 515 CURVE SMOOTH",
"113 515 OFFCURVE",
"30 433 OFFCURVE",
"30 250 CURVE SMOOTH",
"30 68 OFFCURVE",
"113 -15 OFFCURVE",
"295 -15 CURVE SMOOTH"
);
},
{
closed = 1;
nodes = (
"245 337 LINE SMOOTH",
"245 358 OFFCURVE",
"254 365 OFFCURVE",
"284 365 CURVE SMOOTH",
"345 365 LINE",
"345 163 LINE SMOOTH",
"345 142 OFFCURVE",
"336 135 OFFCURVE",
"306 135 CURVE SMOOTH",
"245 135 LINE"
);
}
);
width = 590;
},
{
anchors = (
{
name = bottom;
position = "{270.7, 0}";
},
{
name = center;
position = "{270.7, 250}";
},
{
name = ogonek;
position = "{368.8, 0}";
},
{
name = top;
position = "{270.7, 500}";
},
{
name = topright;
position = "{536.25, 500}";
}
);
hints = (
{
horizontal = 1;
origin = "{0, 11}";
target = "{1, 9}";
type = Stem;
},
{
horizontal = 1;
origin = "{0, 5}";
target = "{1, 3}";
type = Stem;
},
{
origin = "{0, 8}";
target = "{1, 9}";
type = Stem;
},
{
origin = "{1, 5}";
target = "{0, 2}";
type = Stem;
},
{
horizontal = 1;
origin = "{0, 11}";
target = up;
type = BottomGhost;
},
{
horizontal = 1;
origin = "{0, 5}";
target = down;
type = TopGhost;
}
);
layerId = "3D3F176D-2450-4887-9AC4-1237D1CC87EB";
paths = (
{
closed = 1;
nodes = (
"441.55 -8.25 OFFCURVE",
"470.9 31.55 OFFCURVE",
"470.9 250 CURVE SMOOTH",
"470.9 469.45 OFFCURVE",
"444.25 508.25 OFFCURVE",
"270.7 508.25 CURVE SMOOTH",
"99.5 508.25 OFFCURVE",
"70.5 468.1 OFFCURVE",
"70.5 250 CURVE SMOOTH",
"70.5 31.55 OFFCURVE",
"99.5 -8.25 OFFCURVE",
"270.7 -8.25 CURVE SMOOTH"
);
},
{
closed = 1;
nodes = (
"135.65 426.1 LINE SMOOTH",
"135.65 445.75 OFFCURVE",
"146 450.05 OFFCURVE",
"186.8 450.05 CURVE SMOOTH",
"405.75 450.05 LINE",
"405.75 73.9 LINE SMOOTH",
"405.75 54.25 OFFCURVE",
"395.4 49.95 OFFCURVE",
"354.6 49.95 CURVE SMOOTH",
"135.65 49.95 LINE"
);
}
);
width = 541.4;
}
);
leftKerningGroup = o;
rightKerningGroup = o;
unicode = 006F;
},
{
glyphname = oslash;
layers = (
{
anchors = (
{
name = bottom;
position = "{295, 0}";
},
{
name = top;
position = "{295, 500}";
}
);
components = (
{
name = o;
},
{
name = slashlongcomb;
transform = "{1, 0, 0, 1, 93, -63}";
}
);
layerId = "1124150E-252C-4727-BAB2-2837E441E30C";
width = 590;
},
{
anchors = (
{
name = _center;
position = "{295, 250}";
},
{
name = bottom;
position = "{295, 0}";
},
{
name = top;
position = "{295, 500}";
}
);
associatedMasterId = "1124150E-252C-4727-BAB2-2837E441E30C";
background = {
paths = (
{
closed = 1;
nodes = (
"336 250 LINE",
"497 602 LINE",
"446 602 LINE SMOOTH",
"423 602 OFFCURVE",
"412 597 OFFCURVE",
"403 577 CURVE SMOOTH",
"254 249 LINE"
);
}
);
};
components = (
{
name = o;
}
);
layerId = "26902533-ACF5-4B29-8B38-126C2BE93808";
name = "Bold [140]";
paths = (
{
closed = 1;
nodes = (
"172 68 LINE",
"93 -103 LINE",
"144 -103 LINE SMOOTH",
"167 -103 OFFCURVE",
"177 -100 OFFCURVE",
"187 -78 CURVE SMOOTH",
"254 69 LINE"
);
},
{
closed = 1;
nodes = (
"418 431 LINE",
"497 602 LINE",
"446 602 LINE SMOOTH",
"423 602 OFFCURVE",
"413 599 OFFCURVE",
"403 577 CURVE SMOOTH",
"336 430 LINE"
);
}
);
visible = 1;
width = 590;
},
{
anchors = (
{
name = bottom;
position = "{270.7, 0}";
},
{
name = top;
position = "{270.7, 500}";
}
);
components = (
{
name = o;
},
{
name = slashlongcomb;
transform = "{1, 0, 0, 1, 69, -63}";
}
);
layerId = "3D3F176D-2450-4887-9AC4-1237D1CC87EB";
width = 541;
}
);
leftKerningGroup = o;
rightKerningGroup = o;
unicode = 00F8;
},
{
glyphname = oe;
layers = (
{
anchors = (
{
name = bottom;
position = "{443, 0}";
},
{
name = top;
position = "{443, 500}";
}
);
layerId = "1124150E-252C-4727-BAB2-2837E441E30C";
paths = (
{
closed = 1;
nodes = (
"464 -15 OFFCURVE",
"540 68 OFFCURVE",
"540 250 CURVE SMOOTH",
"540 433 OFFCURVE",
"464 515 OFFCURVE",
"295 515 CURVE SMOOTH",
"113 515 OFFCURVE",
"30 433 OFFCURVE",
"30 250 CURVE SMOOTH",
"30 68 OFFCURVE",
"113 -15 OFFCURVE",
"295 -15 CURVE SMOOTH"
);
},
{
closed = 1;
nodes = (
"245 337 LINE SMOOTH",
"245 358 OFFCURVE",
"254 365 OFFCURVE",
"284 365 CURVE SMOOTH",
"345 365 LINE",
"345 163 LINE SMOOTH",
"345 142 OFFCURVE",
"336 135 OFFCURVE",
"306 135 CURVE SMOOTH",
"245 135 LINE"
);
},
{
closed = 1;
nodes = (
"686 -15 OFFCURVE",
"760 -4 OFFCURVE",
"832 19 CURVE",
"808 157 LINE",
"748 140 OFFCURVE",
"689 131 OFFCURVE",
"630 131 CURVE SMOOTH",
"601 131 OFFCURVE",
"578 132 OFFCURVE",
"560 135 CURVE",
"560 332 LINE SMOOTH",
"560 361 OFFCURVE",
"577 370 OFFCURVE",
"629 370 CURVE SMOOTH",
"665 370 LINE",
"665 322 LINE SMOOTH",
"665 290 OFFCURVE",
"648 280 OFFCURVE",
"596 280 CURVE SMOOTH",
"530 280 LINE",
"530 180 LINE",
"560 180 LINE SMOOTH",
"769 180 OFFCURVE",
"845 224 OFFCURVE",
"845 345 CURVE SMOOTH",
"845 475 OFFCURVE",
"790 515 OFFCURVE",
"610 515 CURVE SMOOTH",
"441 515 OFFCURVE",
"365 433 OFFCURVE",
"365 250 CURVE SMOOTH",
"365 67 OFFCURVE",
"441 -15 OFFCURVE",
"610 -15 CURVE"
);
}
);
width = 885;
},
{
anchors = (
{
name = bottom;
position = "{437.6, 0}";
},
{
name = top;
position = "{437.6, 500}";
}
);
hints = (
{
horizontal = 1;
origin = "{2, 20}";
target = "{2, 19}";
type = Stem;
},
{
horizontal = 1;
origin = "{2, 27}";
target = "{2, 13}";
type = Stem;
},
{
horizontal = 1;
origin = "{2, 33}";
target = "{2, 6}";
type = Stem;
},
{
place = "{87.75, 141.75}";
type = Stem;
},
{
origin = "{2, 15}";
target = "{2, 24}";
type = Stem;
},
{
origin = "{2, 30}";
target = "{2, 9}";
type = Stem;
},
{
horizontal = 1;
origin = "{0, 11}";
target = up;
type = BottomGhost;
},
{
horizontal = 1;
origin = "{0, 5}";
target = down;
type = TopGhost;
}
);
layerId = "3D3F176D-2450-4887-9AC4-1237D1CC87EB";
paths = (
{
closed = 1;
nodes = (
"435.65 -8.25 OFFCURVE",
"464.4 31.55 OFFCURVE",
"464.4 250 CURVE SMOOTH",
"464.4 470.8 OFFCURVE",
"438.35 508.25 OFFCURVE",
"270.7 508.25 CURVE SMOOTH",
"99.5 508.25 OFFCURVE",
"70.5 468.1 OFFCURVE",
"70.5 250 CURVE SMOOTH",
"70.5 31.55 OFFCURVE",
"99.5 -8.25 OFFCURVE",
"270.7 -8.25 CURVE SMOOTH"
);
},
{
closed = 1;
nodes = (
"135.65 426.1 LINE SMOOTH",
"135.65 445.75 OFFCURVE",
"146 450.05 OFFCURVE",
"186.8 450.05 CURVE SMOOTH",
"405.75 450.05 LINE",
"405.75 73.9 LINE SMOOTH",
"405.75 54.25 OFFCURVE",
"395.4 49.95 OFFCURVE",
"354.6 49.95 CURVE SMOOTH",
"135.65 49.95 LINE"
);
},
{
closed = 1;
nodes = (
"646.85 -8.25 OFFCURVE",
"724.9 2.75 OFFCURVE",
"769.9 20.35 CURVE",
"760.75 70.6 LINE",
"683.2 52.25 OFFCURVE",
"640.4 47.3 OFFCURVE",
"589.5 47.3 CURVE SMOOTH",
"538.9 47.3 OFFCURVE",
"505.1 51 OFFCURVE",
"469.55 60.75 CURVE",
"469.55 383.3 LINE SMOOTH",
"469.55 433.9 OFFCURVE",
"489.25 448.3 OFFCURVE",
"557.45 448.3 CURVE SMOOTH",
"724.4 448.3 LINE",
"724.4 324.7 LINE SMOOTH",
"724.4 275.15 OFFCURVE",
"704.7 261.1 OFFCURVE",
"635.15 261.1 CURVE SMOOTH",
"439.55 261.1 LINE",
"439.55 208.35 LINE",
"469.55 208.35 LINE SMOOTH",
"758.2 208.35 OFFCURVE",
"782.9 219.95 OFFCURVE",
"782.9 365.25 CURVE SMOOTH",
"782.9 479.05 OFFCURVE",
"745.45 508.25 OFFCURVE",
"595.15 508.25 CURVE SMOOTH",
"446.4 508.25 OFFCURVE",
"409.55 454.6 OFFCURVE",
"409.55 250 CURVE SMOOTH",
"409.55 38.65 OFFCURVE",
"435.6 -8.25 OFFCURVE",
"572.2 -8.25 CURVE SMOOTH"
);
}
);
width = 863.4;
}
);
leftKerningGroup = o;
leftMetricsKey = o;
rightKerningGroup = e;
rightMetricsKey = e;
unicode = 0153;
},
{
glyphname = p;
layers = (
{
layerId = "1124150E-252C-4727-BAB2-2837E441E30C";
paths = (
{
closed = 1;
nodes = (
"499 -15 OFFCURVE",
"565 66 OFFCURVE",
"565 250 CURVE SMOOTH",
"565 434 OFFCURVE",
"499 515 OFFCURVE",
"350 515 CURVE SMOOTH",
"202 515 OFFCURVE",
"135 432 OFFCURVE",
"135 250 CURVE SMOOTH",
"135 68 OFFCURVE",
"202 -15 OFFCURVE",
"350 -15 CURVE SMOOTH"
);
},
{
closed = 1;
nodes = (
"250 337 LINE SMOOTH",
"250 358 OFFCURVE",
"259 365 OFFCURVE",
"289 365 CURVE SMOOTH",
"350 365 LINE",
"350 163 LINE SMOOTH",
"350 142 OFFCURVE",
"341 135 OFFCURVE",
"311 135 CURVE SMOOTH",
"250 135 LINE"
);
},
{
closed = 1;
nodes = (
"250 -150 LINE",
"250 365 LINE",
"150 500 LINE",
"50 500 LINE",
"50 -165 LINE"
);
}
);
width = 595;
},
{
hints = (
{
horizontal = 1;
origin = "{0, 11}";
target = "{1, 9}";
type = Stem;
},
{
horizontal = 1;
origin = "{0, 5}";
target = "{1, 3}";
type = Stem;
},
{
horizontal = 1;
origin = "{0, 5}";
target = down;
type = TopGhost;
},
{
origin = "{2, 4}";
target = "{2, 0}";
type = Stem;
},
{
origin = "{1, 5}";
target = "{0, 2}";
type = Stem;
},
{
horizontal = 1;
origin = "{2, 4}";
target = up;
type = BottomGhost;
},
{
horizontal = 1;
origin = "{0, 11}";
target = up;
type = BottomGhost;
}
);
layerId = "3D3F176D-2450-4887-9AC4-1237D1CC87EB";
paths = (
{
closed = 1;
nodes = (
"463.9 -15 OFFCURVE",
"489.4 28.2 OFFCURVE",
"489.4 250 CURVE SMOOTH",
"489.4 469.1 OFFCURVE",
"466.6 508.25 OFFCURVE",
"321.65 508.25 CURVE SMOOTH",
"141.25 508.25 OFFCURVE",
"121.5 483.3 OFFCURVE",
"121.5 250 CURVE SMOOTH",
"121.5 12.65 OFFCURVE",
"141.25 -15 OFFCURVE",
"321.65 -15 CURVE SMOOTH"
);
},
{
closed = 1;
nodes = (
"169 432.85 LINE SMOOTH",
"169 445.75 OFFCURVE",
"180.7 450.05 OFFCURVE",
"217.45 450.05 CURVE SMOOTH",
"422.9 450.05 LINE",
"422.9 67.15 LINE SMOOTH",
"422.9 47.5 OFFCURVE",
"412.55 43.2 OFFCURVE",
"374.45 43.2 CURVE SMOOTH",
"169 43.2 LINE"
);
},
{
closed = 1;
nodes = (
"169 -170.25 LINE",
"169 412.25 LINE",
"131.1 500 LINE",
"104 500 LINE",
"104 -181.2 LINE"
);
}
);
width = 559.9;
}
);
leftKerningGroup = p;
leftMetricsKey = n;
rightKerningGroup = o;
rightMetricsKey = o;
unicode = 0070;
},
{
glyphname = thorn;
layers = (
{
background = {
paths = (
{
closed = 0;
nodes = (
"250 665 LINE",
"50 650 LINE"
);
}
);
};
layerId = "1124150E-252C-4727-BAB2-2837E441E30C";
paths = (
{
closed = 1;
nodes = (
"499 -15 OFFCURVE",
"565 66 OFFCURVE",
"565 250 CURVE SMOOTH",
"565 434 OFFCURVE",
"499 515 OFFCURVE",
"350 515 CURVE SMOOTH",
"202 515 OFFCURVE",
"135 432 OFFCURVE",
"135 250 CURVE SMOOTH",
"135 68 OFFCURVE",
"202 -15 OFFCURVE",
"350 -15 CURVE SMOOTH"
);
},
{
closed = 1;
nodes = (
"250 337 LINE SMOOTH",
"250 358 OFFCURVE",
"259 365 OFFCURVE",
"289 365 CURVE SMOOTH",
"350 365 LINE",
"350 163 LINE SMOOTH",
"350 142 OFFCURVE",
"341 135 OFFCURVE",
"311 135 CURVE SMOOTH",
"250 135 LINE"
);
},
{
closed = 1;
nodes = (
"250 -150 LINE",
"250 665 LINE",
"50 650 LINE",
"50 -165 LINE"
);
}
);
width = 595;
},
{
hints = (
{
horizontal = 1;
origin = "{0, 11}";
target = "{1, 9}";
type = Stem;
},
{
horizontal = 1;
origin = "{0, 5}";
target = "{1, 3}";
type = Stem;
},
{
horizontal = 1;
place = "{877.5, -27}";
target = down;
type = TopGhost;
},
{
origin = "{2, 3}";
target = "{2, 0}";
type = Stem;
},
{
origin = "{1, 5}";
target = "{0, 2}";
type = Stem;
},
{
horizontal = 1;
origin = "{0, 11}";
target = up;
type = BottomGhost;
},
{
horizontal = 1;
origin = "{0, 5}";
target = down;
type = TopGhost;
}
);
layerId = "3D3F176D-2450-4887-9AC4-1237D1CC87EB";
paths = (
{
closed = 1;
nodes = (
"463.9 -15 OFFCURVE",
"489.4 28.2 OFFCURVE",
"489.4 250 CURVE SMOOTH",
"489.4 469.1 OFFCURVE",
"466.6 508.25 OFFCURVE",
"321.65 508.25 CURVE SMOOTH",
"141.25 508.25 OFFCURVE",
"121.5 483.3 OFFCURVE",
"121.5 250 CURVE SMOOTH",
"121.5 12.65 OFFCURVE",
"141.25 -15 OFFCURVE",
"321.65 -15 CURVE SMOOTH"
);
},
{
closed = 1;
nodes = (
"169 432.85 LINE SMOOTH",
"169 445.75 OFFCURVE",
"180.7 450.05 OFFCURVE",
"217.45 450.05 CURVE SMOOTH",
"422.9 450.05 LINE",
"422.9 67.15 LINE SMOOTH",
"422.9 47.5 OFFCURVE",
"412.55 43.2 OFFCURVE",
"374.45 43.2 CURVE SMOOTH",
"169 43.2 LINE"
);
},
{
closed = 1;
nodes = (
"169 -170.25 LINE",
"169 665 LINE",
"104 650 LINE",
"104 -181.2 LINE"
);
}
);
width = 559.9;
}
);
leftKerningGroup = p;
leftMetricsKey = n;
rightKerningGroup = o;
rightMetricsKey = o;
unicode = 00FE;
},
{
glyphname = q;
layers = (
{
background = {
paths = (
{
closed = 1;
nodes = (
"440 500 LINE",
"412 472 LINE",
"368 501 OFFCURVE",
"319 515 OFFCURVE",
"260 515 CURVE SMOOTH",
"89 515 OFFCURVE",
"25 400 OFFCURVE",
"25 250 CURVE SMOOTH",
"25 129 OFFCURVE",
"69 -15 OFFCURVE",
"240 -15 CURVE SMOOTH",
"281 -15 OFFCURVE",
"314 -10 OFFCURVE",
"340 0 CURVE",
"340 -165 LINE",
"540 -151 LINE",
"540 500 LINE"
);
},
{
closed = 1;
nodes = (
"240 327 LINE SMOOTH",
"240 366 OFFCURVE",
"269 369 OFFCURVE",
"309 369 CURVE SMOOTH",
"340 369 LINE",
"340 173 LINE SMOOTH",
"340 134 OFFCURVE",
"311 131 OFFCURVE",
"271 131 CURVE SMOOTH",
"240 131 LINE"
);
}
);
};
layerId = "1124150E-252C-4727-BAB2-2837E441E30C";
paths = (
{
closed = 1;
nodes = (
"393 -15 OFFCURVE",
"460 68 OFFCURVE",
"460 250 CURVE SMOOTH",
"460 432 OFFCURVE",
"393 515 OFFCURVE",
"245 515 CURVE SMOOTH",
"96 515 OFFCURVE",
"30 434 OFFCURVE",
"30 250 CURVE SMOOTH",
"30 66 OFFCURVE",
"96 -15 OFFCURVE",
"245 -15 CURVE SMOOTH"
);
},
{
closed = 1;
nodes = (
"245 337 LINE SMOOTH",
"245 358 OFFCURVE",
"254 365 OFFCURVE",
"284 365 CURVE SMOOTH",
"345 365 LINE",
"345 163 LINE SMOOTH",
"345 142 OFFCURVE",
"336 135 OFFCURVE",
"306 135 CURVE SMOOTH",
"245 135 LINE"
);
},
{
closed = 1;
nodes = (
"545 500 LINE",
"445 500 LINE",
"345 365 LINE",
"345 -165 LINE",
"545 -150 LINE"
);
}
);
width = 595;
},
{
hints = (
{
horizontal = 1;
origin = "{0, 11}";
target = "{1, 9}";
type = Stem;
},
{
horizontal = 1;
origin = "{0, 5}";
target = "{1, 3}";
type = Stem;
},
{
horizontal = 1;
origin = "{0, 5}";
target = "{1, 3}";
type = Stem;
},
{
origin = "{0, 8}";
target = "{1, 9}";
type = Stem;
},
{
origin = "{2, 3}";
target = "{2, 4}";
type = Stem;
},
{
horizontal = 1;
origin = "{0, 11}";
target = up;
type = BottomGhost;
},
{
horizontal = 1;
origin = "{0, 5}";
target = down;
type = TopGhost;
}
);
layerId = "3D3F176D-2450-4887-9AC4-1237D1CC87EB";
paths = (
{
closed = 1;
nodes = (
"418.65 -15 OFFCURVE",
"438.4 12.65 OFFCURVE",
"438.4 250 CURVE SMOOTH",
"438.4 483.3 OFFCURVE",
"418.65 508.25 OFFCURVE",
"238.25 508.25 CURVE SMOOTH",
"93.3 508.25 OFFCURVE",
"70.5 469.1 OFFCURVE",
"70.5 250 CURVE SMOOTH",
"70.5 28.2 OFFCURVE",
"96 -15 OFFCURVE",
"238.25 -15 CURVE SMOOTH"
);
},
{
closed = 1;
nodes = (
"137 432.85 LINE SMOOTH",
"137 445.75 OFFCURVE",
"148.7 450.05 OFFCURVE",
"185.45 450.05 CURVE SMOOTH",
"390.9 450.05 LINE",
"390.9 67.15 LINE SMOOTH",
"390.9 47.5 OFFCURVE",
"380.55 43.2 OFFCURVE",
"342.45 43.2 CURVE SMOOTH",
"137 43.2 LINE"
);
},
{
closed = 1;
nodes = (
"455.9 500 LINE",
"428.8 500 LINE",
"390.9 412.25 LINE",
"390.9 -181.2 LINE",
"455.9 -170.25 LINE"
);
}
);
width = 559.9;
}
);
leftKerningGroup = o;
leftMetricsKey = o;
rightKerningGroup = q;
rightMetricsKey = "=|n";
unicode = 0071;
},
{
glyphname = r;
layers = (
{
anchors = (
{
name = bottom;
position = "{150, 0}";
},
{
name = top;
position = "{195, 500}";
}
);
layerId = "1124150E-252C-4727-BAB2-2837E441E30C";
paths = (
{
closed = 1;
nodes = (
"50 500 LINE",
"50 0 LINE",
"250 0 LINE",
"250 281 LINE",
"271 296 OFFCURVE",
"334 318 OFFCURVE",
"365 321 CURVE",
"353 515 LINE",
"293 502 OFFCURVE",
"244 475 OFFCURVE",
"205 434 CURVE",
"150 500 LINE"
);
}
);
width = 370;
},
{
anchors = (
{
name = bottom;
position = "{136.5, 0}";
},
{
name = top;
position = "{197.7, 500}";
}
);
hints = (
{
origin = "{0, 1}";
target = "{0, 2}";
type = Stem;
},
{
horizontal = 1;
origin = "{0, 7}";
target = "{0, 6}";
type = Stem;
},
{
horizontal = 1;
origin = "{0, 1}";
target = up;
type = BottomGhost;
},
{
horizontal = 1;
origin = "{0, 0}";
target = down;
type = TopGhost;
}
);
layerId = "3D3F176D-2450-4887-9AC4-1237D1CC87EB";
paths = (
{
closed = 1;
nodes = (
"104 500 LINE",
"104 0 LINE",
"169 0 LINE",
"169 378.2 LINE",
"206.2 406.7 OFFCURVE",
"255.7 434.1 OFFCURVE",
"302.9 450.6 CURVE",
"293.6 515 LINE",
"264.65 502 OFFCURVE",
"227.8 475 OFFCURVE",
"160.45 416.45 CURVE",
"132.45 500 LINE"
);
}
);
width = 321.4;
}
);
leftKerningGroup = n;
leftMetricsKey = n;
rightKerningGroup = r;
unicode = 0072;
},
{
glyphname = s;
layers = (
{
anchors = (
{
name = bottom;
position = "{261, 0}";
},
{
name = top;
position = "{256, 500}";
}
);
layerId = "1124150E-252C-4727-BAB2-2837E441E30C";
paths = (
{
closed = 1;
nodes = (
"32 235 OFFCURVE",
"87 198 OFFCURVE",
"281 179 CURVE",
"281 140 LINE",
"252 135 OFFCURVE",
"227 132 OFFCURVE",
"210 132 CURVE SMOOTH",
"149 132 OFFCURVE",
"98 142 OFFCURVE",
"50 163 CURVE",
"25 19 LINE",
"84 -2 OFFCURVE",
"166 -15 OFFCURVE",
"244 -15 CURVE SMOOTH",
"419 -15 OFFCURVE",
"496 37 OFFCURVE",
"496 156 CURVE SMOOTH",
"496 259 OFFCURVE",
"430 303 OFFCURVE",
"247 322 CURVE",
"247 358 LINE",
"266 364 OFFCURVE",
"300 368 OFFCURVE",
"331 368 CURVE SMOOTH",
"377 368 OFFCURVE",
"415 364 OFFCURVE",
"448 355 CURVE",
"471 493 LINE",
"407 507 OFFCURVE",
"331 515 OFFCURVE",
"255 515 CURVE SMOOTH",
"102 515 OFFCURVE",
"32 462 OFFCURVE",
"32 346 CURVE SMOOTH"
);
}
);
width = 521;
},
{
anchors = (
{
name = bottom;
position = "{234, 0}";
},
{
name = top;
position = "{242.5, 500}";
}
);
hints = (
{
horizontal = 1;
origin = "{0, 13}";
target = "{0, 6}";
type = Stem;
},
{
horizontal = 1;
origin = "{0, 30}";
target = "{0, 23}";
type = Stem;
},
{
horizontal = 1;
origin = "{0, 30}";
target = down;
type = TopGhost;
},
{
origin = "{0, 33}";
target = "{0, 19}";
type = Stem;
},
{
origin = "{0, 3}";
target = "{0, 16}";
type = Stem;
},
{
horizontal = 1;
origin = "{0, 13}";
target = up;
type = BottomGhost;
},
{
horizontal = 1;
origin = "{0, 30}";
target = down;
type = TopGhost;
}
);
layerId = "3D3F176D-2450-4887-9AC4-1237D1CC87EB";
paths = (
{
closed = 1;
nodes = (
"64.4 255.25 OFFCURVE",
"85.65 242.55 OFFCURVE",
"348.5 201.95 CURVE",
"348.5 56.3 LINE",
"303.3 43.2 OFFCURVE",
"278.3 40.2 OFFCURVE",
"230.25 40.2 CURVE SMOOTH",
"171.95 40.2 OFFCURVE",
"116.9 50.2 OFFCURVE",
"64.85 69.85 CURVE",
"52 12.25 LINE",
"115.05 -6.05 OFFCURVE",
"167.35 -15 OFFCURVE",
"219.7 -15 CURVE SMOOTH",
"365 -15 OFFCURVE",
"415 24.85 OFFCURVE",
"415 135.75 CURVE SMOOTH",
"415 246.85 OFFCURVE",
"378.7 267.9 OFFCURVE",
"130.9 304.45 CURVE",
"130.9 451.15 LINE",
"164.75 455.8 OFFCURVE",
"208.2 459.8 OFFCURVE",
"255.4 459.8 CURVE SMOOTH",
"293.3 459.8 OFFCURVE",
"346.15 451.75 OFFCURVE",
"379.15 442.75 CURVE",
"390 493 LINE",
"339.5 508.35 OFFCURVE",
"295.9 515 OFFCURVE",
"241.5 515 CURVE SMOOTH",
"119.55 515 OFFCURVE",
"64.4 471.45 OFFCURVE",
"64.4 373 CURVE SMOOTH"
);
}
);
width = 467;
}
);
leftKerningGroup = s;
rightKerningGroup = s;
unicode = 0073;
},
{
glyphname = germandbls;
layers = (
{
layerId = "1124150E-252C-4727-BAB2-2837E441E30C";
paths = (
{
closed = 1;
nodes = (
"590 -15 OFFCURVE",
"660 41 OFFCURVE",
"660 151 CURVE SMOOTH",
"660 244 OFFCURVE",
"621 295 OFFCURVE",
"510 344 CURVE",
"565 413 OFFCURVE",
"585 458 OFFCURVE",
"585 515 CURVE SMOOTH",
"585 617 OFFCURVE",
"496 675 OFFCURVE",
"340 675 CURVE SMOOTH",
"163 675 OFFCURVE",
"97 631 OFFCURVE",
"80 500 CURVE",
"30 500 LINE",
"30 371 LINE",
"80 371 LINE",
"80 0 LINE",
"280 0 LINE",
"280 524 LINE",
"288 527 OFFCURVE",
"297 528 OFFCURVE",
"315 528 CURVE SMOOTH",
"362 528 OFFCURVE",
"385 510 OFFCURVE",
"385 474 CURVE SMOOTH",
"385 425 OFFCURVE",
"312 385 OFFCURVE",
"312 320 CURVE SMOOTH",
"312 256 OFFCURVE",
"337 235 OFFCURVE",
"460 196 CURVE",
"460 136 LINE",
"459 133 OFFCURVE",
"449 132 OFFCURVE",
"422 132 CURVE SMOOTH",
"400 132 OFFCURVE",
"373 135 OFFCURVE",
"336 143 CURVE",
"311 -1 LINE",
"330 -9 OFFCURVE",
"392 -15 OFFCURVE",
"454 -15 CURVE SMOOTH"
);
}
);
width = 685;
},
{
hints = (
{
horizontal = 1;
origin = "{0, 43}";
target = "{0, 36}";
type = Stem;
},
{
horizontal = 1;
origin = "{0, 15}";
target = "{0, 16}";
type = Stem;
},
{
horizontal = 1;
origin = "{0, 23}";
target = "{0, 11}";
type = Stem;
},
{
origin = "{0, 18}";
target = "{0, 19}";
type = Stem;
},
{
origin = "{0, 33}";
target = "{0, 2}";
type = Stem;
},
{
origin = "{0, 26}";
target = "{0, 8}";
type = Stem;
},
{
horizontal = 1;
origin = "{0, 18}";
target = up;
type = BottomGhost;
},
{
horizontal = 1;
origin = "{0, 43}";
target = up;
type = BottomGhost;
},
{
horizontal = 1;
origin = "{0, 11}";
target = down;
type = TopGhost;
}
);
layerId = "3D3F176D-2450-4887-9AC4-1237D1CC87EB";
paths = (
{
closed = 1;
nodes = (
"506.3 -15 OFFCURVE",
"558.75 27.5 OFFCURVE",
"558.75 130.75 CURVE SMOOTH",
"558.75 215.65 OFFCURVE",
"522.45 251.8 OFFCURVE",
"375 317 CURVE",
"466.45 414.35 OFFCURVE",
"497.25 467.45 OFFCURVE",
"497.25 528.5 CURVE SMOOTH",
"497.25 629.15 OFFCURVE",
"437.95 675 OFFCURVE",
"302.2 675 CURVE SMOOTH",
"187.3 675 OFFCURVE",
"141.55 628.3 OFFCURVE",
"134 500 CURVE",
"57 500 LINE",
"57 452 LINE",
"134 452 LINE",
"134 0 LINE",
"199 0 LINE",
"199 610.4 LINE",
"240.75 617.45 OFFCURVE",
"271.35 619.8 OFFCURVE",
"294.75 619.8 CURVE SMOOTH",
"389 619.8 OFFCURVE",
"432.25 589.65 OFFCURVE",
"432.25 523.95 CURVE SMOOTH",
"432.25 416.9 OFFCURVE",
"325.5 382.3 OFFCURVE",
"325.5 313.25 CURVE SMOOTH",
"325.5 283 OFFCURVE",
"341.05 272.8 OFFCURVE",
"493.75 196 CURVE",
"493.75 48.25 LINE",
"471.15 42.55 OFFCURVE",
"442.25 40.2 OFFCURVE",
"405.8 40.2 CURVE SMOOTH",
"355.45 40.2 OFFCURVE",
"296.05 51.3 OFFCURVE",
"252.3 68.75 CURVE",
"239.45 11.15 LINE",
"298.95 -6.3 OFFCURVE",
"344.75 -15 OFFCURVE",
"381.1 -15 CURVE SMOOTH"
);
}
);
width = 610.75;
}
);
leftKerningGroup = h;
leftMetricsKey = f;
rightKerningGroup = germandbls;
rightMetricsKey = s;
unicode = 00DF;
},
{
glyphname = t;
layers = (
{
anchors = (
{
name = bottom;
position = "{182, 0}";
},
{
name = center;
position = "{170, 255}";
},
{
name = top;
position = "{170, 625}";
},
{
name = topright;
position = "{299, 500}";
}
);
layerId = "1124150E-252C-4727-BAB2-2837E441E30C";
paths = (
{
closed = 1;
nodes = (
"234 -15 OFFCURVE",
"274 -10 OFFCURVE",
"320 1 CURVE",
"329 136 LINE",
"312 137 OFFCURVE",
"292 139 OFFCURVE",
"270 143 CURVE",
"270 630 LINE",
"70 580 LINE",
"70 94 LINE SMOOTH",
"70 19 OFFCURVE",
"111 -15 OFFCURVE",
"199 -15 CURVE SMOOTH"
);
},
{
closed = 1;
nodes = (
"339 371 LINE",
"339 500 LINE",
"20 500 LINE",
"20 371 LINE"
);
}
);
width = 364;
},
{
anchors = (
{
name = bottom;
position = "{175.25, 0}";
},
{
name = center;
position = "{170, 261.75}";
},
{
name = top;
position = "{170, 625}";
},
{
name = topright;
position = "{258.5, 500}";
}
);
hints = (
{
horizontal = 1;
origin = "{0, 12}";
target = "{0, 3}";
type = Stem;
},
{
horizontal = 1;
origin = "{1, 2}";
target = "{1, 3}";
type = Stem;
},
{
horizontal = 1;
origin = "{0, 7}";
target = down;
type = TopGhost;
},
{
origin = "{0, 9}";
target = "{0, 6}";
type = Stem;
},
{
horizontal = 1;
origin = "{0, 12}";
target = up;
type = BottomGhost;
},
{
horizontal = 1;
origin = "{0, 7}";
target = down;
type = TopGhost;
}
);
layerId = "3D3F176D-2450-4887-9AC4-1237D1CC87EB";
paths = (
{
closed = 1;
nodes = (
"208.35 -8.25 OFFCURVE",
"233.5 -5.95 OFFCURVE",
"272.75 1 CURVE",
"277.7 45.55 LINE",
"237.75 46.55 OFFCURVE",
"219.1 48.55 OFFCURVE",
"202.5 49.85 CURVE",
"202.5 632.7 LINE",
"137.5 616.45 LINE",
"137.5 54.85 LINE SMOOTH",
"137.5 12.25 OFFCURVE",
"155.55 -8.25 OFFCURVE",
"192.25 -8.25 CURVE SMOOTH"
);
},
{
closed = 1;
nodes = (
"298.5 452 LINE",
"298.5 500 LINE",
"60.5 500 LINE",
"60.5 452 LINE"
);
}
);
width = 350.5;
}
);
leftKerningGroup = t;
rightKerningGroup = t;
unicode = 0074;
},
{
glyphname = u;
layers = (
{
anchors = (
{
name = bottom;
position = "{298, 0}";
},
{
name = ogonek;
position = "{545, 0}";
},
{
name = top;
position = "{298, 500}";
},
{
name = topright;
position = "{545, 500}";
}
);
background = {
paths = (
{
closed = 1;
nodes = (
"288 -15 OFFCURVE",
"347 9 OFFCURVE",
"387 57 CURVE",
"445 0 LINE",
"545 0 LINE",
"545 500 LINE",
"345 500 LINE",
"345 173 LINE SMOOTH",
"345 134 OFFCURVE",
"316 131 OFFCURVE",
"276 131 CURVE SMOOTH",
"245 131 LINE",
"245 500 LINE",
"45 500 LINE",
"45 150 LINE SMOOTH",
"45 29 OFFCURVE",
"99 -15 OFFCURVE",
"216 -15 CURVE SMOOTH"
);
}
);
};
layerId = "1124150E-252C-4727-BAB2-2837E441E30C";
paths = (
{
closed = 1;
nodes = (
"345 500 LINE",
"345 148 LINE SMOOTH",
"345 128 OFFCURVE",
"334 120 OFFCURVE",
"306 120 CURVE SMOOTH",
"245 120 LINE",
"245 500 LINE",
"45 500 LINE",
"45 130 LINE SMOOTH",
"45 29 OFFCURVE",
"91 -15 OFFCURVE",
"195 -15 CURVE SMOOTH",
"268 -15 OFFCURVE",
"337 7 OFFCURVE",
"395 50 CURVE",
"445 0 LINE",
"545 0 LINE",
"545 500 LINE"
);
}
);
width = 595;
},
{
anchors = (
{
name = bottom;
position = "{284.5, 0}";
},
{
name = ogonek;
position = "{464, 0}";
},
{
name = top;
position = "{284.5, 500}";
},
{
name = topright;
position = "{465.35, 500}";
}
);
hints = (
{
horizontal = 1;
origin = "{0, 11}";
target = "{0, 5}";
type = Stem;
},
{
horizontal = 1;
origin = "{0, 7}";
target = down;
type = TopGhost;
},
{
origin = "{0, 8}";
target = "{0, 5}";
type = Stem;
},
{
origin = "{0, 1}";
target = "{0, 16}";
type = Stem;
},
{
horizontal = 1;
origin = "{0, 7}";
target = down;
type = TopGhost;
},
{
horizontal = 1;
origin = "{0, 11}";
target = up;
type = BottomGhost;
}
);
layerId = "3D3F176D-2450-4887-9AC4-1237D1CC87EB";
paths = (
{
closed = 1;
nodes = (
"400.35 500 LINE",
"400.35 116.95 LINE SMOOTH",
"400.35 63.2 OFFCURVE",
"378.55 48.45 OFFCURVE",
"299.25 48.45 CURVE SMOOTH",
"164 48.45 LINE",
"164 500 LINE",
"99 500 LINE",
"99 82.75 LINE SMOOTH",
"99 20.9 OFFCURVE",
"138.25 -8.25 OFFCURVE",
"224.7 -8.25 CURVE SMOOTH",
"308.5 -8.25 OFFCURVE",
"368.05 9.7 OFFCURVE",
"419.3 50 CURVE",
"438.25 0 LINE",
"465.35 0 LINE",
"465.35 500 LINE"
);
}
);
width = 569.35;
}
);
leftKerningGroup = u;
leftMetricsKey = "=|n";
rightKerningGroup = u;
rightMetricsKey = "=|n";
unicode = 0075;
},
{
glyphname = v;
layers = (
{
guideLines = (
{
angle = 169.711;
position = "{331, 500}";
showMeasurement = 1;
}
);
layerId = "1124150E-252C-4727-BAB2-2837E441E30C";
paths = (
{
closed = 1;
nodes = (
"117 0 LINE",
"417 0 LINE",
"531 500 LINE",
"336 500 LINE",
"272 175 LINE",
"262 175 LINE",
"198 500 LINE",
"3 500 LINE"
);
}
);
width = 534;
},
{
hints = (
{
horizontal = 1;
origin = "{0, 0}";
target = "{0, 5}";
type = Stem;
},
{
horizontal = 1;
origin = "{0, 0}";
target = up;
type = BottomGhost;
},
{
horizontal = 1;
origin = "{0, 7}";
target = down;
type = TopGhost;
}
);
layerId = "3D3F176D-2450-4887-9AC4-1237D1CC87EB";
paths = (
{
closed = 1;
nodes = (
"166.95 0 LINE",
"267.15 0 LINE",
"427.05 500 LINE",
"361.65 500 LINE",
"222.05 53.5 LINE",
"212.05 53.5 LINE",
"72.45 500 LINE",
"7.05 500 LINE"
);
}
);
width = 434.1;
}
);
leftKerningGroup = v;
rightKerningGroup = v;
unicode = 0076;
},
{
glyphname = w;
layers = (
{
anchors = (
{
name = bottom;
position = "{400, 0}";
},
{
name = top;
position = "{400, 500}";
}
);
background = {
paths = (
{
closed = 1;
nodes = (
"114 0 LINE",
"350 0 LINE",
"393 215 LINE",
"401 215 LINE",
"440 0 LINE",
"686 0 LINE",
"786 500 LINE",
"590 500 LINE",
"542 203 LINE",
"531 203 LINE",
"475 500 LINE",
"325 500 LINE",
"262 203 LINE",
"251 203 LINE",
"210 500 LINE",
"14 500 LINE"
);
}
);
};
layerId = "1124150E-252C-4727-BAB2-2837E441E30C";
paths = (
{
closed = 1;
nodes = (
"703 0 LINE",
"797 500 LINE",
"602 500 LINE",
"553 175 LINE",
"543 175 LINE",
"484 500 LINE",
"339 500 LINE",
"438 0 LINE"
);
},
{
closed = 1;
nodes = (
"362 0 LINE",
"461 500 LINE",
"316 500 LINE",
"257 175 LINE",
"247 175 LINE",
"198 500 LINE",
"3 500 LINE",
"97 0 LINE"
);
}
);
width = 800;
},
{
anchors = (
{
name = bottom;
position = "{333.85, 0}";
},
{
name = top;
position = "{333.85, 500}";
}
);
hints = (
{
horizontal = 1;
origin = "{1, 7}";
target = "{1, 4}";
type = Stem;
},
{
horizontal = 1;
origin = "{1, 7}";
target = up;
type = BottomGhost;
},
{
horizontal = 1;
origin = "{1, 6}";
target = down;
type = TopGhost;
}
);
layerId = "3D3F176D-2450-4887-9AC4-1237D1CC87EB";
paths = (
{
closed = 1;
nodes = (
"527.5 0 LINE",
"660.65 500 LINE",
"595.25 500 LINE",
"484.15 53.5 LINE",
"474.15 53.5 LINE",
"366.55 500 LINE",
"309.3 500 LINE",
"433.95 0 LINE"
);
},
{
closed = 1;
nodes = (
"233.75 0 LINE",
"358.4 500 LINE",
"301.15 500 LINE",
"193.55 53.5 LINE",
"183.55 53.5 LINE",
"72.45 500 LINE",
"7.05 500 LINE",
"140.2 0 LINE"
);
}
);
width = 667.7;
}
);
leftKerningGroup = w;
rightKerningGroup = w;
unicode = 0077;
},
{
glyphname = x;
layers = (
{
background = {
paths = (
{
closed = 1;
nodes = (
"135 272 LINE",
"-2 0 LINE",
"206 0 LINE",
"269 150 LINE"
);
},
{
closed = 1;
nodes = (
"338 376 LINE",
"267 376 LINE",
"211 500 LINE",
"3 500 LINE",
"192 135 LINE",
"268 135 LINE",
"330 0 LINE",
"538 0 LINE"
);
},
{
closed = 1;
nodes = (
"401 230 LINE",
"533 500 LINE",
"325 500 LINE",
"267 361 LINE"
);
}
);
};
guideLines = (
{
angle = 33.185;
position = "{236, 500}";
showMeasurement = 1;
},
{
angle = 148.777;
position = "{345, 500}";
showMeasurement = 1;
}
);
layerId = "1124150E-252C-4727-BAB2-2837E441E30C";
paths = (
{
closed = 1;
nodes = (
"559 0 LINE",
"225 500 LINE",
"3 500 LINE",
"337 0 LINE"
);
},
{
closed = 1;
nodes = (
"217 0 LINE",
"310 170 LINE",
"191 308 LINE",
"3 0 LINE"
);
},
{
closed = 1;
nodes = (
"559 500 LINE",
"345 500 LINE",
"252 330 LINE",
"365 182 LINE"
);
}
);
width = 562;
},
{
hints = (
{
horizontal = 1;
origin = "{1, 3}";
target = up;
type = BottomGhost;
},
{
horizontal = 1;
origin = "{0, 2}";
target = down;
type = TopGhost;
}
);
layerId = "3D3F176D-2450-4887-9AC4-1237D1CC87EB";
paths = (
{
closed = 1;
nodes = (
"452.35 0 LINE",
"107.55 500 LINE",
"40.8 500 LINE",
"385.6 0 LINE"
);
},
{
closed = 1;
nodes = (
"102.25 0 LINE",
"246.55 221.3 LINE",
"208.55 260.75 LINE",
"34.05 0 LINE"
);
},
{
closed = 1;
nodes = (
"445.6 500 LINE",
"377.4 500 LINE",
"233.1 278.7 LINE",
"271.85 242.75 LINE"
);
}
);
width = 486.4;
}
);
leftKerningGroup = x;
rightKerningGroup = x;
unicode = 0078;
},
{
glyphname = y;
layers = (
{
anchors = (
{
name = bottom;
position = "{262, -180}";
},
{
name = top;
position = "{262, 500}";
}
);
background = {
paths = (
{
closed = 0;
nodes = (
"254 -30 LINE SMOOTH",
"25 -60 LINE"
);
}
);
};
layerId = "1124150E-252C-4727-BAB2-2837E441E30C";
paths = (
{
closed = 1;
nodes = (
"412 50 LINE",
"521 500 LINE",
"326 500 LINE",
"267 225 LINE",
"257 225 LINE",
"198 500 LINE",
"3 500 LINE",
"112 50 LINE"
);
},
{
closed = 1;
nodes = (
"304 -180 OFFCURVE",
"371 -123 OFFCURVE",
"412 50 CURVE",
"229 50 LINE",
"227 40 LINE SMOOTH",
"215 -23 OFFCURVE",
"205 -37 OFFCURVE",
"150 -44 CURVE SMOOTH",
"30 -59 LINE",
"21 -164 LINE",
"54 -174 OFFCURVE",
"99 -180 OFFCURVE",
"141 -180 CURVE SMOOTH"
);
}
);
width = 524;
},
{
anchors = (
{
name = bottom;
position = "{212.05, -173.25}";
},
{
name = top;
position = "{212.05, 500}";
}
);
hints = (
{
horizontal = 1;
origin = "{0, 7}";
target = "{0, 4}";
type = Stem;
},
{
horizontal = 1;
origin = "{1, 12}";
target = "{1, 8}";
type = Stem;
},
{
horizontal = 1;
origin = "{1, 12}";
target = up;
type = BottomGhost;
},
{
horizontal = 1;
origin = "{0, 6}";
target = down;
type = TopGhost;
}
);
layerId = "3D3F176D-2450-4887-9AC4-1237D1CC87EB";
paths = (
{
closed = 1;
nodes = (
"262.15 23 LINE",
"417.05 500 LINE",
"351.65 500 LINE",
"217.05 76.5 LINE",
"207.05 76.5 LINE",
"72.45 500 LINE",
"7.05 500 LINE",
"161.95 23 LINE"
);
},
{
closed = 1;
nodes = (
"167.65 -173.25 OFFCURVE",
"213.05 -125.7 OFFCURVE",
"262.15 23 CURVE",
"196.6 23 LINE",
"185.15 -14 LINE SMOOTH",
"159.65 -91.85 OFFCURVE",
"136.15 -111.25 OFFCURVE",
"54.15 -122.3 CURVE SMOOTH",
"3 -129.2 LINE",
"0.75 -164 LINE",
"21.6 -169.95 OFFCURVE",
"51.75 -173.25 OFFCURVE",
"76.2 -173.25 CURVE SMOOTH"
);
}
);
width = 424.1;
}
);
leftKerningGroup = y;
rightKerningGroup = y;
unicode = 0079;
},
{
glyphname = z;
layers = (
{
anchors = (
{
name = bottom;
position = "{265, 0}";
},
{
name = top;
position = "{275, 500}";
}
);
background = {
paths = (
{
closed = 0;
nodes = (
"483 400 LINE",
"281 135 LINE"
);
}
);
};
guideLines = (
{
angle = 141.871;
position = "{373, 175}";
showMeasurement = 1;
}
);
layerId = "1124150E-252C-4727-BAB2-2837E441E30C";
paths = (
{
closed = 1;
nodes = (
"35 110 LINE",
"35 0 LINE",
"495 0 LINE",
"495 144 LINE",
"290 144 LINE",
"287 150 LINE",
"488 390 LINE",
"488 500 LINE",
"50 500 LINE",
"63 356 LINE",
"233 356 LINE",
"236 350 LINE"
);
}
);
width = 530;
},
{
anchors = (
{
name = bottom;
position = "{227.2, 0}";
},
{
name = top;
position = "{250.7, 500}";
}
);
hints = (
{
horizontal = 1;
origin = "{0, 1}";
target = "{0, 4}";
type = Stem;
},
{
horizontal = 1;
origin = "{0, 8}";
target = "{0, 9}";
type = Stem;
},
{
horizontal = 1;
origin = "{0, 1}";
target = up;
type = BottomGhost;
},
{
horizontal = 1;
origin = "{0, 8}";
target = down;
type = TopGhost;
}
);
layerId = "3D3F176D-2450-4887-9AC4-1237D1CC87EB";
paths = (
{
closed = 1;
nodes = (
"41.75 35.75 LINE",
"41.75 0 LINE",
"404.55 0 LINE",
"404.55 46.8 LINE",
"123.95 46.8 LINE",
"120.95 52.8 LINE",
"413.75 464.25 LINE",
"413.75 500 LINE",
"63.5 500 LINE",
"69.75 453.2 LINE",
"330.2 453.2 LINE",
"334.55 447.2 LINE"
);
}
);
width = 453.05;
}
);
leftKerningGroup = z;
rightKerningGroup = z;
unicode = 007A;
},
{
glyphname = ordfeminine;
layers = (
{
components = (
{
name = strokeshortcomb;
transform = "{1.1, 0, 0, 1, 10, -59}";
}
);
guideLines = (
{
angle = 270;
position = "{411, 481}";
}
);
layerId = "1124150E-252C-4727-BAB2-2837E441E30C";
paths = (
{
closed = 1;
nodes = (
"198 338 OFFCURVE",
"245 356 OFFCURVE",
"285 389 CURVE",
"326 350 LINE",
"410 350 LINE",
"410 612 LINE SMOOTH",
"410 708 OFFCURVE",
"352 752 OFFCURVE",
"226 752 CURVE SMOOTH",
"159 752 OFFCURVE",
"96 744 OFFCURVE",
"32 725 CURVE",
"52 610 LINE",
"106 623 OFFCURVE",
"158 631 OFFCURVE",
"210 631 CURVE SMOOTH",
"223 631 OFFCURVE",
"234 630 OFFCURVE",
"243 628 CURVE",
"243 478 LINE SMOOTH",
"243 457 OFFCURVE",
"230 450 OFFCURVE",
"190 450 CURVE SMOOTH",
"168 450 LINE",
"168 490 LINE SMOOTH",
"168 512 OFFCURVE",
"180 520 OFFCURVE",
"220 520 CURVE SMOOTH",
"267 520 LINE",
"267 592 LINE",
"217 592 LINE SMOOTH",
"73 592 OFFCURVE",
"13 557 OFFCURVE",
"13 473 CURVE SMOOTH",
"13 381 OFFCURVE",
"56 338 OFFCURVE",
"153 338 CURVE SMOOTH"
);
}
);
userData = {
RMXScaler = {
adjustSpace = 15;
height = 80;
verticalShift = 360;
weight = -30;
width = 85;
};
};
width = 433;
},
{
components = (
{
alignment = -1;
name = strokeshortcomb;
transform = "{1.1, 0, 0, 1, 12.7, -9.05}";
}
);
hints = (
{
horizontal = 1;
origin = "{0, 12}";
target = "{0, 15}";
type = Stem;
},
{
horizontal = 1;
origin = "{0, 8}";
place = "{1008.45, 2000}";
type = Stem;
},
{
horizontal = 1;
place = "{893.7, 83.7}";
type = Stem;
},
{
origin = "{0, 12}";
target = "{0, 24}";
type = Stem;
},
{
origin = "{0, 30}";
target = "{0, 3}";
type = Stem;
}
);
layerId = "3D3F176D-2450-4887-9AC4-1237D1CC87EB";
paths = (
{
closed = 1;
nodes = (
"208.8 343.4 OFFCURVE",
"253.1 357.35 OFFCURVE",
"290.4 389 CURVE",
"307.1 350 LINE",
"331.7 350 LINE",
"333.05 643.05 LINE SMOOTH",
"333.05 720.15 OFFCURVE",
"299.35 745.25 OFFCURVE",
"197.65 745.25 CURVE SMOOTH",
"148.2 745.25 OFFCURVE",
"83.85 735.9 OFFCURVE",
"50.9 723.65 CURVE",
"58.75 680.2 LINE",
"104.65 690.5 OFFCURVE",
"148.55 697.15 OFFCURVE",
"184.35 697.15 CURVE SMOOTH",
"221.65 697.15 OFFCURVE",
"248.85 694.8 OFFCURVE",
"274.05 688.75 CURVE",
"274.05 440.2 LINE SMOOTH",
"274.05 403 OFFCURVE",
"259.7 391.95 OFFCURVE",
"208.9 391.95 CURVE SMOOTH",
"84.3 391.95 LINE",
"84.3 485.95 LINE SMOOTH",
"84.3 524.15 OFFCURVE",
"100.35 534.85 OFFCURVE",
"151.15 534.85 CURVE SMOOTH",
"298.05 534.85 LINE",
"298.05 575.8 LINE",
"266.95 575.8 LINE SMOOTH",
"54.1 575.8 OFFCURVE",
"33.25 565.1 OFFCURVE",
"33.25 455.45 CURVE SMOOTH",
"33.25 374.25 OFFCURVE",
"65.45 343.4 OFFCURVE",
"148.95 343.4 CURVE SMOOTH"
);
}
);
width = 383.05;
}
);
leftKerningGroup = ordfeminine;
leftMetricsKey = "=a/2";
rightKerningGroup = ordfeminine;
rightMetricsKey = "=a/2";
unicode = 00AA;
userData = {
RMXScaler = {
source = a;
};
};
},
{
glyphname = ordmasculine;
layers = (
{
components = (
{
name = strokeshortcomb;
transform = "{1.2, 0, 0, 1, 43, -55}";
}
);
guideLines = (
{
position = "{44, 415}";
},
{
angle = 90;
position = "{42, 633}";
}
);
layerId = "1124150E-252C-4727-BAB2-2837E441E30C";
paths = (
{
closed = 1;
nodes = (
"420 348 OFFCURVE",
"489 416 OFFCURVE",
"489 560 CURVE SMOOTH",
"489 704 OFFCURVE",
"420 772 OFFCURVE",
"265 772 CURVE SMOOTH",
"111 772 OFFCURVE",
"42 705 OFFCURVE",
"42 560 CURVE SMOOTH",
"42 416 OFFCURVE",
"111 348 OFFCURVE",
"265 348 CURVE SMOOTH"
);
},
{
closed = 1;
nodes = (
"221 625 LINE SMOOTH",
"221 642 OFFCURVE",
"228 647 OFFCURVE",
"254 647 CURVE SMOOTH",
"310 647 LINE",
"310 495 LINE SMOOTH",
"310 478 OFFCURVE",
"302 473 OFFCURVE",
"276 473 CURVE SMOOTH",
"221 473 LINE"
);
}
);
userData = {
RMXScaler = {
adjustSpace = 15;
height = 80;
verticalShift = 360;
weight = -30;
width = 85;
};
};
width = 531;
},
{
components = (
{
alignment = -1;
name = strokeshortcomb;
transform = "{1.2, 0, 0, 1, 60.55, -9.1}";
}
);
hints = (
{
horizontal = 1;
place = "{938.25, 0}";
type = Stem;
},
{
horizontal = 1;
place = "{951.75, 83.7}";
type = Stem;
},
{
origin = "{0, 8}";
target = "{1, 0}";
type = Stem;
},
{
origin = "{0, 5}";
target = "{0, 5}";
type = Stem;
}
);
layerId = "3D3F176D-2450-4887-9AC4-1237D1CC87EB";
paths = (
{
closed = 1;
nodes = (
"386.25 353.4 OFFCURVE",
"409.35 387.65 OFFCURVE",
"409.35 560 CURVE SMOOTH",
"409.35 733.7 OFFCURVE",
"387.6 766.6 OFFCURVE",
"244.75 766.6 CURVE SMOOTH",
"104.25 766.6 OFFCURVE",
"79.8 732 OFFCURVE",
"79.8 560 CURVE SMOOTH",
"79.8 387.65 OFFCURVE",
"104.25 353.4 OFFCURVE",
"244.75 353.4 CURVE SMOOTH"
);
},
{
closed = 1;
nodes = (
"137.3 696.55 LINE SMOOTH",
"137.3 712.2 OFFCURVE",
"147 715.85 OFFCURVE",
"178.4 715.85 CURVE SMOOTH",
"351.85 715.85 LINE",
"351.85 423.45 LINE SMOOTH",
"351.85 407.8 OFFCURVE",
"343.85 404.15 OFFCURVE",
"311.1 404.15 CURVE SMOOTH",
"137.3 404.15 LINE"
);
}
);
width = 489.15;
}
);
leftKerningGroup = ordmasculine;
rightKerningGroup = ordmasculine;
unicode = 00BA;
userData = {
RMXScaler = {
source = o;
};
};
},
{
glyphname = Omega;
layers = (
{
layerId = "1124150E-252C-4727-BAB2-2837E441E30C";
paths = (
{
closed = 1;
nodes = (
"413 483 LINE SMOOTH",
"458 483 OFFCURVE",
"472 471 OFFCURVE",
"472 433 CURVE SMOOTH",
"472 230 LINE",
"413 230 LINE",
"428 0 LINE",
"694 0 LINE",
"694 123 LINE",
"551 132 LINE",
"551 156 LINE",
"646 176 OFFCURVE",
"687 250 OFFCURVE",
"687 375 CURVE SMOOTH",
"687 556 OFFCURVE",
"585 640 OFFCURVE",
"363 640 CURVE SMOOTH",
"141 640 OFFCURVE",
"39 556 OFFCURVE",
"39 375 CURVE SMOOTH",
"39 250 OFFCURVE",
"80 176 OFFCURVE",
"175 156 CURVE",
"175 132 LINE",
"32 123 LINE",
"32 0 LINE",
"298 0 LINE",
"313 230 LINE",
"268 230 OFFCURVE",
"254 242 OFFCURVE",
"254 280 CURVE SMOOTH",
"254 483 LINE"
);
}
);
width = 726;
},
{
layerId = "3D3F176D-2450-4887-9AC4-1237D1CC87EB";
paths = (
{
closed = 1;
nodes = (
"430.55 591 LINE SMOOTH",
"474.2 591 OFFCURVE",
"509.8 588.45 OFFCURVE",
"509.8 523.45 CURVE SMOOTH",
"509.8 171.95 LINE",
"413 171.95 LINE",
"428 0 LINE",
"595.45 0 LINE",
"595.45 42 LINE",
"470 49.65 LINE",
"461.9 133.05 LINE",
"560.95 155.75 OFFCURVE",
"579 190.6 OFFCURVE",
"579 375 CURVE SMOOTH",
"579 607.3 OFFCURVE",
"539.1 640 OFFCURVE",
"322.5 640 CURVE SMOOTH",
"105.9 640 OFFCURVE",
"66 607.3 OFFCURVE",
"66 375 CURVE SMOOTH",
"66 190.6 OFFCURVE",
"84.05 155.75 OFFCURVE",
"183.1 133.05 CURVE",
"175 49.65 LINE",
"49.55 42 LINE",
"49.55 0 LINE",
"217 0 LINE",
"232 171.95 LINE",
"177.55 171.95 OFFCURVE",
"135.2 177.2 OFFCURVE",
"135.2 270.55 CURVE SMOOTH",
"135.2 591 LINE"
);
}
);
width = 645;
}
);
leftKerningGroup = uni03A9;
rightKerningGroup = uni03A9;
unicode = 03A9;
},
{
glyphname = pi;
layers = (
{
layerId = "1124150E-252C-4727-BAB2-2837E441E30C";
paths = (
{
closed = 1;
nodes = (
"225 0 LINE",
"281 312 LINE SMOOTH",
"286 339 OFFCURVE",
"299 349 OFFCURVE",
"325 349 CURVE SMOOTH",
"535 351 LINE SMOOTH",
"608 352 OFFCURVE",
"630 393 OFFCURVE",
"630 529 CURVE",
"483 536 LINE",
"482 521 OFFCURVE",
"480 509 OFFCURVE",
"477 500 CURVE",
"45 500 LINE",
"45 378 LINE",
"98 366 LINE",
"73 0 LINE"
);
},
{
closed = 1;
nodes = (
"514 -15 OFFCURVE",
"552 -9 OFFCURVE",
"592 1 CURVE",
"601 136 LINE",
"588 137 OFFCURVE",
"572 139 OFFCURVE",
"552 143 CURVE",
"552 423 LINE",
"352 423 LINE",
"352 94 LINE SMOOTH",
"352 19 OFFCURVE",
"393 -15 OFFCURVE",
"481 -15 CURVE SMOOTH"
);
}
);
width = 657;
},
{
layerId = "3D3F176D-2450-4887-9AC4-1237D1CC87EB";
paths = (
{
closed = 1;
nodes = (
"150.75 0 LINE",
"210.8 399.75 LINE SMOOTH",
"213.1 424.05 OFFCURVE",
"232.85 438.1 OFFCURVE",
"264.25 438.1 CURVE SMOOTH",
"456.7 437.4 LINE SMOOTH",
"520.25 437.05 OFFCURVE",
"528.75 447 OFFCURVE",
"528.75 529 CURVE",
"476.25 536 LINE",
"475.25 521 OFFCURVE",
"473.25 509 OFFCURVE",
"470.25 500 CURVE",
"92.25 500 LINE",
"92.25 452.25 LINE",
"138.5 440.25 LINE",
"106.75 0 LINE"
);
},
{
closed = 1;
nodes = (
"477.55 -4.2 OFFCURVE",
"489.9 -2.25 OFFCURVE",
"517.75 5.05 CURVE",
"522.7 49.6 LINE",
"505.65 50.6 OFFCURVE",
"492.35 52.6 OFFCURVE",
"477.75 53.9 CURVE",
"477.75 445.95 LINE",
"412.75 445.95 LINE",
"412.75 58.9 LINE SMOOTH",
"412.75 16.3 OFFCURVE",
"430.8 -4.2 OFFCURVE",
"467.5 -4.2 CURVE SMOOTH"
);
}
);
width = 603;
}
);
leftKerningGroup = pi;
rightKerningGroup = pi;
unicode = 03C0;
},
{
glyphname = "hamza-ar";
layers = (
{
anchors = (
{
name = bottom;
position = "{218, -70}";
},
{
name = top;
position = "{218, 570}";
}
);
annotations = (
{
position = "{295.391, 560.312}";
type = Text;
}
);
background = {
paths = (
{
closed = 0;
nodes = (
"20 146 LINE",
"416 252 LINE"
);
}
);
};
color = 1;
layerId = "1124150E-252C-4727-BAB2-2837E441E30C";
paths = (
{
closed = 1;
nodes = (
"426 86 LINE",
"426 255 LINE",
"290 218 LINE SMOOTH",
"257 209 OFFCURVE",
"248 222 OFFCURVE",
"248 245 CURVE SMOOTH",
"248 296 LINE",
"275 309 OFFCURVE",
"333 324 OFFCURVE",
"377 324 CURVE",
"377 504 LINE",
"188 504 OFFCURVE",
"88 431 OFFCURVE",
"88 284 CURVE SMOOTH",
"88 233 OFFCURVE",
"98 192 OFFCURVE",
"115 171 CURVE",
"20 146 LINE",
"20 -23 LINE"
);
}
);
width = 456;
},
{
anchors = (
{
name = bottom;
position = "{209.9, -43}";
},
{
name = top;
position = "{209.9, 544.35}";
}
);
hints = (
{
horizontal = 1;
origin = "{0, 9}";
target = "{0, 10}";
type = Stem;
},
{
origin = "{0, 13}";
target = "{0, 5}";
type = Stem;
}
);
layerId = "3D3F176D-2450-4887-9AC4-1237D1CC87EB";
paths = (
{
closed = 1;
nodes = (
"394.95 133.25 LINE",
"394.95 188.85 LINE",
"240.05 147.8 LINE SMOOTH",
"170.6 129.35 OFFCURVE",
"150.8 138.3 OFFCURVE",
"150.8 200.45 CURVE SMOOTH",
"150.8 387.8 LINE",
"203.45 418.35 OFFCURVE",
"280.35 433.35 OFFCURVE",
"356.75 433.35 CURVE",
"356.75 491.85 LINE",
"166.4 491.85 OFFCURVE",
"92.05 424.25 OFFCURVE",
"92.05 255.65 CURVE SMOOTH",
"92.05 193.85 OFFCURVE",
"102.05 147.45 OFFCURVE",
"121.75 115.65 CURVE",
"20 87.95 LINE",
"20 32.35 LINE"
);
}
);
width = 411.45;
}
);
unicode = 0621;
},
{
glyphname = "alef-ar";
layers = (
{
anchors = (
{
name = bottom;
position = "{150, -80}";
},
{
name = top;
position = "{150, 680}";
}
);
layerId = "1124150E-252C-4727-BAB2-2837E441E30C";
paths = (
{
closed = 1;
nodes = (
"230 0 LINE",
"230 630 LINE",
"70 630 LINE",
"70 0 LINE"
);
}
);
width = 300;
},
{
anchors = (
{
name = bottom;
position = "{136.5, -80}";
},
{
name = top;
position = "{136.5, 680}";
}
);
hints = (
{
horizontal = 1;
origin = "{0, 3}";
target = up;
type = BottomGhost;
},
{
horizontal = 1;
origin = "{0, 2}";
target = down;
type = TopGhost;
},
{
origin = "{0, 3}";
target = "{0, 0}";
type = Stem;
},
{
horizontal = 1;
origin = "{0, 3}";
target = up;
type = BottomGhost;
},
{
horizontal = 1;
origin = "{0, 2}";
target = down;
type = TopGhost;
}
);
layerId = "3D3F176D-2450-4887-9AC4-1237D1CC87EB";
paths = (
{
closed = 1;
nodes = (
"162.5 0 LINE",
"162.5 630 LINE",
"110.5 630 LINE",
"110.5 0 LINE"
);
}
);
width = 273;
}
);
unicode = 0627;
},
{
glyphname = "alef-ar.fina";
layers = (
{
anchors = (
{
name = bottom;
position = "{150, -80}";
},
{
name = top;
position = "{150, 680}";
}
);
components = (
{
name = connection_r;
transform = "{1, 0, 0, 1, 251, 0}";
}
);
layerId = "1124150E-252C-4727-BAB2-2837E441E30C";
paths = (
{
closed = 1;
nodes = (
"300 0 LINE",
"300 180 LINE",
"230 180 LINE",
"230 630 LINE",
"70 630 LINE",
"70 0 LINE"
);
}
);
width = 300;
},
{
anchors = (
{
name = bottom;
position = "{150, -80}";
},
{
name = top;
position = "{150, 680}";
}
);
associatedMasterId = "1124150E-252C-4727-BAB2-2837E441E30C";
layerId = "E3ABA7B4-D24E-4DF6-9BC3-7C1AA8B2D303";
name = "Jun 24 17, 16:36";
paths = (
{
closed = 1;
nodes = (
"300 0 LINE",
"320 90 LINE",
"300 180 LINE",
"230 180 LINE",
"230 630 LINE",
"70 630 LINE",
"70 0 LINE"
);
}
);
width = 300;
},
{
anchors = (
{
name = bottom;
position = "{136.5, -80}";
},
{
name = top;
position = "{136.5, 680}";
}
);
components = (
{
alignment = -1;
name = connection_r;
transform = "{1, 0, 0, 1, 225.35, 0}";
}
);
hints = (
{
horizontal = 1;
origin = "{0, 5}";
target = "{0, 2}";
type = Stem;
},
{
horizontal = 1;
origin = "{0, 4}";
target = down;
type = TopGhost;
},
{
origin = "{0, 5}";
target = "{0, 2}";
type = Stem;
},
{
horizontal = 1;
origin = "{0, 4}";
target = down;
type = TopGhost;
},
{
horizontal = 1;
origin = "{0, 5}";
target = up;
type = BottomGhost;
}
);
layerId = "3D3F176D-2450-4887-9AC4-1237D1CC87EB";
paths = (
{
closed = 1;
nodes = (
"273 0 LINE",
"273 58.5 LINE",
"162.5 58.5 LINE",
"162.5 630 LINE",
"110.5 630 LINE",
"110.5 0 LINE"
);
}
);
width = 273;
}
);
unicode = FE8E;
},
{
glyphname = "alef-ar.short";
layers = (
{
anchors = (
{
name = bottom;
position = "{150, -80}";
},
{
name = top;
position = "{150, 500}";
}
);
layerId = "1124150E-252C-4727-BAB2-2837E441E30C";
paths = (
{
closed = 1;
nodes = (
"230 0 LINE",
"230 470 LINE",
"70 470 LINE",
"70 0 LINE"
);
}
);
width = 300;
},
{
anchors = (
{
name = bottom;
position = "{136.5, -80}";
},
{
name = top;
position = "{136.5, 500}";
}
);
hints = (
{
horizontal = 1;
origin = "{0, 3}";
target = up;
type = BottomGhost;
},
{
horizontal = 1;
origin = "{0, 2}";
target = down;
type = TopGhost;
},
{
origin = "{0, 3}";
target = "{0, 0}";
type = Stem;
}
);
layerId = "3D3F176D-2450-4887-9AC4-1237D1CC87EB";
paths = (
{
closed = 1;
nodes = (
"162.5 0 LINE",
"162.5 470 LINE",
"110.5 470 LINE",
"110.5 0 LINE"
);
}
);
width = 273;
}
);
},
{
glyphname = "alef-ar.fina.short";
layers = (
{
anchors = (
{
name = bottom;
position = "{150, -80}";
},
{
name = top;
position = "{150, 510}";
}
);
components = (
{
name = connection_r;
transform = "{1, 0, 0, 1, 251, 0}";
}
);
layerId = "1124150E-252C-4727-BAB2-2837E441E30C";
paths = (
{
closed = 1;
nodes = (
"300 0 LINE",
"300 180 LINE",
"230 180 LINE",
"230 470 LINE",
"70 470 LINE",
"70 0 LINE"
);
}
);
width = 300;
},
{
anchors = (
{
name = bottom;
position = "{150, -80}";
},
{
name = top;
position = "{150, 510}";
}
);
associatedMasterId = "1124150E-252C-4727-BAB2-2837E441E30C";
layerId = "A12182AB-24FE-4227-A165-444F39D4278E";
name = "Jun 24 17, 16:37";
paths = (
{
closed = 1;
nodes = (
"300 0 LINE",
"320 90 LINE",
"300 180 LINE",
"230 180 LINE",
"230 470 LINE",
"70 470 LINE",
"70 0 LINE"
);
}
);
width = 300;
},
{
anchors = (
{
name = bottom;
position = "{136.5, -80}";
},
{
name = top;
position = "{136.5, 496.5}";
}
);
components = (
{
alignment = -1;
name = connection_r;
transform = "{1, 0, 0, 1, 225.35, 0}";
}
);
hints = (
{
horizontal = 1;
origin = "{0, 5}";
target = "{0, 2}";
type = Stem;
},
{
horizontal = 1;
origin = "{0, 4}";
target = down;
type = TopGhost;
},
{
origin = "{0, 5}";
target = "{0, 2}";
type = Stem;
},
{
horizontal = 1;
origin = "{0, 5}";
target = up;
type = BottomGhost;
}
);
layerId = "3D3F176D-2450-4887-9AC4-1237D1CC87EB";
paths = (
{
closed = 1;
nodes = (
"273 0 LINE",
"273 58.5 LINE",
"162.5 58.5 LINE",
"162.5 470 LINE",
"110.5 470 LINE",
"110.5 0 LINE"
);
}
);
width = 273;
}
);
},
{
glyphname = "dotlessbeh-ar";
layers = (
{
anchors = (
{
name = bottom;
position = "{459, -80}";
},
{
name = top;
position = "{459, 450}";
}
);
layerId = "1124150E-252C-4727-BAB2-2837E441E30C";
paths = (
{
closed = 1;
nodes = (
"854 0 LINE",
"854 470 LINE",
"694 470 LINE",
"694 180 LINE",
"223 180 LINE",
"213 205 OFFCURVE",
"210 233 OFFCURVE",
"210 272 CURVE SMOOTH",
"210 314 OFFCURVE",
"219 355 OFFCURVE",
"236 400 CURVE",
"82 424 LINE",
"60 359 OFFCURVE",
"50 292 OFFCURVE",
"50 223 CURVE SMOOTH",
"50 69 OFFCURVE",
"106 0 OFFCURVE",
"229 0 CURVE"
);
}
);
width = 924;
},
{
anchors = (
{
name = bottom;
position = "{432, -93.5}";
},
{
name = top;
position = "{432, 450}";
}
);
hints = (
{
horizontal = 1;
origin = "{0, 17}";
target = "{0, 4}";
type = Stem;
},
{
horizontal = 1;
origin = "{0, 2}";
target = down;
type = TopGhost;
},
{
origin = "{0, 14}";
target = "{0, 7}";
type = Stem;
},
{
origin = "{0, 3}";
target = "{0, 0}";
type = Stem;
}
);
layerId = "3D3F176D-2450-4887-9AC4-1237D1CC87EB";
paths = (
{
closed = 1;
nodes = (
"759.5 0 LINE",
"759.5 470 LINE",
"707.5 470 LINE",
"707.5 58.5 LINE",
"146.05 58.5 LINE",
"133.35 99.7 OFFCURVE",
"129 143.9 OFFCURVE",
"129 204.5 CURVE SMOOTH",
"129 249.2 OFFCURVE",
"136.65 303.7 OFFCURVE",
"152.3 360.85 CURVE",
"103.6 370 LINE",
"88.35 330.65 OFFCURVE",
"77 256.9 OFFCURVE",
"77 200.05 CURVE SMOOTH",
"77 50.1 OFFCURVE",
"107.35 0 OFFCURVE",
"203.35 0 CURVE"
);
}
);
width = 870;
}
);
unicode = 066E;
},
{
glyphname = "dotlessbeh-ar.fina";
layers = (
{
anchors = (
{
name = bottom;
position = "{459, -80}";
},
{
name = top;
position = "{459, 450}";
}
);
components = (
{
name = "dotlessbeh-ar";
},
{
name = connection_r;
transform = "{1, 0, 0, 1, 875, 0}";
}
);
layerId = "1124150E-252C-4727-BAB2-2837E441E30C";
paths = (
{
closed = 1;
nodes = (
"924 0 LINE",
"924 180 LINE",
"854 180 LINE",
"854 0 LINE"
);
}
);
width = 924;
},
{
anchors = (
{
name = bottom;
position = "{459, -80}";
},
{
name = top;
position = "{459, 450}";
}
);
associatedMasterId = "1124150E-252C-4727-BAB2-2837E441E30C";
components = (
{
name = "dotlessbeh-ar";
}
);
layerId = "FD498C8E-D445-4456-86EF-F4DCE5342F1E";
name = "Jun 24 17, 16:38";
paths = (
{
closed = 1;
nodes = (
"924 0 LINE",
"944 90 LINE",
"924 180 LINE",
"834 180 LINE",
"834 0 LINE"
);
}
);
width = 924;
},
{
anchors = (
{
name = bottom;
position = "{432, -93.5}";
},
{
name = top;
position = "{432, 450}";
}
);
components = (
{
alignment = -1;
name = "dotlessbeh-ar";
},
{
alignment = -1;
name = connection_r;
transform = "{1, 0, 0, 1, 822.35, 0}";
}
);
hints = (
{
horizontal = 1;
origin = "{0, 3}";
target = "{0, 2}";
type = Stem;
}
);
layerId = "3D3F176D-2450-4887-9AC4-1237D1CC87EB";
paths = (
{
closed = 1;
nodes = (
"870 0 LINE",
"870 58.5 LINE",
"759.5 58.5 LINE",
"759.5 0 LINE"
);
}
);
width = 870;
}
);
leftMetricsKey = "=dotlessbeh-ar";
},
{
glyphname = "dotlessbeh-ar.medi";
layers = (
{
anchors = (
{
name = bottom;
position = "{210, -80}";
},
{
name = top;
position = "{210, 550}";
}
);
color = 5;
components = (
{
name = "dotlessbeh-ar.init";
},
{
name = connection_r;
transform = "{1, 0, 0, 1, 311, 0}";
}
);
layerId = "1124150E-252C-4727-BAB2-2837E441E30C";
paths = (
{
closed = 1;
nodes = (
"360 0 LINE",
"360 180 LINE",
"290 180 LINE",
"290 0 LINE"
);
}
);
width = 360;
},
{
anchors = (
{
name = bottom;
position = "{169.5, -80}";
},
{
name = top;
position = "{169.5, 550}";
}
);
components = (
{
alignment = -1;
name = "dotlessbeh-ar.init";
},
{
alignment = -1;
name = connection_r;
transform = "{1, 0, 0, 1, 258.35, 0}";
}
);
hints = (
{
horizontal = 1;
origin = "{0, 3}";
target = "{0, 2}";
type = Stem;
},
{
horizontal = 1;
place = "{634.5, -27}";
target = down;
type = TopGhost;
},
{
place = "{189, 108}";
type = Stem;
}
);
layerId = "3D3F176D-2450-4887-9AC4-1237D1CC87EB";
paths = (
{
closed = 1;
nodes = (
"306 0 LINE",
"306 58.5 LINE",
"195.5 58.5 LINE",
"195.5 0 LINE"
);
}
);
width = 306;
}
);
},
{
glyphname = "dotlessbeh-ar.init";
layers = (
{
anchors = (
{
name = bottom;
position = "{210, -80}";
},
{
name = top;
position = "{210, 550}";
}
);
color = 5;
components = (
{
name = connection_l;
}
);
layerId = "1124150E-252C-4727-BAB2-2837E441E30C";
paths = (
{
closed = 1;
nodes = (
"290 0 LINE",
"290 470 LINE",
"130 470 LINE",
"130 99 LINE",
"211 180 LINE",
"0 180 LINE",
"0 0 LINE"
);
}
);
width = 360;
},
{
anchors = (
{
name = bottom;
position = "{210, -80}";
},
{
name = top;
position = "{210, 550}";
}
);
associatedMasterId = "1124150E-252C-4727-BAB2-2837E441E30C";
color = 5;
layerId = "8B9301FF-4A1A-466A-9A5E-2A116D1F101D";
name = "Jun 24 17, 16:39";
paths = (
{
closed = 1;
nodes = (
"290 0 LINE",
"290 470 LINE",
"130 470 LINE",
"130 180 LINE",
"0 180 LINE",
"-20 90 LINE",
"0 0 LINE"
);
}
);
width = 360;
},
{
anchors = (
{
name = bottom;
position = "{169.5, -80}";
},
{
name = top;
position = "{169.5, 550}";
}
);
components = (
{
alignment = -1;
name = connection_l;
}
);
hints = (
{
horizontal = 1;
origin = "{0, 6}";
target = "{0, 5}";
type = Stem;
},
{
horizontal = 1;
origin = "{0, 2}";
target = down;
type = TopGhost;
},
{
origin = "{0, 4}";
target = "{0, 0}";
type = Stem;
}
);
layerId = "3D3F176D-2450-4887-9AC4-1237D1CC87EB";
paths = (
{
closed = 1;
nodes = (
"195.5 0 LINE",
"195.5 470 LINE",
"143.5 470 LINE",
"143.5 26.1 LINE",
"175.9 58.5 LINE",
"0 58.5 LINE",
"0 0 LINE"
);
}
);
width = 306;
}
);
},
{
glyphname = "tcheh-ar";
layers = (
{
anchors = (
{
name = bottom;
position = "{300, -410}";
},
{
name = top;
position = "{300, 573}";
}
);
background = {
paths = (
{
closed = 1;
nodes = (
"279 -117 OFFCURVE",
"227 -114 OFFCURVE",
"202 -111 CURVE",
"202 18 LINE SMOOTH",
"202 80 OFFCURVE",
"329 110 OFFCURVE",
"591 110 CURVE",
"535 270 LINE",
"184 270 OFFCURVE",
"42 182 OFFCURVE",
"42 -37 CURVE SMOOTH",
"42 -227 OFFCURVE",
"103 -297 OFFCURVE",
"270 -297 CURVE",
"328 -289 LINE",
"310 -117 LINE"
);
}
);
};
color = 1;
components = (
{
alignment = -1;
name = "threedotsdownbelow-ar";
transform = "{0.8, 0, 0, 0.8, 271, 97}";
}
);
layerId = "1124150E-252C-4727-BAB2-2837E441E30C";
paths = (
{
closed = 1;
nodes = (
"266 -295 OFFCURVE",
"295 -290 OFFCURVE",
"328 -279 CURVE",
"310 -107 LINE",
"292 -112 OFFCURVE",
"266 -115 OFFCURVE",
"243 -115 CURVE SMOOTH",
"227 -115 OFFCURVE",
"212 -114 OFFCURVE",
"202 -111 CURVE",
"202 18 LINE SMOOTH",
"202 80 OFFCURVE",
"329 110 OFFCURVE",
"591 110 CURVE",
"535 270 LINE",
"184 270 OFFCURVE",
"42 182 OFFCURVE",
"42 -37 CURVE SMOOTH",
"42 -222 OFFCURVE",
"85 -295 OFFCURVE",
"239 -295 CURVE SMOOTH"
);
},
{
closed = 1;
nodes = (
"591 270 LINE",
"535 270 LINE",
"485 420 OFFCURVE",
"385 485 OFFCURVE",
"205 485 CURVE SMOOTH",
"165 485 OFFCURVE",
"120 482 OFFCURVE",
"54 474 CURVE",
"78 297 LINE",
"121 303 OFFCURVE",
"152 305 OFFCURVE",
"179 305 CURVE SMOOTH",
"267 305 OFFCURVE",
"322 283 OFFCURVE",
"350 236 CURVE SMOOTH",
"388 148 OFFCURVE",
"461 110 OFFCURVE",
"591 110 CURVE"
);
}
);
width = 600;
},
{
anchors = (
{
name = bottom;
position = "{262.2, -396.5}";
},
{
name = top;
position = "{262.2, 573}";
}
);
components = (
{
alignment = -1;
name = "threedotsdownbelow-ar";
transform = "{1.07, 0, 0, 1.07, 176.5, 138.85}";
}
);
hints = (
{
horizontal = 1;
origin = "{0, 20}";
target = "{0, 6}";
type = Stem;
},
{
horizontal = 1;
origin = "{0, 13}";
target = "{0, 14}";
type = Stem;
},
{
horizontal = 1;
origin = "{1, 4}";
target = "{1, 11}";
type = Stem;
},
{
origin = "{0, 17}";
target = "{0, 9}";
type = Stem;
}
);
layerId = "3D3F176D-2450-4887-9AC4-1237D1CC87EB";
paths = (
{
closed = 1;
nodes = (
"240.35 -268 OFFCURVE",
"276.1 -263 OFFCURVE",
"315.85 -254.7 CURVE",
"305.95 -201.5 LINE",
"259.6 -206.5 OFFCURVE",
"224.15 -209.5 OFFCURVE",
"193.05 -209.5 CURVE SMOOTH",
"162.2 -209.5 OFFCURVE",
"136.4 -205.8 OFFCURVE",
"112.9 -201.45 CURVE",
"112.9 -7.65 LINE SMOOTH",
"112.9 136.7 OFFCURVE",
"221 188.3 OFFCURVE",
"542.4 188.3 CURVE",
"486.4 240.3 LINE",
"169.15 240.3 OFFCURVE",
"54.15 160.4 OFFCURVE",
"54.15 -57.25 CURVE SMOOTH",
"54.15 -215.25 OFFCURVE",
"80.95 -268 OFFCURVE",
"207.95 -268 CURVE SMOOTH"
);
},
{
closed = 1;
nodes = (
"542.4 240.3 LINE",
"486.4 240.3 LINE",
"422.9 410.55 OFFCURVE",
"325.6 478.25 OFFCURVE",
"144.25 478.25 CURVE SMOOTH",
"115.05 478.25 OFFCURVE",
"83.55 476.6 OFFCURVE",
"54 474 CURVE",
"63.15 417.15 LINE",
"81.85 419.1 OFFCURVE",
"107.45 419.75 OFFCURVE",
"139.85 419.75 CURVE SMOOTH",
"281.85 419.75 OFFCURVE",
"369.25 370.75 OFFCURVE",
"417.5 264.35 CURVE SMOOTH",
"440.65 204.7 OFFCURVE",
"467.75 188.3 OFFCURVE",
"542.4 188.3 CURVE"
);
}
);
width = 531.15;
}
);
unicode = 0686;
},
{
glyphname = "tcheh-ar.fina";
layers = (
{
anchors = (
{
name = bottom;
position = "{402, -410}";
},
{
name = top;
position = "{402, 573}";
}
);
color = 1;
components = (
{
alignment = -1;
name = "threedotsdownbelow-ar";
transform = "{0.8, 0, 0, 0.8, 271, 97}";
}
);
layerId = "1124150E-252C-4727-BAB2-2837E441E30C";
paths = (
{
closed = 1;
nodes = (
"266 -295 OFFCURVE",
"295 -290 OFFCURVE",
"328 -279 CURVE",
"310 -107 LINE",
"292 -112 OFFCURVE",
"266 -115 OFFCURVE",
"243 -115 CURVE SMOOTH",
"227 -115 OFFCURVE",
"212 -114 OFFCURVE",
"202 -111 CURVE",
"202 18 LINE SMOOTH",
"202 73 OFFCURVE",
"329 100 OFFCURVE",
"591 100 CURVE",
"535 240 LINE",
"184 240 OFFCURVE",
"42 161 OFFCURVE",
"42 -37 CURVE SMOOTH",
"42 -222 OFFCURVE",
"85 -295 OFFCURVE",
"239 -295 CURVE SMOOTH"
);
},
{
closed = 1;
nodes = (
"772 0 LINE",
"792 90 LINE",
"772 180 LINE",
"707 180 LINE",
"675 270 LINE SMOOTH",
"622 422 OFFCURVE",
"528 485 OFFCURVE",
"355 485 CURVE SMOOTH",
"315 485 OFFCURVE",
"268 482 OFFCURVE",
"204 474 CURVE",
"228 297 LINE",
"274 302 OFFCURVE",
"318 305 OFFCURVE",
"359 305 CURVE SMOOTH",
"454 305 OFFCURVE",
"505 275 OFFCURVE",
"532 205 CURVE SMOOTH",
"589 56 LINE SMOOTH",
"604 17 OFFCURVE",
"629 0 OFFCURVE",
"673 0 CURVE SMOOTH"
);
}
);
width = 772;
},
{
anchors = (
{
name = bottom;
position = "{294, -396.5}";
},
{
name = top;
position = "{294, 573}";
}
);
components = (
{
alignment = -1;
name = "threedotsdownbelow-ar";
transform = "{1.07, 0, 0, 1.07, 176.5, 138.85}";
}
);
hints = (
{
horizontal = 1;
origin = "{0, 20}";
target = "{0, 6}";
type = Stem;
},
{
horizontal = 1;
origin = "{1, 21}";
target = "{1, 3}";
type = Stem;
},
{
horizontal = 1;
origin = "{0, 13}";
target = "{0, 14}";
type = Stem;
},
{
horizontal = 1;
origin = "{1, 7}";
target = "{1, 14}";
type = Stem;
},
{
origin = "{0, 17}";
target = "{0, 9}";
type = Stem;
}
);
layerId = "3D3F176D-2450-4887-9AC4-1237D1CC87EB";
paths = (
{
closed = 1;
nodes = (
"240.35 -268 OFFCURVE",
"276.1 -263 OFFCURVE",
"315.85 -254.7 CURVE",
"305.95 -201.5 LINE",
"259.6 -206.5 OFFCURVE",
"224.15 -209.5 OFFCURVE",
"193.05 -209.5 CURVE SMOOTH",
"162.2 -209.5 OFFCURVE",
"136.4 -205.8 OFFCURVE",
"112.9 -201.45 CURVE",
"112.9 -7.65 LINE SMOOTH",
"112.9 139.15 OFFCURVE",
"221 191.8 OFFCURVE",
"542.4 191.8 CURVE",
"486.4 237.3 LINE",
"169.15 237.3 OFFCURVE",
"54.15 158.3 OFFCURVE",
"54.15 -57.25 CURVE SMOOTH",
"54.15 -215.25 OFFCURVE",
"80.95 -268 OFFCURVE",
"207.95 -268 CURVE SMOOTH"
);
},
{
closed = 1;
nodes = (
"637 0 LINE",
"657 29.25 LINE",
"637 58.5 LINE",
"605.75 58.5 LINE",
"525.15 270 LINE SMOOTH",
"469.45 419.3 OFFCURVE",
"391.65 478.25 OFFCURVE",
"226.75 478.25 CURVE SMOOTH",
"197.55 478.25 OFFCURVE",
"166.75 476.6 OFFCURVE",
"136.5 474 CURVE",
"145.65 417.15 LINE",
"171.4 419.45 OFFCURVE",
"192.45 419.75 OFFCURVE",
"211.85 419.75 CURVE SMOOTH",
"363.55 419.75 OFFCURVE",
"422.65 377.6 OFFCURVE",
"478 246.85 CURVE SMOOTH",
"551.2 56 LINE SMOOTH",
"566.2 17 OFFCURVE",
"584.45 0 OFFCURVE",
"623.05 0 CURVE SMOOTH"
);
}
);
width = 637;
}
);
unicode = FB7B;
},
{
glyphname = "hah-ar";
layers = (
{
anchors = (
{
name = bottom;
position = "{299, -410}";
},
{
name = center;
position = "{362, -25}";
},
{
name = top;
position = "{299, 550}";
}
);
guideLines = (
{
angle = 180;
position = "{526, 130}";
}
);
layerId = "1124150E-252C-4727-BAB2-2837E441E30C";
paths = (
{
closed = 1;
nodes = (
"362 -297 OFFCURVE",
"448 -286 OFFCURVE",
"520 -265 CURVE",
"502 -93 LINE",
"436 -110 OFFCURVE",
"378 -117 OFFCURVE",
"310 -117 CURVE SMOOTH",
"279 -117 OFFCURVE",
"227 -114 OFFCURVE",
"202 -111 CURVE",
"202 18 LINE SMOOTH",
"202 80 OFFCURVE",
"329 110 OFFCURVE",
"591 110 CURVE",
"535 270 LINE",
"184 270 OFFCURVE",
"42 182 OFFCURVE",
"42 -37 CURVE SMOOTH",
"42 -227 OFFCURVE",
"103 -297 OFFCURVE",
"270 -297 CURVE SMOOTH"
);
},
{
closed = 1;
nodes = (
"591 270 LINE",
"535 270 LINE",
"485 420 OFFCURVE",
"385 485 OFFCURVE",
"205 485 CURVE SMOOTH",
"165 485 OFFCURVE",
"120 482 OFFCURVE",
"54 474 CURVE",
"78 297 LINE",
"121 303 OFFCURVE",
"152 305 OFFCURVE",
"179 305 CURVE SMOOTH",
"267 305 OFFCURVE",
"322 283 OFFCURVE",
"350 236 CURVE SMOOTH",
"388 148 OFFCURVE",
"461 110 OFFCURVE",
"591 110 CURVE"
);
}
);
width = 591;
},
{
anchors = (
{
name = bottom;
position = "{272, -396.5}";
},
{
name = center;
position = "{289.1, -58.75}";
},
{
name = top;
position = "{272, 550}";
}
);
color = 1;
hints = (
{
horizontal = 1;
origin = "{0, 20}";
target = "{0, 6}";
type = Stem;
},
{
horizontal = 1;
origin = "{0, 13}";
target = "{0, 14}";
type = Stem;
},
{
horizontal = 1;
origin = "{1, 4}";
target = "{1, 11}";
type = Stem;
},
{
origin = "{0, 17}";
target = "{0, 9}";
type = Stem;
}
);
layerId = "3D3F176D-2450-4887-9AC4-1237D1CC87EB";
paths = (
{
closed = 1;
nodes = (
"320.15 -270 OFFCURVE",
"394 -260.35 OFFCURVE",
"436.3 -243.4 CURVE",
"426.4 -190.2 LINE",
"348.25 -205.85 OFFCURVE",
"307.8 -211.5 OFFCURVE",
"265.45 -211.5 CURVE SMOOTH",
"191.25 -211.5 OFFCURVE",
"150.05 -208.5 OFFCURVE",
"112.9 -201.45 CURVE",
"112.9 -7.65 LINE SMOOTH",
"112.9 136.7 OFFCURVE",
"221 188.3 OFFCURVE",
"542.4 188.3 CURVE",
"486.4 240.3 LINE",
"169.15 240.3 OFFCURVE",
"54.15 160.4 OFFCURVE",
"54.15 -57.25 CURVE SMOOTH",
"54.15 -240.5 OFFCURVE",
"80.05 -270 OFFCURVE",
"241.65 -270 CURVE SMOOTH"
);
},
{
closed = 1;
nodes = (
"542.4 240.3 LINE",
"486.4 240.3 LINE",
"422.9 410.55 OFFCURVE",
"325.6 478.25 OFFCURVE",
"144.25 478.25 CURVE SMOOTH",
"115.05 478.25 OFFCURVE",
"83.55 476.6 OFFCURVE",
"54 474 CURVE",
"63.15 417.15 LINE",
"81.85 419.1 OFFCURVE",
"107.45 419.75 OFFCURVE",
"139.85 419.75 CURVE SMOOTH",
"281.85 419.75 OFFCURVE",
"369.25 370.75 OFFCURVE",
"417.5 264.35 CURVE SMOOTH",
"440.65 204.7 OFFCURVE",
"467.75 188.3 OFFCURVE",
"542.4 188.3 CURVE"
);
}
);
width = 542.4;
}
);
unicode = 062D;
},
{
glyphname = "hah-ar.fina";
layers = (
{
anchors = (
{
name = bottom;
position = "{299, -410}";
},
{
name = center;
position = "{326, -31}";
},
{
name = top;
position = "{299, 550}";
}
);
color = 1;
components = (
{
name = connection_r;
transform = "{1, 0, 0, 1, 573, 0}";
}
);
layerId = "1124150E-252C-4727-BAB2-2837E441E30C";
paths = (
{
closed = 1;
nodes = (
"622 0 LINE",
"622 180 LINE",
"557 180 LINE",
"525 270 LINE SMOOTH",
"472 422 OFFCURVE",
"378 485 OFFCURVE",
"205 485 CURVE SMOOTH",
"165 485 OFFCURVE",
"118 482 OFFCURVE",
"54 474 CURVE",
"78 297 LINE",
"124 302 OFFCURVE",
"168 305 OFFCURVE",
"209 305 CURVE SMOOTH",
"304 305 OFFCURVE",
"355 275 OFFCURVE",
"382 205 CURVE SMOOTH",
"439 56 LINE SMOOTH",
"454 17 OFFCURVE",
"479 0 OFFCURVE",
"523 0 CURVE SMOOTH"
);
},
{
closed = 1;
nodes = (
"362 -297 OFFCURVE",
"448 -286 OFFCURVE",
"520 -265 CURVE",
"502 -93 LINE",
"436 -110 OFFCURVE",
"378 -117 OFFCURVE",
"310 -117 CURVE SMOOTH",
"268 -117 OFFCURVE",
"236 -114 OFFCURVE",
"208 -111 CURVE",
"208 18 LINE SMOOTH",
"208 80 OFFCURVE",
"303 112 OFFCURVE",
"503 118 CURVE",
"456 258 LINE",
"167 245 OFFCURVE",
"38 154 OFFCURVE",
"38 -37 CURVE SMOOTH",
"38 -217 OFFCURVE",
"109 -297 OFFCURVE",
"270 -297 CURVE SMOOTH"
);
}
);
width = 622;
},
{
anchors = (
{
name = bottom;
position = "{299, -410}";
},
{
name = center;
position = "{326, -31}";
},
{
name = top;
position = "{299, 550}";
}
);
associatedMasterId = "1124150E-252C-4727-BAB2-2837E441E30C";
color = 1;
layerId = "0E5B45AE-DE15-49C1-B9B6-5863B4BD449D";
name = "Jun 24 17, 16:40";
paths = (
{
closed = 1;
nodes = (
"622 0 LINE",
"642 90 LINE",
"622 180 LINE",
"557 180 LINE",
"525 270 LINE SMOOTH",
"472 422 OFFCURVE",
"378 485 OFFCURVE",
"205 485 CURVE SMOOTH",
"165 485 OFFCURVE",
"118 482 OFFCURVE",
"54 474 CURVE",
"78 297 LINE",
"124 302 OFFCURVE",
"168 305 OFFCURVE",
"209 305 CURVE SMOOTH",
"304 305 OFFCURVE",
"355 275 OFFCURVE",
"382 205 CURVE SMOOTH",
"439 56 LINE SMOOTH",
"454 17 OFFCURVE",
"479 0 OFFCURVE",
"523 0 CURVE SMOOTH"
);
},
{
closed = 1;
nodes = (
"362 -297 OFFCURVE",
"448 -286 OFFCURVE",
"520 -265 CURVE",
"502 -93 LINE",
"436 -110 OFFCURVE",
"378 -117 OFFCURVE",
"310 -117 CURVE SMOOTH",
"268 -117 OFFCURVE",
"236 -114 OFFCURVE",
"208 -111 CURVE",
"208 18 LINE SMOOTH",
"208 80 OFFCURVE",
"303 112 OFFCURVE",
"503 118 CURVE",
"456 258 LINE",
"167 245 OFFCURVE",
"38 154 OFFCURVE",
"38 -37 CURVE SMOOTH",
"38 -217 OFFCURVE",
"109 -297 OFFCURVE",
"270 -297 CURVE SMOOTH"
);
}
);
width = 622;
},
{
anchors = (
{
name = bottom;
position = "{272, -396.5}";
},
{
name = center;
position = "{294.95, -76.9}";
},
{
name = top;
position = "{272, 550}";
}
);
components = (
{
alignment = -1;
name = connection_r;
transform = "{1, 0, 0, 1, 506.85, 0}";
}
);
hints = (
{
horizontal = 1;
origin = "{1, 20}";
target = "{1, 6}";
type = Stem;
},
{
horizontal = 1;
origin = "{0, 20}";
target = "{0, 2}";
type = Stem;
},
{
horizontal = 1;
place = "{234.9, 94.5}";
type = Stem;
},
{
horizontal = 1;
origin = "{0, 6}";
target = "{0, 13}";
type = Stem;
},
{
origin = "{1, 17}";
target = "{1, 9}";
type = Stem;
}
);
layerId = "3D3F176D-2450-4887-9AC4-1237D1CC87EB";
paths = (
{
closed = 1;
nodes = (
"554.5 0 LINE",
"554.5 58.5 LINE",
"523.25 58.5 LINE",
"442.65 270 LINE SMOOTH",
"386.95 419.3 OFFCURVE",
"309.15 478.25 OFFCURVE",
"144.25 478.25 CURVE SMOOTH",
"115.05 478.25 OFFCURVE",
"84.25 476.6 OFFCURVE",
"54 474 CURVE",
"63.15 417.15 LINE",
"88.9 419.45 OFFCURVE",
"109.95 419.75 OFFCURVE",
"129.35 419.75 CURVE SMOOTH",
"281.05 419.75 OFFCURVE",
"340.15 377.6 OFFCURVE",
"395.5 246.85 CURVE SMOOTH",
"468.7 56 LINE SMOOTH",
"483.7 17 OFFCURVE",
"501.95 0 OFFCURVE",
"540.55 0 CURVE SMOOTH"
);
},
{
closed = 1;
nodes = (
"314.75 -270 OFFCURVE",
"391.3 -260.35 OFFCURVE",
"436.3 -243.4 CURVE",
"426.4 -190.2 LINE",
"350.95 -205.85 OFFCURVE",
"310.5 -211.5 OFFCURVE",
"265.45 -211.5 CURVE SMOOTH",
"203.2 -211.5 OFFCURVE",
"150.95 -209.85 OFFCURVE",
"110.8 -201.45 CURVE",
"110.8 -7.65 LINE SMOOTH",
"110.8 140.75 OFFCURVE",
"228.75 188.95 OFFCURVE",
"451.7 197.65 CURVE",
"439.8 243.15 LINE",
"183.2 236.9 OFFCURVE",
"55.55 172.9 OFFCURVE",
"55.55 -57.25 CURVE SMOOTH",
"55.55 -231.85 OFFCURVE",
"67.15 -270 OFFCURVE",
"241.65 -270 CURVE SMOOTH"
);
}
);
width = 554.5;
}
);
unicode = FEA2;
},
{
glyphname = "hah-ar.medi";
layers = (
{
anchors = (
{
name = bottom;
position = "{319, -80}";
},
{
name = top;
position = "{289, 550}";
}
);
components = (
{
name = connection_r;
transform = "{1, 0, 0, 1, 571, 0}";
},
{
name = connection_l;
}
);
guideLines = (
{
angle = 20.427;
position = "{561, 225}";
showMeasurement = 1;
},
{
angle = 255.114;
position = "{505, 270}";
}
);
layerId = "1124150E-252C-4727-BAB2-2837E441E30C";
paths = (
{
closed = 1;
nodes = (
"620 0 LINE",
"620 180 LINE",
"557 180 LINE",
"525 270 LINE SMOOTH",
"473 419 OFFCURVE",
"382 485 OFFCURVE",
"205 485 CURVE SMOOTH",
"160 485 OFFCURVE",
"110 481 OFFCURVE",
"54 474 CURVE",
"78 297 LINE",
"127 303 OFFCURVE",
"171 305 OFFCURVE",
"209 305 CURVE SMOOTH",
"310 305 OFFCURVE",
"357 271 OFFCURVE",
"382 205 CURVE SMOOTH",
"439 56 LINE SMOOTH",
"454 17 OFFCURVE",
"479 0 OFFCURVE",
"523 0 CURVE SMOOTH"
);
},
{
closed = 1;
nodes = (
"173 0 LINE SMOOTH",
"315 0 OFFCURVE",
"450 63 OFFCURVE",
"505 270 CURVE",
"356 318 LINE",
"335 239 OFFCURVE",
"294 180 OFFCURVE",
"184 180 CURVE",
"0 180 LINE",
"0 0 LINE"
);
}
);
width = 620;
},
{
anchors = (
{
name = bottom;
position = "{319, -80}";
},
{
name = top;
position = "{289, 550}";
}
);
associatedMasterId = "1124150E-252C-4727-BAB2-2837E441E30C";
guideLines = (
{
angle = 20.427;
position = "{561, 225}";
showMeasurement = 1;
},
{
angle = 255.114;
position = "{505, 270}";
}
);
layerId = "8F47D6A4-0415-49EC-8427-9AFF42427FB9";
name = "Jun 24 17, 16:41";
paths = (
{
closed = 1;
nodes = (
"620 0 LINE",
"640 90 LINE",
"620 180 LINE",
"557 180 LINE",
"525 270 LINE SMOOTH",
"473 419 OFFCURVE",
"382 485 OFFCURVE",
"205 485 CURVE SMOOTH",
"160 485 OFFCURVE",
"110 481 OFFCURVE",
"54 474 CURVE",
"78 297 LINE",
"127 303 OFFCURVE",
"171 305 OFFCURVE",
"209 305 CURVE SMOOTH",
"310 305 OFFCURVE",
"357 271 OFFCURVE",
"382 205 CURVE SMOOTH",
"439 56 LINE SMOOTH",
"454 17 OFFCURVE",
"479 0 OFFCURVE",
"523 0 CURVE SMOOTH"
);
},
{
closed = 1;
nodes = (
"173 0 LINE SMOOTH",
"315 0 OFFCURVE",
"450 63 OFFCURVE",
"505 270 CURVE",
"356 318 LINE",
"335 239 OFFCURVE",
"294 180 OFFCURVE",
"184 180 CURVE",
"0 180 LINE",
"-20 90 LINE",
"0 0 LINE"
);
}
);
width = 620;
},
{
anchors = (
{
name = bottom;
position = "{246.1, -80}";
},
{
name = top;
position = "{221.5, 550}";
}
);
components = (
{
alignment = -1;
name = connection_r;
transform = "{1, 0, 0, 1, 507.55, 0}";
},
{
alignment = -1;
name = connection_l;
}
);
hints = (
{
horizontal = 1;
origin = "{1, 9}";
target = "{1, 8}";
type = Stem;
},
{
horizontal = 1;
origin = "{0, 6}";
target = "{0, 13}";
type = Stem;
}
);
layerId = "3D3F176D-2450-4887-9AC4-1237D1CC87EB";
paths = (
{
closed = 1;
nodes = (
"555.2 0 LINE",
"555.2 58.5 LINE",
"523.25 58.5 LINE",
"442.65 270 LINE SMOOTH",
"386.6 420.35 OFFCURVE",
"307.75 478.25 OFFCURVE",
"144.25 478.25 CURVE SMOOTH",
"116.8 478.25 OFFCURVE",
"87.05 476.95 OFFCURVE",
"54 474 CURVE",
"63.15 417.15 LINE",
"87.85 419.1 OFFCURVE",
"108.9 419.75 OFFCURVE",
"129.35 419.75 CURVE SMOOTH",
"278.95 419.75 OFFCURVE",
"339.45 379 OFFCURVE",
"395.5 246.85 CURVE SMOOTH",
"468.7 56 LINE SMOOTH",
"483.7 17 OFFCURVE",
"501.95 0 OFFCURVE",
"540.55 0 CURVE SMOOTH"
);
},
{
closed = 1;
nodes = (
"159.5 0 LINE SMOOTH",
"331.2 0 OFFCURVE",
"410.85 111.6 OFFCURVE",
"457.75 220.05 CURVE",
"410 246.45 LINE",
"378.2 167.45 OFFCURVE",
"306.15 58.5 OFFCURVE",
"200.2 58.5 CURVE SMOOTH",
"0 58.5 LINE",
"0 0 LINE"
);
}
);
width = 555.2;
}
);
unicode = FEA4;
},
{
glyphname = "hah-ar.init";
layers = (
{
anchors = (
{
name = bottom;
position = "{289, -80}";
},
{
name = top;
position = "{289, 550}";
}
);
background = {
paths = (
{
closed = 1;
nodes = (
"427 130 LINE",
"591 130 LINE",
"591 270 LINE",
"398 270 LINE"
);
}
);
};
components = (
{
name = connection_l;
}
);
layerId = "1124150E-252C-4727-BAB2-2837E441E30C";
paths = (
{
closed = 1;
nodes = (
"591 149 LINE",
"591 329 LINE",
"500 329 LINE",
"452 437 OFFCURVE",
"368 485 OFFCURVE",
"205 485 CURVE SMOOTH",
"160 485 OFFCURVE",
"110 481 OFFCURVE",
"54 474 CURVE",
"78 297 LINE",
"127 303 OFFCURVE",
"171 305 OFFCURVE",
"209 305 CURVE SMOOTH",
"310 305 OFFCURVE",
"357 271 OFFCURVE",
"382 205 CURVE SMOOTH",
"397 166 OFFCURVE",
"422 149 OFFCURVE",
"466 149 CURVE SMOOTH"
);
},
{
closed = 1;
nodes = (
"143 0 LINE SMOOTH",
"298 0 OFFCURVE",
"445 63 OFFCURVE",
"505 270 CURVE",
"356 318 LINE",
"331 239 OFFCURVE",
"283 180 OFFCURVE",
"154 180 CURVE SMOOTH",
"0 180 LINE",
"0 0 LINE"
);
}
);
width = 591;
},
{
anchors = (
{
name = bottom;
position = "{289, -80}";
},
{
name = exit;
position = "{0, 70}";
},
{
name = top;
position = "{289, 550}";
}
);
associatedMasterId = "1124150E-252C-4727-BAB2-2837E441E30C";
background = {
paths = (
{
closed = 1;
nodes = (
"427 130 LINE",
"591 130 LINE",
"591 270 LINE",
"398 270 LINE"
);
}
);
};
layerId = "2E185BD9-AE19-4E4A-8C74-5D4C96BD5DD3";
name = "Bold Dec 5 15, 15:25";
paths = (
{
closed = 1;
nodes = (
"344 239 OFFCURVE",
"259 156 OFFCURVE",
"184 140 CURVE",
"-20 140 LINE",
"-20 0 LINE",
"173 0 LINE SMOOTH",
"323 0 OFFCURVE",
"442 91 OFFCURVE",
"525 270 CURVE",
"366 318 LINE"
);
},
{
closed = 1;
nodes = (
"388 162 OFFCURVE",
"461 130 OFFCURVE",
"591 130 CURVE",
"591 280 LINE",
"535 280 LINE",
"485 423 OFFCURVE",
"385 485 OFFCURVE",
"205 485 CURVE SMOOTH",
"165 485 OFFCURVE",
"118 482 OFFCURVE",
"54 474 CURVE",
"78 327 LINE",
"114 332 OFFCURVE",
"148 335 OFFCURVE",
"179 335 CURVE SMOOTH",
"267 335 OFFCURVE",
"322 303 OFFCURVE",
"350 236 CURVE SMOOTH"
);
}
);
width = 591;
},
{
anchors = (
{
name = bottom;
position = "{256.6, -80}";
},
{
name = top;
position = "{221.5, 550}";
}
);
components = (
{
alignment = -1;
name = connection_l;
}
);
hints = (
{
horizontal = 1;
origin = "{1, 9}";
target = "{1, 8}";
type = Stem;
},
{
horizontal = 1;
origin = "{0, 18}";
target = "{0, 2}";
type = Stem;
},
{
horizontal = 1;
origin = "{0, 5}";
target = "{0, 12}";
type = Stem;
}
);
layerId = "3D3F176D-2450-4887-9AC4-1237D1CC87EB";
paths = (
{
closed = 1;
nodes = (
"542.4 190.85 LINE",
"542.4 249.35 LINE",
"450.05 249.35 LINE",
"392.6 414.05 OFFCURVE",
"312.65 478.25 OFFCURVE",
"144.25 478.25 CURVE SMOOTH",
"116.8 478.25 OFFCURVE",
"87.05 476.95 OFFCURVE",
"54 474 CURVE",
"63.15 417.15 LINE",
"87.85 419.1 OFFCURVE",
"108.9 419.75 OFFCURVE",
"129.35 419.75 CURVE SMOOTH",
"280.3 419.75 OFFCURVE",
"346.2 383.05 OFFCURVE",
"395.5 246.85 CURVE SMOOTH",
"409.15 207.85 OFFCURVE",
"428.75 190.85 OFFCURVE",
"467.35 190.85 CURVE SMOOTH"
);
},
{
closed = 1;
nodes = (
"143 0 LINE SMOOTH",
"325 0 OFFCURVE",
"408.55 111.6 OFFCURVE",
"457.75 220.05 CURVE",
"410 246.45 LINE",
"374.2 167.45 OFFCURVE",
"291.1 58.5 OFFCURVE",
"170.2 58.5 CURVE SMOOTH",
"0 58.5 LINE",
"0 0 LINE"
);
}
);
width = 542.4;
}
);
note = "25-11 cambio de estructura";
unicode = FEA3;
},
{
glyphname = "dal-ar";
layers = (
{
anchors = (
{
name = bottom;
position = "{265, -100}";
},
{
name = top;
position = "{216, 550}";
}
);
background = {
paths = (
{
closed = 1;
nodes = (
"414 435 OFFCURVE",
"360 491 OFFCURVE",
"186 491 CURVE SMOOTH",
"138 491 OFFCURVE",
"85 485 OFFCURVE",
"46 475 CURVE",
"55 370 LINE",
"185 349 LINE SMOOTH",
"246 333 OFFCURVE",
"248 324 OFFCURVE",
"262 271 CURVE SMOOTH",
"297 140 LINE",
"20 140 LINE",
"20 0 LINE",
"491 0 LINE",
"491 140 LINE",
"457 271 LINE SMOOTH"
);
}
);
};
color = 1;
layerId = "1124150E-252C-4727-BAB2-2837E441E30C";
paths = (
{
closed = 1;
nodes = (
"491 0 LINE",
"491 140 LINE",
"429 425 OFFCURVE",
"372 491 OFFCURVE",
"186 491 CURVE SMOOTH",
"129 491 OFFCURVE",
"67 484 OFFCURVE",
"24 472 CURVE",
"68 298 LINE",
"103 306 OFFCURVE",
"146 311 OFFCURVE",
"186 311 CURVE SMOOTH",
"255 311 OFFCURVE",
"280 282 OFFCURVE",
"299 180 CURVE",
"20 180 LINE",
"20 0 LINE"
);
}
);
width = 541;
},
{
anchors = (
{
name = bottom;
position = "{198.85, -100}";
},
{
name = top;
position = "{160.65, 550}";
}
);
hints = (
{
horizontal = 1;
origin = "{0, 16}";
target = "{0, 15}";
type = Stem;
},
{
horizontal = 1;
origin = "{0, 11}";
target = "{0, 4}";
type = Stem;
}
);
layerId = "3D3F176D-2450-4887-9AC4-1237D1CC87EB";
paths = (
{
closed = 1;
nodes = (
"453.2 0 LINE",
"453.2 45.5 LINE",
"326.4 460.1 OFFCURVE",
"305.85 491 OFFCURVE",
"132 491 CURVE SMOOTH",
"115.5 491 OFFCURVE",
"87.25 488.05 OFFCURVE",
"56.4 481.45 CURVE",
"70.7 423.55 LINE",
"89.5 428.85 OFFCURVE",
"114.95 432.5 OFFCURVE",
"132 432.5 CURVE SMOOTH",
"261.75 432.5 OFFCURVE",
"298.9 377.85 OFFCURVE",
"390.8 58.5 CURVE",
"20 58.5 LINE",
"20 0 LINE"
);
}
);
width = 503.2;
}
);
unicode = 062F;
},
{
glyphname = "dal-ar.fina";
layers = (
{
anchors = (
{
name = bottom;
position = "{285, -100}";
},
{
name = top;
position = "{216, 550}";
}
);
components = (
{
name = "dal-ar";
},
{
name = connection_r;
transform = "{1, 0, 0, 1, 492, 0}";
}
);
layerId = "1124150E-252C-4727-BAB2-2837E441E30C";
paths = (
{
closed = 1;
nodes = (
"541 0 LINE",
"541 180 LINE",
"451 180 LINE",
"451 0 LINE"
);
}
);
width = 541;
},
{
anchors = (
{
name = bottom;
position = "{285, -100}";
},
{
name = top;
position = "{216, 550}";
}
);
associatedMasterId = "1124150E-252C-4727-BAB2-2837E441E30C";
components = (
{
name = "dal-ar";
}
);
layerId = "D066324E-A713-4DE1-88C5-BF616578DB4C";
name = "Jun 24 17, 16:41";
paths = (
{
closed = 1;
nodes = (
"541 0 LINE",
"561 90 LINE",
"541 180 LINE",
"451 180 LINE",
"451 0 LINE"
);
}
);
width = 541;
},
{
anchors = (
{
name = bottom;
position = "{191.85, -100}";
},
{
name = top;
position = "{160.65, 550}";
}
);
components = (
{
alignment = -1;
name = "dal-ar";
},
{
alignment = -1;
name = connection_r;
transform = "{1, 0, 0, 1, 428.55, 0}";
}
);
hints = (
{
horizontal = 1;
origin = "{0, 3}";
target = "{0, 2}";
type = Stem;
},
{
origin = "{0, 3}";
target = "{0, 0}";
type = Stem;
}
);
layerId = "3D3F176D-2450-4887-9AC4-1237D1CC87EB";
paths = (
{
closed = 1;
nodes = (
"476.2 0 LINE",
"476.2 58.5 LINE",
"440.2 58.5 LINE",
"440.2 0 LINE"
);
}
);
width = 476.2;
}
);
unicode = FEAA;
},
{
glyphname = "reh-ar";
layers = (
{
anchors = (
{
name = bottom;
position = "{126, -350}";
},
{
name = top;
position = "{191, 550}";
}
);
background = {
paths = (
{
closed = 0;
nodes = (
"121 470 LINE",
"121 0 LINE SMOOTH",
"121 -83 OFFCURVE",
"90 -146 OFFCURVE",
"18 -174 CURVE"
);
}
);
};
color = 1;
layerId = "1124150E-252C-4727-BAB2-2837E441E30C";
paths = (
{
closed = 1;
nodes = (
"218 -227 OFFCURVE",
"272 -142 OFFCURVE",
"272 28 CURVE SMOOTH",
"272 470 LINE",
"112 470 LINE",
"112 28 LINE SMOOTH",
"112 -80 OFFCURVE",
"96 -108 OFFCURVE",
"17 -141 CURVE",
"75 -285 LINE"
);
}
);
width = 341;
},
{
anchors = (
{
name = bottom;
position = "{126, -330}";
},
{
name = top;
position = "{191, 550}";
}
);
associatedMasterId = "1124150E-252C-4727-BAB2-2837E441E30C";
layerId = "CFBBE5FB-FF79-44DC-AE3F-9B4DECD44D66";
name = "Bold Nov 26 15, 12:55";
paths = (
{
closed = 1;
nodes = (
"136 -230 LINE SMOOTH",
"262 -230 OFFCURVE",
"291 -172 OFFCURVE",
"291 -65 CURVE SMOOTH",
"291 470 LINE",
"91 470 LINE",
"91 -25 LINE SMOOTH",
"91 -55 OFFCURVE",
"79 -65 OFFCURVE",
"43 -65 CURVE SMOOTH",
"-20 -65 LINE",
"0 -230 LINE"
);
}
);
width = 341;
},
{
anchors = (
{
name = bottom;
position = "{109.8, -350}";
},
{
name = top;
position = "{164, 550}";
}
);
color = 1;
hints = (
{
origin = "{0, 5}";
target = "{0, 2}";
type = Stem;
},
{
horizontal = 1;
origin = "{0, 4}";
target = down;
type = TopGhost;
},
{
horizontal = 1;
origin = "{0, 9}";
target = up;
type = BottomGhost;
}
);
layerId = "3D3F176D-2450-4887-9AC4-1237D1CC87EB";
paths = (
{
closed = 1;
nodes = (
"150.5 -201.35 OFFCURVE",
"189.65 -128.5 OFFCURVE",
"189.65 -9.8 CURVE SMOOTH",
"189.65 470 LINE",
"137.65 470 LINE",
"137.65 -9.8 LINE SMOOTH",
"137.65 -112.4 OFFCURVE",
"108.15 -167.4 OFFCURVE",
"31.85 -205.8 CURVE",
"57.45 -249.9 LINE"
);
}
);
width = 300.5;
}
);
unicode = 0631;
},
{
glyphname = "reh-ar.fina";
layers = (
{
anchors = (
{
name = bottom;
position = "{126, -350}";
},
{
name = top;
position = "{191, 550}";
}
);
components = (
{
name = "reh-ar";
},
{
name = connection_r;
transform = "{1, 0, 0, 1, 291, 0}";
}
);
layerId = "1124150E-252C-4727-BAB2-2837E441E30C";
paths = (
{
closed = 1;
nodes = (
"340 0 LINE",
"340 180 LINE",
"271 180 LINE",
"271 0 LINE"
);
}
);
width = 340;
},
{
anchors = (
{
name = bottom;
position = "{126, -350}";
},
{
name = top;
position = "{191, 550}";
}
);
associatedMasterId = "1124150E-252C-4727-BAB2-2837E441E30C";
components = (
{
name = "reh-ar";
}
);
layerId = "24DB8F55-890B-4845-AE3E-05AA15222DD1";
name = "Jun 24 17, 16:42";
paths = (
{
closed = 1;
nodes = (
"340 0 LINE",
"360 90 LINE",
"340 180 LINE",
"250 180 LINE",
"250 0 LINE"
);
}
);
width = 340;
},
{
anchors = (
{
name = bottom;
position = "{109.8, -350}";
},
{
name = top;
position = "{164, 550}";
}
);
components = (
{
alignment = -1;
name = "reh-ar";
},
{
alignment = -1;
name = connection_r;
transform = "{1, 0, 0, 1, 251.85, 0}";
}
);
hints = (
{
horizontal = 1;
origin = "{0, 3}";
target = "{0, 2}";
type = Stem;
}
);
layerId = "3D3F176D-2450-4887-9AC4-1237D1CC87EB";
paths = (
{
closed = 1;
nodes = (
"299.5 0 LINE",
"299.5 58.5 LINE",
"190 58.5 LINE",
"190 0 LINE"
);
}
);
width = 299.5;
}
);
unicode = FEAE;
},
{
glyphname = "seen-ar";
layers = (
{
anchors = (
{
name = bottom;
position = "{888, -90}";
},
{
name = top;
position = "{888, 500}";
}
);
color = 1;
layerId = "1124150E-252C-4727-BAB2-2837E441E30C";
paths = (
{
closed = 1;
nodes = (
"571 -240 OFFCURVE",
"614 -187 OFFCURVE",
"614 9 CURVE SMOOTH",
"614 380 LINE",
"454 380 LINE",
"454 -7 LINE SMOOTH",
"454 -50 OFFCURVE",
"420 -60 OFFCURVE",
"360 -60 CURVE SMOOTH",
"229 -60 LINE",
"222 -31 OFFCURVE",
"220 -3 OFFCURVE",
"220 39 CURVE SMOOTH",
"220 91 OFFCURVE",
"233 142 OFFCURVE",
"250 197 CURVE",
"91 221 LINE",
"68 153 OFFCURVE",
"60 82 OFFCURVE",
"60 9 CURVE SMOOTH",
"60 -188 OFFCURVE",
"118 -240 OFFCURVE",
"336 -240 CURVE SMOOTH"
);
},
{
closed = 1;
nodes = (
"690 0 LINE",
"925 0 OFFCURVE",
"968 54 OFFCURVE",
"968 258 CURVE SMOOTH",
"968 380 LINE",
"808 380 LINE",
"808 233 LINE SMOOTH",
"808 190 OFFCURVE",
"781 180 OFFCURVE",
"734 180 CURVE SMOOTH",
"614 180 LINE",
"614 0 LINE"
);
},
{
closed = 1;
nodes = (
"1230 0 OFFCURVE",
"1322 56 OFFCURVE",
"1322 268 CURVE SMOOTH",
"1322 338 OFFCURVE",
"1315 406 OFFCURVE",
"1292 470 CURVE",
"1133 446 LINE",
"1150 380 OFFCURVE",
"1162 320 OFFCURVE",
"1162 258 CURVE SMOOTH",
"1162 224 OFFCURVE",
"1160 200 OFFCURVE",
"1153 180 CURVE",
"1042 180 LINE SMOOTH",
"995 180 OFFCURVE",
"968 190 OFFCURVE",
"968 233 CURVE SMOOTH",
"968 380 LINE",
"808 380 LINE",
"808 258 LINE SMOOTH",
"808 54 OFFCURVE",
"853 0 OFFCURVE",
"1056 0 CURVE SMOOTH"
);
}
);
width = 1387;
},
{
anchors = (
{
name = bottom;
position = "{815.1, -90}";
},
{
name = top;
position = "{815.1, 500}";
}
);
color = 1;
hints = (
{
horizontal = 1;
origin = "{0, 22}";
target = "{0, 9}";
type = Stem;
},
{
horizontal = 1;
origin = "{1, 11}";
target = "{1, 10}";
type = Stem;
},
{
origin = "{0, 19}";
target = "{0, 12}";
type = Stem;
},
{
origin = "{0, 5}";
target = "{0, 2}";
type = Stem;
},
{
origin = "{1, 6}";
target = "{2, 16}";
type = Stem;
},
{
origin = "{2, 9}";
target = "{2, 2}";
type = Stem;
},
{
horizontal = 1;
origin = "{0, 4}";
target = down;
type = TopGhost;
},
{
horizontal = 1;
origin = "{2, 5}";
target = down;
type = TopGhost;
}
);
layerId = "3D3F176D-2450-4887-9AC4-1237D1CC87EB";
paths = (
{
closed = 1;
nodes = (
"502.15 -240 OFFCURVE",
"542.45 -205.9 OFFCURVE",
"542.45 -51.75 CURVE SMOOTH",
"542.45 380 LINE",
"490.45 380 LINE",
"490.45 -128.5 LINE SMOOTH",
"490.45 -171.5 OFFCURVE",
"456.45 -181.5 OFFCURVE",
"339.75 -181.5 CURVE SMOOTH",
"138.55 -181.5 LINE",
"128.85 -132.25 OFFCURVE",
"125.5 -82.65 OFFCURVE",
"125.5 -12.3 CURVE SMOOTH",
"125.5 45.1 OFFCURVE",
"135.8 115 OFFCURVE",
"151.45 187.55 CURVE",
"100.45 196.7 LINE",
"84.2 144.9 OFFCURVE",
"73.5 49.6 OFFCURVE",
"73.5 -24.75 CURVE SMOOTH",
"73.5 -200.15 OFFCURVE",
"85.6 -240 OFFCURVE",
"287.4 -240 CURVE SMOOTH"
);
},
{
closed = 1;
nodes = (
"650.85 0 LINE SMOOTH",
"802.15 0 OFFCURVE",
"827.6 29.7 OFFCURVE",
"827.6 164.85 CURVE SMOOTH",
"827.6 380 LINE",
"775.6 380 LINE",
"775.6 111.5 LINE SMOOTH",
"775.6 68.5 OFFCURVE",
"755.35 58.5 OFFCURVE",
"696.2 58.5 CURVE SMOOTH",
"542.45 58.5 LINE",
"542.45 0 LINE"
);
},
{
closed = 1;
nodes = (
"1097.7 0 OFFCURVE",
"1112.75 61.4 OFFCURVE",
"1112.75 255.85 CURVE SMOOTH",
"1112.75 315.05 OFFCURVE",
"1097.65 418.15 OFFCURVE",
"1086.8 467.3 CURVE",
"1035.8 458.15 LINE",
"1051.45 385.4 OFFCURVE",
"1060.75 313.25 OFFCURVE",
"1060.75 255.3 CURVE SMOOTH",
"1060.75 174.05 OFFCURVE",
"1057.4 114.95 OFFCURVE",
"1047.7 58.5 CURVE",
"907 58.5 LINE SMOOTH",
"847.85 58.5 OFFCURVE",
"827.6 68.5 OFFCURVE",
"827.6 111.5 CURVE SMOOTH",
"827.6 380 LINE",
"775.6 380 LINE",
"775.6 164.85 LINE SMOOTH",
"775.6 29.7 OFFCURVE",
"803.05 0 OFFCURVE",
"962.85 0 CURVE SMOOTH"
);
}
);
width = 1211.5;
}
);
unicode = 0633;
},
{
glyphname = "seen-ar.fina";
layers = (
{
anchors = (
{
name = bottom;
position = "{888, -100}";
},
{
name = top;
position = "{888, 500}";
}
);
color = 1;
components = (
{
name = "seen-ar";
},
{
name = connection_r;
transform = "{1, 0, 0, 1, 1343, 0}";
}
);
layerId = "1124150E-252C-4727-BAB2-2837E441E30C";
paths = (
{
closed = 1;
nodes = (
"1392 0 LINE",
"1392 180 LINE",
"1231 180 LINE",
"1056 0 LINE"
);
}
);
width = 1392;
},
{
anchors = (
{
name = bottom;
position = "{888, -100}";
},
{
name = top;
position = "{888, 500}";
}
);
associatedMasterId = "1124150E-252C-4727-BAB2-2837E441E30C";
color = 1;
components = (
{
name = "seen-ar";
}
);
layerId = "CD0037AD-FE83-4E2C-89FE-9D8A26B7F14E";
name = "Jun 24 17, 16:43";
paths = (
{
closed = 1;
nodes = (
"1392 0 LINE",
"1412 90 LINE",
"1392 180 LINE",
"1231 180 LINE",
"1056 0 LINE"
);
}
);
width = 1392;
},
{
anchors = (
{
name = bottom;
position = "{815.1, -100}";
},
{
name = top;
position = "{815.1, 500}";
}
);
color = 1;
components = (
{
alignment = -1;
name = "seen-ar";
},
{
alignment = -1;
name = connection_r;
transform = "{1, 0, 0, 1, 1175.6, 0}";
}
);
hints = (
{
horizontal = 1;
origin = "{0, 3}";
target = "{0, 2}";
type = Stem;
}
);
layerId = "3D3F176D-2450-4887-9AC4-1237D1CC87EB";
paths = (
{
closed = 1;
nodes = (
"1223.25 0 LINE",
"1223.25 58.5 LINE",
"1056.85 58.5 LINE",
"962.85 0 LINE"
);
}
);
width = 1223.25;
}
);
unicode = FEB2;
},
{
glyphname = "seen-ar.medi";
layers = (
{
anchors = (
{
name = bottom;
position = "{564, -100}";
},
{
name = top;
position = "{564, 500}";
}
);
color = 1;
components = (
{
name = "seen-ar.init";
},
{
name = connection_r;
transform = "{1, 0, 0, 1, 1019, 0}";
}
);
layerId = "1124150E-252C-4727-BAB2-2837E441E30C";
paths = (
{
closed = 1;
nodes = (
"1068 0 LINE",
"1068 180 LINE",
"907 180 LINE",
"722 0 LINE"
);
}
);
width = 1068;
},
{
anchors = (
{
name = bottom;
position = "{564, -100}";
},
{
name = top;
position = "{564, 500}";
}
);
associatedMasterId = "1124150E-252C-4727-BAB2-2837E441E30C";
color = 1;
components = (
{
name = "seen-ar.init";
}
);
layerId = "79185EA4-222E-4949-886B-176D33AF4178";
name = "Jun 24 17, 16:43";
paths = (
{
closed = 1;
nodes = (
"1068 0 LINE",
"1088 90 LINE",
"1068 180 LINE",
"907 180 LINE",
"722 0 LINE"
);
}
);
width = 1068;
},
{
anchors = (
{
name = bottom;
position = "{468.15, -100}";
},
{
name = top;
position = "{468.15, 500}";
}
);
components = (
{
alignment = -1;
name = "seen-ar.init";
},
{
alignment = -1;
name = connection_r;
transform = "{1, 0, 0, 1, 828.65, 0}";
}
);
hints = (
{
horizontal = 1;
origin = "{0, 3}";
target = "{0, 2}";
type = Stem;
},
{
place = "{189, 108}";
type = Stem;
},
{
place = "{598.05, 108}";
type = Stem;
},
{
origin = "{0, 2}";
target = "{0, 2}";
type = Stem;
},
{
horizontal = 1;
place = "{513, -27}";
target = down;
type = TopGhost;
},
{
horizontal = 1;
place = "{631.8, -27}";
target = down;
type = TopGhost;
}
);
layerId = "3D3F176D-2450-4887-9AC4-1237D1CC87EB";
paths = (
{
closed = 1;
nodes = (
"876.3 0 LINE",
"876.3 58.5 LINE",
"709.9 58.5 LINE",
"619.4 0 LINE"
);
}
);
width = 876.3;
}
);
unicode = FEB4;
},
{
glyphname = "seen-ar.init";
layers = (
{
anchors = (
{
name = bottom;
position = "{564, -100}";
},
{
name = top;
position = "{564, 500}";
}
);
background = {
paths = (
{
closed = 1;
nodes = (
"916 0 OFFCURVE",
"1018 56 OFFCURVE",
"1018 268 CURVE SMOOTH",
"1018 338 OFFCURVE",
"1007 406 OFFCURVE",
"984 470 CURVE",
"792 446 LINE",
"809 380 OFFCURVE",
"818 320 OFFCURVE",
"818 258 CURVE SMOOTH",
"818 207 OFFCURVE",
"816 171 OFFCURVE",
"809 140 CURVE",
"738 140 LINE SMOOTH",
"678 140 OFFCURVE",
"664 150 OFFCURVE",
"664 193 CURVE SMOOTH",
"664 380 LINE",
"464 380 LINE",
"464 218 LINE SMOOTH",
"464 46 OFFCURVE",
"527 0 OFFCURVE",
"722 0 CURVE SMOOTH"
);
},
{
closed = 1;
nodes = (
"601 0 OFFCURVE",
"664 46 OFFCURVE",
"664 218 CURVE SMOOTH",
"664 380 LINE",
"464 380 LINE",
"464 193 LINE SMOOTH",
"464 150 OFFCURVE",
"450 140 OFFCURVE",
"390 140 CURVE",
"310 140 LINE",
"310 0 LINE",
"366 0 LINE"
);
},
{
closed = 1;
nodes = (
"310 380 LINE",
"110 380 LINE",
"110 140 LINE",
"-20 140 LINE",
"-20 0 LINE",
"310 0 LINE"
);
}
);
};
components = (
{
name = connection_l;
}
);
layerId = "1124150E-252C-4727-BAB2-2837E441E30C";
paths = (
{
closed = 1;
nodes = (
"906 0 OFFCURVE",
"998 56 OFFCURVE",
"998 268 CURVE SMOOTH",
"998 338 OFFCURVE",
"991 406 OFFCURVE",
"968 470 CURVE",
"809 446 LINE",
"826 380 OFFCURVE",
"838 320 OFFCURVE",
"838 258 CURVE SMOOTH",
"838 224 OFFCURVE",
"836 200 OFFCURVE",
"829 180 CURVE",
"718 180 LINE SMOOTH",
"671 180 OFFCURVE",
"644 190 OFFCURVE",
"644 233 CURVE SMOOTH",
"644 380 LINE",
"484 380 LINE",
"484 258 LINE SMOOTH",
"484 54 OFFCURVE",
"529 0 OFFCURVE",
"732 0 CURVE SMOOTH"
);
},
{
closed = 1;
nodes = (
"290 0 LINE",
"290 380 LINE",
"130 380 LINE",
"130 180 LINE",
"0 180 LINE",
"0 0 LINE"
);
},
{
closed = 1;
nodes = (
"366 0 LINE",
"601 0 OFFCURVE",
"644 54 OFFCURVE",
"644 258 CURVE SMOOTH",
"644 380 LINE",
"484 380 LINE",
"484 233 LINE SMOOTH",
"484 190 OFFCURVE",
"457 180 OFFCURVE",
"410 180 CURVE SMOOTH",
"290 180 LINE",
"290 0 LINE"
);
}
);
width = 1063;
},
{
anchors = (
{
name = bottom;
position = "{564, -100}";
},
{
name = top;
position = "{564, 500}";
}
);
associatedMasterId = "1124150E-252C-4727-BAB2-2837E441E30C";
background = {
paths = (
{
closed = 1;
nodes = (
"916 0 OFFCURVE",
"1018 56 OFFCURVE",
"1018 268 CURVE SMOOTH",
"1018 338 OFFCURVE",
"1007 406 OFFCURVE",
"984 470 CURVE",
"792 446 LINE",
"809 380 OFFCURVE",
"818 320 OFFCURVE",
"818 258 CURVE SMOOTH",
"818 207 OFFCURVE",
"816 171 OFFCURVE",
"809 140 CURVE",
"738 140 LINE SMOOTH",
"678 140 OFFCURVE",
"664 150 OFFCURVE",
"664 193 CURVE SMOOTH",
"664 380 LINE",
"464 380 LINE",
"464 218 LINE SMOOTH",
"464 46 OFFCURVE",
"527 0 OFFCURVE",
"722 0 CURVE SMOOTH"
);
},
{
closed = 1;
nodes = (
"601 0 OFFCURVE",
"664 46 OFFCURVE",
"664 218 CURVE SMOOTH",
"664 380 LINE",
"464 380 LINE",
"464 193 LINE SMOOTH",
"464 150 OFFCURVE",
"450 140 OFFCURVE",
"390 140 CURVE",
"310 140 LINE",
"310 0 LINE",
"366 0 LINE"
);
},
{
closed = 1;
nodes = (
"310 380 LINE",
"110 380 LINE",
"110 140 LINE",
"-20 140 LINE",
"-20 0 LINE",
"310 0 LINE"
);
}
);
};
layerId = "9537F21B-7CC9-47B2-BFB2-DFCD3C224D3B";
name = "Jun 24 17, 16:43";
paths = (
{
closed = 1;
nodes = (
"906 0 OFFCURVE",
"998 56 OFFCURVE",
"998 268 CURVE SMOOTH",
"998 338 OFFCURVE",
"991 406 OFFCURVE",
"968 470 CURVE",
"809 446 LINE",
"826 380 OFFCURVE",
"838 320 OFFCURVE",
"838 258 CURVE SMOOTH",
"838 224 OFFCURVE",
"836 200 OFFCURVE",
"829 180 CURVE",
"718 180 LINE SMOOTH",
"671 180 OFFCURVE",
"644 190 OFFCURVE",
"644 233 CURVE SMOOTH",
"644 380 LINE",
"484 380 LINE",
"484 258 LINE SMOOTH",
"484 54 OFFCURVE",
"529 0 OFFCURVE",
"732 0 CURVE SMOOTH"
);
},
{
closed = 1;
nodes = (
"290 0 LINE",
"290 380 LINE",
"130 380 LINE",
"130 180 LINE",
"0 180 LINE",
"-20 90 LINE",
"0 0 LINE"
);
},
{
closed = 1;
nodes = (
"366 0 LINE",
"601 0 OFFCURVE",
"644 54 OFFCURVE",
"644 258 CURVE SMOOTH",
"644 380 LINE",
"484 380 LINE",
"484 233 LINE SMOOTH",
"484 190 OFFCURVE",
"457 180 OFFCURVE",
"410 180 CURVE SMOOTH",
"290 180 LINE",
"290 0 LINE"
);
}
);
width = 1063;
},
{
anchors = (
{
name = bottom;
position = "{468.15, -100}";
},
{
name = top;
position = "{468.15, 500}";
}
);
components = (
{
alignment = -1;
name = connection_l;
}
);
hints = (
{
horizontal = 1;
origin = "{1, 5}";
target = "{1, 4}";
type = Stem;
},
{
origin = "{1, 3}";
target = "{2, 11}";
type = Stem;
},
{
origin = "{2, 6}";
target = "{0, 16}";
type = Stem;
},
{
origin = "{0, 9}";
target = "{0, 2}";
type = Stem;
}
);
layerId = "3D3F176D-2450-4887-9AC4-1237D1CC87EB";
paths = (
{
closed = 1;
nodes = (
"750.75 0 OFFCURVE",
"765.8 61.4 OFFCURVE",
"765.8 255.85 CURVE SMOOTH",
"765.8 315.05 OFFCURVE",
"750.7 418.15 OFFCURVE",
"739.85 467.3 CURVE",
"688.85 458.15 LINE",
"704.5 385.4 OFFCURVE",
"713.8 313.25 OFFCURVE",
"713.8 255.3 CURVE SMOOTH",
"713.8 174.05 OFFCURVE",
"710.45 114.95 OFFCURVE",
"700.75 58.5 CURVE",
"560.05 58.5 LINE SMOOTH",
"500.9 58.5 OFFCURVE",
"480.65 68.5 OFFCURVE",
"480.65 111.5 CURVE SMOOTH",
"480.65 380 LINE",
"428.65 380 LINE",
"428.65 164.85 LINE SMOOTH",
"428.65 29.7 OFFCURVE",
"456.1 0 OFFCURVE",
"615.9 0 CURVE SMOOTH"
);
},
{
closed = 1;
nodes = (
"195.5 0 LINE",
"195.5 380 LINE",
"143.5 380 LINE",
"143.5 58.5 LINE",
"0 58.5 LINE",
"0 0 LINE"
);
},
{
closed = 1;
nodes = (
"303.9 0 LINE SMOOTH",
"455.2 0 OFFCURVE",
"480.65 29.7 OFFCURVE",
"480.65 164.85 CURVE SMOOTH",
"480.65 380 LINE",
"428.65 380 LINE",
"428.65 111.5 LINE SMOOTH",
"428.65 68.5 OFFCURVE",
"408.4 58.5 OFFCURVE",
"349.25 58.5 CURVE SMOOTH",
"195.5 58.5 LINE",
"195.5 0 LINE"
);
}
);
width = 864.55;
}
);
unicode = FEB3;
},
{
glyphname = "sad-ar";
layers = (
{
anchors = (
{
name = bottom;
position = "{835, -100}";
},
{
name = top;
position = "{835, 550}";
}
);
color = 1;
layerId = "1124150E-252C-4727-BAB2-2837E441E30C";
paths = (
{
closed = 1;
nodes = (
"1106 0 LINE",
"1106 290 LINE SMOOTH",
"1106 436 OFFCURVE",
"1057 480 OFFCURVE",
"892 480 CURVE SMOOTH",
"768 480 OFFCURVE",
"653 424 OFFCURVE",
"614 344 CURVE",
"614 470 LINE",
"454 470 LINE",
"454 124 LINE",
"614 124 LINE",
"614 240 OFFCURVE",
"686 300 OFFCURVE",
"825 300 CURVE SMOOTH",
"880 300 OFFCURVE",
"924 296 OFFCURVE",
"946 289 CURVE",
"946 0 LINE"
);
},
{
closed = 1;
nodes = (
"571 -240 OFFCURVE",
"614 -187 OFFCURVE",
"614 9 CURVE SMOOTH",
"614 124 LINE",
"454 124 LINE",
"454 -7 LINE SMOOTH",
"454 -50 OFFCURVE",
"420 -60 OFFCURVE",
"360 -60 CURVE SMOOTH",
"229 -60 LINE",
"222 -31 OFFCURVE",
"220 -3 OFFCURVE",
"220 39 CURVE SMOOTH",
"220 91 OFFCURVE",
"233 142 OFFCURVE",
"250 197 CURVE",
"91 221 LINE",
"68 153 OFFCURVE",
"60 82 OFFCURVE",
"60 9 CURVE SMOOTH",
"60 -188 OFFCURVE",
"118 -240 OFFCURVE",
"336 -240 CURVE SMOOTH"
);
},
{
closed = 1;
nodes = (
"1106 0 LINE",
"1029 180 LINE",
"544 180 LINE",
"544 0 LINE"
);
}
);
width = 1176;
},
{
anchors = (
{
name = bottom;
position = "{818.8, -100}";
},
{
name = top;
position = "{818.8, 550}";
}
);
color = 1;
hints = (
{
horizontal = 1;
origin = "{1, 22}";
target = "{1, 9}";
type = Stem;
},
{
horizontal = 1;
origin = "{2, 3}";
target = "{2, 2}";
type = Stem;
},
{
horizontal = 1;
origin = "{0, 4}";
target = "{0, 14}";
type = Stem;
},
{
horizontal = 1;
origin = "{0, 9}";
target = down;
type = TopGhost;
},
{
origin = "{1, 19}";
target = "{1, 12}";
type = Stem;
},
{
origin = "{1, 5}";
target = "{1, 2}";
type = Stem;
},
{
origin = "{0, 18}";
target = "{2, 0}";
type = Stem;
},
{
horizontal = 1;
origin = "{0, 9}";
target = down;
type = TopGhost;
},
{
horizontal = 1;
origin = "{1, 16}";
target = down;
type = TopGhost;
}
);
layerId = "3D3F176D-2450-4887-9AC4-1237D1CC87EB";
paths = (
{
closed = 1;
nodes = (
"1034.45 0 LINE",
"1034.45 384.5 LINE SMOOTH",
"1034.45 456.25 OFFCURVE",
"1000.3 480 OFFCURVE",
"901.45 480 CURVE SMOOTH",
"714 480 OFFCURVE",
"589.55 405.1 OFFCURVE",
"542.45 265.7 CURVE",
"542.45 470 LINE",
"490.45 470 LINE",
"490.45 29.5 LINE",
"542.45 29.5 LINE",
"542.45 296.7 OFFCURVE",
"648.2 421.5 OFFCURVE",
"874.95 421.5 CURVE SMOOTH",
"924.55 421.5 OFFCURVE",
"960.45 417.5 OFFCURVE",
"982.45 410.5 CURVE",
"982.45 0 LINE"
);
},
{
closed = 1;
nodes = (
"502.15 -240 OFFCURVE",
"542.45 -205.9 OFFCURVE",
"542.45 -51.75 CURVE SMOOTH",
"542.45 29.5 LINE",
"490.45 29.5 LINE",
"490.45 -128.5 LINE SMOOTH",
"490.45 -171.5 OFFCURVE",
"456.45 -181.5 OFFCURVE",
"339.75 -181.5 CURVE SMOOTH",
"138.55 -181.5 LINE",
"128.85 -132.25 OFFCURVE",
"125.5 -82.65 OFFCURVE",
"125.5 -12.3 CURVE SMOOTH",
"125.5 45.1 OFFCURVE",
"135.8 115 OFFCURVE",
"151.45 187.55 CURVE",
"100.45 196.7 LINE",
"84.2 144.9 OFFCURVE",
"73.5 49.6 OFFCURVE",
"73.5 -24.75 CURVE SMOOTH",
"73.5 -200.15 OFFCURVE",
"85.6 -240 OFFCURVE",
"287.4 -240 CURVE SMOOTH"
);
},
{
closed = 1;
nodes = (
"1034.45 0 LINE",
"1010.1 58.5 LINE",
"523.75 58.5 LINE",
"523.75 0 LINE"
);
}
);
width = 1140.9;
}
);
unicode = 0635;
},
{
glyphname = "sad-ar.fina";
layers = (
{
anchors = (
{
name = bottom;
position = "{835, -100}";
},
{
name = top;
position = "{835, 550}";
}
);
color = 1;
components = (
{
name = "sad-ar";
},
{
name = connection_r;
transform = "{1, 0, 0, 1, 1127, 0}";
}
);
layerId = "1124150E-252C-4727-BAB2-2837E441E30C";
paths = (
{
closed = 1;
nodes = (
"1176 0 LINE",
"1176 180 LINE",
"1106 180 LINE",
"1106 0 LINE"
);
}
);
width = 1176;
},
{
anchors = (
{
name = bottom;
position = "{835, -100}";
},
{
name = top;
position = "{835, 550}";
}
);
associatedMasterId = "1124150E-252C-4727-BAB2-2837E441E30C";
color = 1;
components = (
{
name = "sad-ar";
}
);
layerId = "8B115517-B93D-4245-9BAE-F1EFC92D4CE4";
name = "Jun 24 17, 16:44";
paths = (
{
closed = 1;
nodes = (
"1176 0 LINE",
"1196 90 LINE",
"1176 180 LINE",
"1106 180 LINE",
"1106 0 LINE"
);
}
);
width = 1176;
},
{
anchors = (
{
name = bottom;
position = "{818.8, -100}";
},
{
name = top;
position = "{818.8, 550}";
}
);
color = 1;
components = (
{
alignment = -1;
name = "sad-ar";
},
{
alignment = -1;
name = connection_r;
transform = "{1, 0, 0, 1, 1100, 0}";
}
);
hints = (
{
horizontal = 1;
origin = "{0, 3}";
target = "{0, 2}";
type = Stem;
}
);
layerId = "3D3F176D-2450-4887-9AC4-1237D1CC87EB";
paths = (
{
closed = 1;
nodes = (
"1147.65 0 LINE",
"1147.65 58.5 LINE",
"1034.45 58.5 LINE",
"1034.45 0 LINE"
);
}
);
width = 1147.65;
}
);
unicode = FEBA;
},
{
glyphname = "sad-ar.medi";
layers = (
{
anchors = (
{
name = bottom;
position = "{500, -100}";
},
{
name = top;
position = "{500, 550}";
}
);
color = 1;
components = (
{
name = "sad-ar.init";
},
{
name = connection_r;
transform = "{1, 0, 0, 1, 803, 0}";
}
);
layerId = "1124150E-252C-4727-BAB2-2837E441E30C";
paths = (
{
closed = 1;
nodes = (
"852 0 LINE",
"852 180 LINE",
"782 180 LINE",
"782 0 LINE"
);
}
);
width = 852;
},
{
anchors = (
{
name = bottom;
position = "{500, -100}";
},
{
name = top;
position = "{500, 550}";
}
);
associatedMasterId = "1124150E-252C-4727-BAB2-2837E441E30C";
color = 1;
components = (
{
name = "sad-ar.init";
}
);
layerId = "8C7F26A6-1870-4156-A577-A47DAE33B984";
name = "Jun 24 17, 16:45";
paths = (
{
closed = 1;
nodes = (
"852 0 LINE",
"872 90 LINE",
"852 180 LINE",
"782 180 LINE",
"782 0 LINE"
);
}
);
width = 852;
},
{
anchors = (
{
name = bottom;
position = "{459.5, -100}";
},
{
name = top;
position = "{459.5, 550}";
}
);
color = 1;
components = (
{
alignment = -1;
name = "sad-ar.init";
},
{
alignment = -1;
name = connection_r;
transform = "{1, 0, 0, 1, 750.35, 0}";
}
);
hints = (
{
horizontal = 1;
origin = "{0, 3}";
target = "{0, 2}";
type = Stem;
},
{
horizontal = 1;
place = "{648, -121.5}";
type = Stem;
},
{
horizontal = 1;
place = "{634.5, -27}";
target = down;
type = TopGhost;
},
{
place = "{189, 108}";
type = Stem;
},
{
place = "{853.2, 108}";
type = Stem;
}
);
layerId = "3D3F176D-2450-4887-9AC4-1237D1CC87EB";
paths = (
{
closed = 1;
nodes = (
"798 0 LINE",
"798 58.5 LINE",
"687.5 58.5 LINE",
"687.5 0 LINE"
);
}
);
width = 798;
}
);
unicode = FEBC;
},
{
glyphname = "sad-ar.init";
layers = (
{
anchors = (
{
name = bottom;
position = "{500, -100}";
},
{
name = top;
position = "{500, 550}";
}
);
color = 1;
components = (
{
name = connection_l;
}
);
layerId = "1124150E-252C-4727-BAB2-2837E441E30C";
paths = (
{
closed = 1;
nodes = (
"782 0 LINE",
"782 290 LINE SMOOTH",
"782 436 OFFCURVE",
"733 480 OFFCURVE",
"568 480 CURVE SMOOTH",
"444 480 OFFCURVE",
"329 424 OFFCURVE",
"290 344 CURVE",
"290 470 LINE",
"130 470 LINE",
"130 124 LINE",
"290 124 LINE",
"290 240 OFFCURVE",
"362 300 OFFCURVE",
"501 300 CURVE SMOOTH",
"556 300 OFFCURVE",
"600 296 OFFCURVE",
"622 289 CURVE",
"622 0 LINE"
);
},
{
closed = 1;
nodes = (
"782 0 LINE",
"782 180 LINE",
"0 180 LINE",
"0 0 LINE"
);
}
);
width = 852;
},
{
anchors = (
{
name = bottom;
position = "{500, -100}";
},
{
name = top;
position = "{500, 550}";
}
);
associatedMasterId = "1124150E-252C-4727-BAB2-2837E441E30C";
color = 1;
layerId = "B0EE91B5-5AFC-4BEB-B384-FB770FF6A77F";
name = "Jun 24 17, 16:44";
paths = (
{
closed = 1;
nodes = (
"782 0 LINE",
"782 290 LINE SMOOTH",
"782 436 OFFCURVE",
"733 480 OFFCURVE",
"568 480 CURVE SMOOTH",
"444 480 OFFCURVE",
"329 424 OFFCURVE",
"290 344 CURVE",
"290 470 LINE",
"130 470 LINE",
"130 124 LINE",
"290 124 LINE",
"290 240 OFFCURVE",
"362 300 OFFCURVE",
"501 300 CURVE SMOOTH",
"556 300 OFFCURVE",
"600 296 OFFCURVE",
"622 289 CURVE",
"622 0 LINE"
);
},
{
closed = 1;
nodes = (
"782 0 LINE",
"782 180 LINE",
"0 180 LINE",
"-20 90 LINE",
"0 0 LINE"
);
}
);
width = 852;
},
{
anchors = (
{
name = bottom;
position = "{459.5, -100}";
},
{
name = top;
position = "{459.5, 550}";
}
);
color = 1;
components = (
{
alignment = -1;
name = connection_l;
}
);
hints = (
{
horizontal = 1;
origin = "{1, 3}";
target = "{1, 2}";
type = Stem;
},
{
horizontal = 1;
origin = "{0, 4}";
target = "{0, 14}";
type = Stem;
},
{
horizontal = 1;
origin = "{0, 9}";
target = down;
type = TopGhost;
},
{
origin = "{0, 10}";
target = "{0, 11}";
type = Stem;
},
{
origin = "{0, 18}";
target = "{1, 0}";
type = Stem;
}
);
layerId = "3D3F176D-2450-4887-9AC4-1237D1CC87EB";
paths = (
{
closed = 1;
nodes = (
"687.5 0 LINE",
"687.5 384.5 LINE SMOOTH",
"687.5 456.25 OFFCURVE",
"653.35 480 OFFCURVE",
"554.5 480 CURVE SMOOTH",
"367.05 480 OFFCURVE",
"242.6 405.1 OFFCURVE",
"195.5 265.7 CURVE",
"195.5 470 LINE",
"143.5 470 LINE",
"143.5 29.5 LINE",
"195.5 29.5 LINE",
"195.5 296.7 OFFCURVE",
"301.25 421.5 OFFCURVE",
"528 421.5 CURVE SMOOTH",
"577.6 421.5 OFFCURVE",
"613.5 417.5 OFFCURVE",
"635.5 410.5 CURVE",
"635.5 0 LINE"
);
},
{
closed = 1;
nodes = (
"687.5 0 LINE",
"687.5 58.5 LINE",
"0 58.5 LINE",
"0 0 LINE"
);
}
);
width = 791.25;
}
);
unicode = FEBB;
},
{
glyphname = "tah-ar";
layers = (
{
anchors = (
{
name = bottom;
position = "{500, -100}";
},
{
name = top;
position = "{500, 550}";
}
);
background = {
paths = (
{
closed = 0;
nodes = (
"746 340 LINE SMOOTH",
"746 461 OFFCURVE",
"675 515 OFFCURVE",
"516 515 CURVE SMOOTH",
"433 515 OFFCURVE",
"352 504 OFFCURVE",
"274 481 CURVE",
"298 343 LINE",
"367 360 OFFCURVE",
"432 369 OFFCURVE",
"496 369 CURVE SMOOTH",
"517 369 OFFCURVE",
"533 368 OFFCURVE",
"546 365 CURVE"
);
}
);
};
color = 1;
layerId = "1124150E-252C-4727-BAB2-2837E441E30C";
paths = (
{
closed = 1;
nodes = (
"782 0 LINE",
"782 290 LINE SMOOTH",
"782 436 OFFCURVE",
"733 480 OFFCURVE",
"568 480 CURVE SMOOTH",
"444 480 OFFCURVE",
"329 424 OFFCURVE",
"290 344 CURVE",
"290 630 LINE",
"130 630 LINE",
"130 124 LINE",
"290 124 LINE",
"290 240 OFFCURVE",
"362 300 OFFCURVE",
"501 300 CURVE SMOOTH",
"556 300 OFFCURVE",
"600 296 OFFCURVE",
"622 289 CURVE",
"622 0 LINE"
);
},
{
closed = 1;
nodes = (
"782 0 LINE",
"782 180 LINE",
"20 180 LINE",
"20 0 LINE"
);
}
);
width = 847;
},
{
anchors = (
{
name = bottom;
position = "{459.5, -100}";
},
{
name = top;
position = "{459.5, 550}";
}
);
color = 1;
hints = (
{
horizontal = 1;
origin = "{1, 3}";
target = "{1, 2}";
type = Stem;
},
{
horizontal = 1;
origin = "{0, 4}";
target = "{0, 14}";
type = Stem;
},
{
horizontal = 1;
origin = "{0, 9}";
target = down;
type = TopGhost;
},
{
origin = "{0, 10}";
target = "{0, 11}";
type = Stem;
},
{
origin = "{0, 18}";
target = "{1, 0}";
type = Stem;
}
);
layerId = "3D3F176D-2450-4887-9AC4-1237D1CC87EB";
paths = (
{
closed = 1;
nodes = (
"687.5 0 LINE",
"687.5 384.5 LINE SMOOTH",
"687.5 456.25 OFFCURVE",
"653.35 480 OFFCURVE",
"554.5 480 CURVE SMOOTH",
"367.05 480 OFFCURVE",
"242.6 405.1 OFFCURVE",
"195.5 265.7 CURVE",
"195.5 630 LINE",
"143.5 630 LINE",
"143.5 29.5 LINE",
"195.5 29.5 LINE",
"195.5 296.7 OFFCURVE",
"301.25 421.5 OFFCURVE",
"528 421.5 CURVE SMOOTH",
"577.6 421.5 OFFCURVE",
"613.5 417.5 OFFCURVE",
"635.5 410.5 CURVE",
"635.5 0 LINE"
);
},
{
closed = 1;
nodes = (
"687.5 0 LINE",
"687.5 58.5 LINE",
"20 58.5 LINE",
"20 0 LINE"
);
}
);
width = 793;
}
);
unicode = 0637;
},
{
glyphname = "tah-ar.fina";
layers = (
{
anchors = (
{
name = bottom;
position = "{500, -100}";
},
{
name = top;
position = "{500, 550}";
}
);
color = 1;
components = (
{
name = "tah-ar";
},
{
name = connection_r;
transform = "{1, 0, 0, 1, 803, 0}";
}
);
layerId = "1124150E-252C-4727-BAB2-2837E441E30C";
paths = (
{
closed = 1;
nodes = (
"852 0 LINE",
"852 180 LINE",
"782 180 LINE",
"782 0 LINE"
);
}
);
width = 852;
},
{
anchors = (
{
name = bottom;
position = "{500, -100}";
},
{
name = top;
position = "{500, 550}";
}
);
associatedMasterId = "1124150E-252C-4727-BAB2-2837E441E30C";
color = 1;
components = (
{
name = "tah-ar";
}
);
layerId = "C44DF53B-08C1-400D-BF9D-5DA808D63A66";
name = "Jun 24 17, 16:45";
paths = (
{
closed = 1;
nodes = (
"852 0 LINE",
"872 90 LINE",
"852 180 LINE",
"782 180 LINE",
"782 0 LINE"
);
}
);
width = 852;
},
{
anchors = (
{
name = bottom;
position = "{459.5, -100}";
},
{
name = top;
position = "{459.5, 550}";
}
);
color = 1;
components = (
{
alignment = -1;
name = "tah-ar";
},
{
alignment = -1;
name = connection_r;
transform = "{1, 0, 0, 1, 750.35, 0}";
}
);
hints = (
{
horizontal = 1;
origin = "{0, 3}";
target = "{0, 2}";
type = Stem;
}
);
layerId = "3D3F176D-2450-4887-9AC4-1237D1CC87EB";
paths = (
{
closed = 1;
nodes = (
"798 0 LINE",
"798 58.5 LINE",
"687.5 58.5 LINE",
"687.5 0 LINE"
);
}
);
width = 798;
}
);
leftMetricsKey = "tah-ar";
unicode = FEC2;
},
